<svg xmlns="http://www.w3.org/2000/svg" viewBox="0 0 238.55 110.01"><defs><style>.cls-4{fill:#004b2f}.cls-3{fill-rule:evenodd}.cls-2,.cls-3{fill:#ffc20e}.cls-5{fill:#231f20}.cls-8{letter-spacing:0}</style></defs><g id="Layer_2" data-name="Layer 2"><g id="Layer_1-2" data-name="Layer 1"><path d="M27.47 16.74l-.32.18-.34.16-.35.15-.35.13-.37.12-.38.1-.4.1-.4.08-.42.08-.43.07-.44.08-.44.07-.46.08-.47.09-.47.1-.48.11-.49.13-.49.14-.49.18-.51.2-.49.23-.5.26-.49.3-.48.34-.48.38-.47.42-.45.47-.44.52c-.15.18-.29.37-.43.56s-.33.49-.5.74l-.82.18-.67.2-.63.23-.59.27-.55.3c-.17.1-.34.22-.52.32l-.48.35-.44.38-.41.39-.39.4-.35.42-.33.42-.3.43-.29.4-.27.44-.2.47-.24.43-.24.43c-.14.28-.29.55-.44.83l-.22.4-.21.38-.22.37-.22.35-.22.33c-.07.11-.15.21-.22.31l-.28.26-.24.26-.25.26-.25.22c-1.1.8-1 .67-.66 2 0 .12.05.24.08.36s0 .24.05.36 0 .25 0 .37V38.79l-.06.41c0 .14 0 .28-.06.42L3 40l-.06.44c0 .15 0 .31-.07.46l-.06.46c0 .16 0 .32-.05.48s0 .32 0 .48v2.05c0 .18 0 .36.07.54s.07.36.11.55.06.39.06.54l.18.56c.07.19.15.38.22.56l.27.57c.1.19.2.38.31.57s.24.38.35.57.28.38.41.58.38.46.56.7c0 .27 0 .55-.07.83s0 .45 0 .68v.66c0 .21 0 .42.08.63s.08.41.11.62.11.38.16.58.12.37.19.56.15.35.22.53.17.34.25.51l.27.48.29.46.31.44.33.42.33.4.33.39.35.37.34.36.34.35.33.34c.12.11.22.22.33.33l.32.33.3.32.29.32.27.31c.08.11.17.21.25.31l.23.31.2.3.18.3c0 .11.11.21.16.31s.08.2.13.3c.42 1.29.32 1.18 1.69 1.23h.37l.37.07.37.08.37.1.37.12.36.14.38.15.38.17.38.18.39.18.4.2.41.2.42.2.43.2.44.19.46.19.47.18.48.17.51.14.52.13.54.1.56.07H24.97l.63-.07.65-.12.66-.16.68-.2.85-.31.78.33.65.22.64.18.64.12.62.08h1.81l.56-.08.55-.1.53-.14.52-.15.51-.17.49-.19.48-.2.46-.2.46-.21.44-.21.43-.21.42-.2.42-.2.4-.19.4-.17.38-.16.38-.13.37-.12.35-.1.35-.08h.67c1.37 0 1.24.06 1.71-1.21l.15-.34c.06-.11.12-.22.17-.33s.13-.21.2-.32l.21-.31.23-.31.24-.3.27-.31.27-.3.3-.31.3-.3.63-.64.32-.33.33-.34c.1-.12.21-.24.32-.35l.32-.37.32-.39c.1-.13.2-.27.31-.4l.3-.43c.09-.15.18-.3.28-.45l.27-.48.24-.5c.07-.17.15-.35.22-.53s.12-.37.19-.55.1-.39.16-.58l.12-.61.09-.65c0-.22 0-.45.05-.67s0-.46 0-.7v-.89l.55-.63.42-.54c.13-.18.25-.37.37-.55l.32-.56.27-.56c.07-.19.15-.38.22-.56l.18-.56c0-.19.09-.38.14-.56s.07-.38.1-.56.05-.37.07-.55 0-.36 0-.54v-1.56c0-.17 0-.34-.05-.51s0-.33 0-.49l-.06-.5c0-.16 0-.32-.07-.48 0-.31-.08-.61-.13-.92l-.06-.45-.06-.44v-.83-.78-.36-.35-.33c0-.11.06-.22.08-.32.42-1.29.44-1.15-.64-2l-.32-.23-.26-.27-.25-.28-.24-.29c-.07-.11-.15-.21-.22-.31l-.19-.34-.21-.34c-.07-.12-.14-.23-.2-.35l-.21-.31-.22-.43c-.13-.26-.28-.52-.41-.79s-.15-.26-.22-.4l-.22-.38-.24-.41-.26-.42-.27-.42-.3-.41c-.1-.14-.21-.28-.32-.41l-.34-.41c-.13-.13-.26-.26-.38-.4l-.41-.38-.44-.37-.48-.37-.51-.32-.55-.31-.6-.28-.63-.26-.67-.22-.87-.25-.43-.71-.4-.56-.42-.52-.43-.47-.46-.43-.48-.38-.48-.34-.5-.3-.51-.27-.51-.23-.5-.2-.52-.18-.51-.15-.51-.14-.5-.11-1-.2-.48-.09-.94-.16-.45-.08-.44-.08-.41-.1-.41-.1-.38-.1-.37-.12-.34-.12-.33-.15-.31-.16-.28-.17c-1.11-.78-1-.76-2.11 0" fill-rule="evenodd" fill="#004b2f"/><path class="cls-2" d="M23.47 19a11 11 0 004.94-1.64.2.2 0 01.23 0 11.36 11.36 0 005 1.65c3 .5 6.09 1 8.52 5.25 4.62.63 6.22 3.61 7.71 6.39A10.85 10.85 0 0053 34.82a.16.16 0 010 .18 11.06 11.06 0 000 5.18c.44 2.95.9 6-2.43 9.61.82 4.53-1.56 6.95-3.78 9.2a10.75 10.75 0 00-3 4.21.18.18 0 01-.17.13 11.43 11.43 0 00-5 1.55c-2.71 1.33-5.53 2.71-10 .7-4.12 2.16-7.19.67-10-.71a10.92 10.92 0 00-5-1.54.16.16 0 01-.18-.12A11 11 0 0010.27 59C8.15 56.87 6 54.65 6.5 49.82c-3.35-3.19-2.87-6.53-2.42-9.64A10.6 10.6 0 004 35a.17.17 0 01.06-.22 11.07 11.07 0 003.13-4.16c1.41-2.64 2.86-5.39 7.69-6.37 2.12-4.09 5.45-4.67 8.59-5.25m5.07-1.29a11.6 11.6 0 01-5 1.64c-3.08.53-6.38 1.09-8.33 5.14a.24.24 0 01-.13.09c-4.73.93-6.16 3.62-7.54 6.21A11.5 11.5 0 014.4 35a11.12 11.12 0 010 5.2c-.45 3.05-.92 6.31 2.37 9.4a.16.16 0 01.06.15c-.57 4.72 1.59 6.89 3.66 9A11.58 11.58 0 0113.62 63a11.8 11.8 0 015 1.58c2.8 1.36 5.8 2.81 9.8.68a.17.17 0 01.17 0c4.37 2 7.13.64 9.78-.65a11.93 11.93 0 015-1.59 11.34 11.34 0 013.08-4.23c2.17-2.2 4.51-4.57 3.68-9a.18.18 0 010-.16c3.27-3.48 2.82-6.49 2.39-9.38a11.32 11.32 0 010-5.21 11.22 11.22 0 01-3.13-4.19c-1.46-2.72-3-5.64-7.53-6.23a.16.16 0 01-.13-.09c-2.36-4.15-5.4-4.65-8.32-5.14a11.81 11.81 0 01-4.87-1.64zm-1.07-1l-.32.18-.34.16-.35.15-.35.13-.37.12-.38.1-.4.1-.4.08-.42.08-.43.07-.44.08-.44.07-.46.08-.47.09-.47.1-.48.11-.49.13-.49.14-.49.18-.51.2-.49.23-.5.26-.49.3-.48.34-.48.38-.47.42-.45.47-.44.52c-.15.18-.29.37-.43.56s-.33.49-.5.74l-.82.18-.67.2-.63.23-.59.27-.55.3c-.17.1-.34.22-.52.32l-.48.35-.44.38-.41.39-.39.4-.35.42-.33.42-.3.43-.29.43-.27.44-.2.47-.24.43-.24.43c-.14.28-.29.55-.44.83l-.22.4-.21.38-.22.37-.22.35-.22.33c-.07.11-.15.21-.22.31l-.28.26-.24.26-.25.26-.25.22c-1.1.8-1 .67-.66 2 0 .12.05.24.08.36s0 .24.05.36 0 .25 0 .37V38.79l-.06.41c0 .14 0 .28-.06.42L3 40l-.06.44c0 .15 0 .31-.07.46l-.06.46c0 .16 0 .32-.05.48s0 .32 0 .48v2.05c0 .18 0 .36.07.54s.07.36.11.55.06.39.06.54l.18.56c.07.19.15.38.22.56l.27.57c.1.19.2.38.31.57s.24.38.35.57.28.38.41.58.38.46.56.7c0 .27 0 .55-.07.83s0 .45 0 .68v.66c0 .21 0 .42.08.63s.08.41.11.62.11.38.16.58.12.37.19.56.15.35.22.53.17.34.25.51l.27.48.29.46.31.44.33.42.33.4.33.39.35.37.34.36.34.35.33.34c.12.11.22.22.33.33l.32.33.3.32.29.32.27.31c.08.11.17.21.25.31l.23.31.2.3.18.3c0 .11.11.21.16.31s.08.2.13.3c.42 1.29.32 1.18 1.69 1.23h.37l.37.07.37.08.37.1.37.12.36.14.38.15.38.17.38.18.39.18.4.2.41.2.42.2.43.2.44.19.46.19.47.18.48.17.51.14.52.13.54.1.56.07H24.97l.63-.07.65-.12.66-.16.68-.2.85-.31.78.33.65.22.64.18.64.12.62.08h1.81l.56-.08.55-.1.53-.14.52-.15.51-.17.49-.19.48-.2.46-.2.46-.21.44-.21.43-.21.42-.2.42-.2.4-.19.4-.17.38-.16.38-.13.37-.12.35-.1.35-.08h.67c1.37 0 1.24.06 1.71-1.21l.15-.34c.06-.11.12-.22.17-.33s.13-.21.2-.32l.21-.31.23-.31.24-.3.27-.31.27-.3.3-.31.3-.3.63-.64.32-.33.33-.34c.1-.12.21-.24.32-.35l.32-.37.32-.39c.1-.13.2-.27.31-.4l.3-.43c.09-.15.18-.3.28-.45l.27-.48.24-.5c.07-.17.15-.35.22-.53s.12-.37.19-.55.1-.39.16-.58l.12-.61.09-.65c0-.22 0-.45.05-.67s0-.46 0-.7v-.89l.55-.63.42-.54c.13-.18.25-.37.37-.55l.32-.56.27-.56c.07-.19.15-.38.22-.56l.18-.56c0-.19.09-.38.14-.56s.07-.38.1-.56.05-.37.07-.55 0-.36 0-.54v-1.56c0-.17 0-.34-.05-.51s0-.33 0-.49l-.06-.5c0-.16 0-.32-.07-.48 0-.31-.08-.61-.13-.92l-.06-.45-.06-.44v-.83-.78-.36-.35-.33c0-.11.06-.22.08-.32.42-1.29.44-1.15-.64-2l-.32-.23-.26-.27-.25-.28-.24-.29c-.07-.11-.15-.21-.22-.31l-.19-.34-.21-.34c-.07-.12-.14-.23-.2-.35l-.21-.31-.22-.43c-.13-.26-.28-.52-.41-.79s-.15-.26-.22-.4l-.22-.38-.24-.41-.26-.42-.27-.42-.3-.41c-.1-.14-.21-.28-.32-.41l-.34-.41c-.13-.13-.26-.26-.38-.4l-.41-.38-.44-.37-.48-.37-.51-.32-.55-.31-.6-.28-.63-.26-.67-.22-.87-.25-.43-.71-.4-.56-.42-.52-.43-.47-.46-.43-.48-.38-.48-.34-.5-.3-.51-.27-.51-.23-.5-.2-.52-.18-.51-.15-.51-.14-.5-.11-1-.2-.48-.09-.94-.16-.45-.08-.44-.08-.41-.1-.41-.1-.38-.1-.37-.12-.34-.12-.33-.15-.31-.16-.28-.17c-1.11-.74-.97-.74-2.11 0zm2.65-.8l.22.14.25.12.27.12.3.11.33.1.35.1.37.09.41.08.41.08.45.08.94.16.5.09 1 .2.53.13.54.14.55.16.55.19.55.22.56.26.55.29.55.33.55.38.52.43.51.47c.16.17.32.35.49.52l.46.57.43.61.25.42.52.14.73.25.69.28.64.3.61.34.56.36.53.39.49.4c.14.15.29.28.44.42s.28.29.41.44l.39.44.34.45c.11.15.22.29.32.44l.3.46.26.43c.09.14.17.29.25.43l.24.42c.08.14.15.28.22.42l.42.78c.06.12.13.24.2.36l.19.36.2.33c.07.11.13.22.2.32l.19.3.2.27.21.26.21.25.23.21.23.21c1.62 1.25 1.59 1 1 3l-.06.25c0 .09 0 .19-.05.28V38.17c0 .13 0 .27.05.4s0 .28 0 .42l.06.44c0 .31.09.62.13.93s.05.33.07.49.05.34.07.51 0 .34.05.52V44.68c0 .19 0 .4-.07.6s-.07.41-.11.61-.1.42-.16.62-.13.42-.19.63-.17.41-.25.62l-.3.62-.35.62-.41.61-.41.59-.32.37v1.29l-.06.72-.09.7c0 .23-.1.45-.14.68l-.18.64c-.07.2-.13.41-.2.61s-.17.39-.24.58l-.27.55-.3.53-.3.49-.33.46-.33.44-.35.42-.33.38c-.11.12-.23.24-.34.37l-.33.35-.33.33-.63.64-.29.3-.28.29c-.09.1-.18.19-.26.29s-.17.19-.25.28l-.23.28-.2.28-.18.27-.17.27c0 .09-.1.18-.14.27l-.13.28c-.7 1.92-.52 1.81-2.57 1.82h-.54l-.3.07-.3.08-.33.11-.34.12-.35.15-.38.16-.39.18-.41.2-.41.19-.44.22-.45.21-.47.22-.49.21-.51.21-.52.2-.52.18-.57.16-.57.15-.6.11-.63.09h-1.98l-.7-.09-.7-.14-.71-.2-.71-.17-.45-.18L28 68l-.74.23-.72.17-.71.12-.69.08h-1.96l-.62-.08-.59-.11-.57-.13-.55-.16-.53-.19-.5-.19-.48-.19-.45-.21-.45-.2-.44-.23-.41-.2-.4-.19-.38-.18-.37-.17a3.92 3.92 0 00-.36-.16l-.34-.14-.34-.13-.33-.1-.32-.1-.32-.07h-.61c-2.07-.07-1.91.08-2.55-1.85a2.44 2.44 0 01-.1-.24 2 2 0 01-.13-.25l-.15-.25c-.06-.09-.12-.17-.17-.26l-.21-.27c-.07-.1-.15-.19-.22-.28L10 61.7l-.28-.3-.29-.31-.31-.32-.33-.34-.34-.34-.34-.36c-.12-.12-.24-.24-.35-.37L7.42 59l-.36-.4-.34-.43-.35-.45-.37-.5-.32-.5-.3-.53-.27-.56c-.08-.19-.17-.39-.25-.59l-.21-.61c-.06-.22-.12-.44-.17-.65s-.09-.45-.13-.68-.06-.47-.08-.7 0-.49 0-.73v-.75-.48L4 50c-.15-.2-.29-.41-.44-.62l-.39-.62-.34-.62-.29-.62c-.08-.21-.16-.42-.25-.62s-.12-.42-.19-.62l-.1-.59c0-.2-.08-.4-.11-.6s-.05-.39-.08-.59 0-.39 0-.58v-.56-1.09-.5l.06-.49.06-.48c0-.16.05-.31.07-.47s0-.33 0-.44v-.43c0-.14 0-.28.07-.41s0-.27 0-.4v-.76-.7-.64-.31c0-.1 0-.2-.07-.3-.57-1.95-.66-1.76 1-3l.2-.17.2-.19.2-.22.19-.24.2-.28.21-.3c.06-.11.13-.21.2-.32s.13-.24.2-.35l.4-.33c.07-.13.15-.26.21-.39l.45-.83.24-.44.25-.45.21-.43.29-.46c.1-.15.2-.3.29-.45l.33-.47.36-.45.37-.48.42-.44.45-.43.5-.41.54-.41.57-.36.61-.34.66-.29.68-.25.74-.22.47-.11.3-.44c.15-.2.31-.4.46-.61l.48-.55.5-.51.51-.47.52-.42.54-.37.54-.33.55-.29.54-.26.55-.22.53-.18.53-.16.52-.14.52-.12.48-.1.48-.09.47-.08.45-.08.43-.07.42-.07.4-.07.38-.08.38-.09.34-.1.33-.1.31-.11.3-.13.28-.14.27-.15c1.71-1.12 1.5-1.15 3.17.04z"/><path class="cls-2" d="M28.36 55.27a.15.15 0 01-.15-.15.15.15 0 01.15-.16 12.64 12.64 0 003.72-.56 12.23 12.23 0 003.39-1.64.17.17 0 01.22.05.15.15 0 010 .21 13.18 13.18 0 01-3.48 1.68 13 13 0 01-3.81.57M34.51 32.19h.08l.12-.1.21-.17-.22-.3q-.16-.18-.36-.36a.08.08 0 010-.07.13.13 0 01.1-.15A2.72 2.72 0 0135 31a2.51 2.51 0 01-.12-.49v-.21a.77.77 0 00-.4 0 .45.45 0 00-.27.22.12.12 0 01-.11.07h-.16c-.23 0-.42 0-.5.4-.06.28.15.46.32.59l.1.09a.12.12 0 01.05.09v.05a.39.39 0 00.23.27.76.76 0 00.37.11zm.16.24h-.13a1.1 1.1 0 01-.57-.11.64.64 0 01-.36-.44l-.06-.05a.84.84 0 01-.42-.85c.13-.62.42-.62.76-.61H34a.75.75 0 01.38-.28 1.26 1.26 0 01.61 0 .13.13 0 01.1.09l.06.31a2.15 2.15 0 00.18.62.12.12 0 010 .17.08.08 0 01-.07 0h-.45l.16.18a2.61 2.61 0 01.31.43.12.12 0 010 .17 2.6 2.6 0 00-.28.23l-.16.12z"/><path class="cls-2" d="M37 32.57s.07.1.1.16a.14.14 0 01-.06.21.15.15 0 01-.16 0 1.32 1.32 0 00-.2-.12c-.07-.14-.15-.28-.23-.42a2.42 2.42 0 01.55.16m-1.81-.07a5.22 5.22 0 01-.66.06.16.16 0 01-.16-.15.17.17 0 01.07-.14l.28-.22.18-.15c-.07-.09-.13-.18-.21-.27a2.89 2.89 0 00-.35-.35.16.16 0 010-.23.13.13 0 01.06-.04 2.52 2.52 0 01.6 0 3.1 3.1 0 01-.11-.46 3.21 3.21 0 00-.08-.36.16.16 0 01.11-.2.17.17 0 01.08.02 3.53 3.53 0 01.91 1.31l.06.11c-.27-.09-.52-.1-.79.38a.69.69 0 00.03.7z"/><path class="cls-2" d="M36.190000000000005 33.71h.09l.19-.08.31-.12a2.32 2.32 0 00-.16-.44 3.4 3.4 0 00-.27-.54.19.19 0 010-.08.13.13 0 01.15-.11 3 3 0 01.63.19 3.39 3.39 0 010-.63v-.27a1.05 1.05 0 00-.49-.13.57.57 0 00-.4.15.13.13 0 01-.12 0l-.19-.06c-.26-.09-.49-.17-.74.29s0 .59.16.81l.09.14a.11.11 0 010 .1.13.13 0 010 .06.52.52 0 00.17.4 1 1 0 00.59.24zm.09.28h-.15a1.29 1.29 0 01-.59-.31.8.8 0 01-.24-.62l-.06-.09a1 1 0 01-.17-1.08c.36-.64.68-.53 1.05-.41h.11a.8.8 0 01.52-.18 1.36 1.36 0 01.69.21.13.13 0 01.06.12V32a2.24 2.24 0 000 .77.13.13 0 01-.1.15h-.08l-.25-.1-.3-.11c.05.1.1.21.14.31a3.16 3.16 0 01.2.59.13.13 0 01-.09.15l-.4.16-.22.09z"/><path class="cls-2" d="M37.28 34.25l-.45-.09a5.51 5.51 0 01-.75-.16.16.16 0 01-.11-.2.22.22 0 01.1-.11 2.88 2.88 0 00.4-.15l.28-.11c0-.14-.09-.27-.14-.41a3.84 3.84 0 00-.28-.53.17.17 0 01.05-.22.17.17 0 01.12 0 3.3 3.3 0 01.64.19 4 4 0 010-.6 3.77 3.77 0 000-.44.16.16 0 01.16-.16.16.16 0 01.13.08 4 4 0 01.64 1.66c-.25-.11-.47-.15-.81.27a.86.86 0 000 1"/><path class="cls-2" d="M38 35.53l.31-.05-.24.05H38m0-.29h.09l.21-.05.31-.07a3.55 3.55 0 00-.26-1 .28.28 0 010-.09.14.14 0 01.17-.08 3 3 0 01.6.29 5 5 0 01.14-.62c0-.09 0-.18.07-.26a1 1 0 00-.45-.22.62.62 0 00-.43.09.12.12 0 01-.13 0l-.16-.08c-.24-.14-.45-.25-.78.16-.22.27-.08.58 0 .83l.06.15a.09.09 0 010 .1v.05a.52.52 0 00.1.43 1 1 0 00.42.32zm.76.16l-.72.13-.13-.05a1.22 1.22 0 01-.54-.41.76.76 0 01-.13-.64v-.1a.94.94 0 010-1.09c.46-.58.76-.42 1.1-.23l.09.05a.83.83 0 01.55-.09 1.39 1.39 0 01.64.32.12.12 0 01.05.12c0 .12-.06.24-.1.36a2.44 2.44 0 00-.15.76.12.12 0 01-.12.13.09.09 0 01-.07 0l-.23-.14-.29-.16a3.56 3.56 0 01.19.95.13.13 0 01-.19.09z"/><path class="cls-2" d="M38.61 35.91h-.12c-.25-.09-.5-.18-.72-.28a.16.16 0 01-.07-.22.13.13 0 01.12-.08l.42-.09.29-.06a4 4 0 00-.26-1 .17.17 0 01.09-.21h.12a3 3 0 01.59.3c0-.19.09-.39.14-.58a2.47 2.47 0 00.11-.43.16.16 0 01.19-.12.13.13 0 01.11.09 4.09 4.09 0 01.27 1.77v.2c-.32-.24-.54-.54-1.07-.06a.69.69 0 00-.21.73"/><path class="cls-2" d="M39.16 37.23l.08.05h.53a3.69 3.69 0 000-.47 4.51 4.51 0 00-.08-.6.25.25 0 010-.08.14.14 0 01.18-.06 3.28 3.28 0 01.53.39 4.35 4.35 0 01.25-.59l.12-.25a1.1 1.1 0 00-.42-.29.54.54 0 00-.43 0 .15.15 0 01-.13 0l-.16-.12c-.21-.18-.4-.32-.79 0s-.19.55-.12.82a.94.94 0 010 .16.1.1 0 010 .09v.06a.5.5 0 000 .43.85.85 0 00.36.39m0 .3l-.08-.01a1.24 1.24 0 01-.45-.49.73.73 0 010-.66v-.1a1 1 0 01.2-1.08c.55-.49.81-.28 1.13 0l.08.07a.83.83 0 01.56 0 1.36 1.36 0 01.58.42.14.14 0 010 .14c-.05.1-.1.22-.16.33a2.68 2.68 0 00-.27.72.13.13 0 01-.15.11h-.06l-.21-.18-.24-.2v.34a2.44 2.44 0 010 .27c0 .11-.14 0-.15.14a.12.12 0 01-.13.12v.2h-.59z"/><path class="cls-2" d="M39.71 38h-.13c-.23-.13-.46-.27-.66-.41a.16.16 0 010-.22.17.17 0 01.14-.07 3 3 0 00.42 0h.3a3.09 3.09 0 000-.43 4.11 4.11 0 00-.08-.6.16.16 0 01.13-.19.12.12 0 01.1 0 3.44 3.44 0 01.55.39 3.59 3.59 0 01.23-.55c.07-.14.14-.27.19-.4a.15.15 0 01.2-.09.16.16 0 01.1.11 4.08 4.08 0 010 1.74c-.29-.3-.44-.66-1.08-.28-.43.27-.32.74-.31 1.05"/><path class="cls-2" d="M40 39.06l.07.06h.53a3.4 3.4 0 00.09-.46 4 4 0 000-.6.11.11 0 010-.08.13.13 0 01.18 0 2.87 2.87 0 01.45.47 3.46 3.46 0 01.35-.53l.15-.22a1 1 0 00-.36-.36.54.54 0 00-.42-.06.13.13 0 01-.13 0l-.13-.14c-.19-.2-.34-.38-.79-.11a.77.77 0 00-.26.79 1 1 0 010 .17.16.16 0 010 .09.46.46 0 00-.05.43.93.93 0 00.27.44zm0 .28l-.12-.09a1.27 1.27 0 01-.35-.56.75.75 0 01.09-.65v-.11a1 1 0 01.38-1c.63-.38.86-.13 1.12.17l.06.08a.79.79 0 01.55.1 1.36 1.36 0 01.5.51.17.17 0 010 .14 2.73 2.73 0 01-.21.3 2.33 2.33 0 00-.39.67.13.13 0 01-.16.08h-.07l-.17-.2-.23-.37v.35a3.14 3.14 0 01-.12.61.13.13 0 01-.15.09l-.43-.06h-.24z"/><path class="cls-2" d="M41.71 41.38a2.05 2.05 0 01-.07.34.16.16 0 01-.2.11.17.17 0 01-.11-.12c0-.17-.08-.33-.13-.49a3.13 3.13 0 00.16-.52 3.63 3.63 0 01.35.68m-1.32-1.46l-.1-.09c-.2-.17-.4-.33-.58-.51a.16.16 0 01.15-.27l.42.06h.3c0-.14.06-.28.08-.42s0-.4 0-.6a.17.17 0 01.15-.17.21.21 0 01.11 0 3 3 0 01.46.48 3.92 3.92 0 01.33-.5l.25-.36a.16.16 0 01.22-.06.17.17 0 01.07.13 3.94 3.94 0 01-.39 1.83l-.1.28c-.16-.32-.26-.62-.9-.44a.73.73 0 00-.47.64z"/><path class="cls-2" d="M40.349999999999994 41.34a.42.42 0 00.06.08l.19.08.3.13a2.71 2.71 0 00.2-.42 3.47 3.47 0 00.19-.57.12.12 0 010-.07.14.14 0 01.18 0 3 3 0 01.31.59v.06a3.8 3.8 0 01.48-.42l.22-.18a1.07 1.07 0 00-.25-.44.59.59 0 00-.4-.17.15.15 0 01-.11-.07 1.3 1.3 0 01-.08-.17c-.13-.25-.23-.46-.73-.32s-.41.42-.47.68v.16a.16.16 0 01-.06.08.52.52 0 00-.17.41 1 1 0 00.09.59zm-.13.26a.83.83 0 01-.08-.12 1.15 1.15 0 01-.2-.64.76.76 0 01.27-.61v-.11c.07-.33.15-.74.65-.88.71-.2.85.1 1 .46a.47.47 0 010 .1.79.79 0 01.5.24 1.33 1.33 0 01.34.64.11.11 0 010 .12l-.29.24a2.6 2.6 0 00-.56.53.13.13 0 01-.18 0l-.12-.25a2.71 2.71 0 00-.13-.3l-.12.32a3.66 3.66 0 01-.28.56.13.13 0 01-.17 0l-.39-.17-.23-.1z"/><path class="cls-2" d="M41.56 43.32c0 .11-.05.22-.08.32a3.52 3.52 0 01-.32.74.15.15 0 01-.22 0 .14.14 0 01-.08-.14 1.55 1.55 0 000-.22 3.92 3.92 0 00.63-.9l.06.15m-1-.82a2.73 2.73 0 00-.21-.3 6.91 6.91 0 01-.41-.65.15.15 0 01.06-.22.14.14 0 01.15 0l.39.17.28.12a2.32 2.32 0 00.18-.39 3.47 3.47 0 00.19-.57.16.16 0 01.19-.11.19.19 0 01.09.05 3.13 3.13 0 01.32.6c.14-.14.3-.26.45-.39a3.57 3.57 0 00.35-.28.15.15 0 01.22 0 .14.14 0 010 .14 4 4 0 01-.78 1.53c-.07-.27-.19-.47-.73-.45s-.57.53-.71.8z"/><path class="cls-2" d="M40.31 43.57a.36.36 0 000 .09l.15.12.27.2a3.51 3.51 0 00.29-.36 3.68 3.68 0 00.32-.51.09.09 0 01.06-.06.12.12 0 01.17.07 2.7 2.7 0 01.17.65 3.71 3.71 0 01.56-.29l.25-.12a1.07 1.07 0 00-.14-.49.54.54 0 00-.34-.26.11.11 0 01-.09-.09 1.8 1.8 0 010-.19c-.06-.27-.11-.5-.63-.48-.35 0-.5.31-.61.55s0 .1-.07.14a.11.11 0 01-.07.06h-.06a.51.51 0 00-.25.35 1 1 0 000 .53m-.18.23l-.06-.15A1.17 1.17 0 0140 43a.74.74 0 01.39-.52l.05-.09c.14-.31.32-.68.83-.7.74 0 .81.3.89.68v.11a.88.88 0 01.42.36 1.3 1.3 0 01.18.69.13.13 0 01-.07.12l-.33.16a2.41 2.41 0 00-.67.39.14.14 0 01-.18 0v-.06-.27l-.06-.32-.19.29a4.51 4.51 0 01-.4.47.13.13 0 01-.18 0l-.32-.31-.18-.13v-.05z"/><path class="cls-2" d="M40.38 44.93c-.05-.18-.12-.36-.19-.54a7 7 0 01-.25-.73.14.14 0 01.11-.19.14.14 0 01.14 0l.35.26.23.18c.1-.11.19-.22.28-.34a3.52 3.52 0 00.31-.5.16.16 0 01.22-.07.18.18 0 01.08.09 3.33 3.33 0 01.16.64 4.39 4.39 0 01.53-.27l.4-.2a.15.15 0 01.21.06.15.15 0 010 .16 4.26 4.26 0 01-1.24 1.39l-.08.08a.88.88 0 00-.44-.3.78.78 0 00-.83.24"/><path class="cls-2" d="M39.52 46v.09l.11.18.17.28.41-.22a3.91 3.91 0 00.48-.35.11.11 0 01.08 0 .12.12 0 01.14.12 3 3 0 01-.1.66v.06a4.34 4.34 0 01.64-.06h.27a1.08 1.08 0 00.06-.5.56.56 0 00-.22-.37.18.18 0 010-.12v-.2c0-.27.09-.5-.39-.68-.33-.12-.58.11-.78.29a1.31 1.31 0 00-.12.11h-.15a.5.5 0 00-.38.23 1 1 0 00-.18.49zm-.25.13a.43.43 0 010-.16 1.22 1.22 0 01.22-.62.75.75 0 01.57-.34l.08-.07a1 1 0 011-.34c.68.26.62.59.56 1v.11a.78.78 0 01.25.49 1.33 1.33 0 01-.1.71.16.16 0 01-.1.08h-.37a2.54 2.54 0 00-.76.1.14.14 0 01-.17-.07v-.07a1.86 1.86 0 01.05-.27c0-.11 0-.22.07-.32l-.29.19a3.17 3.17 0 01-.55.28.13.13 0 01-.17-.06 3.71 3.71 0 00-.21-.37l-.12-.21a.07.07 0 01.07-.09z"/><path class="cls-2" d="M38.77 48.75a1.59 1.59 0 01-.29.15.16.16 0 01-.21-.09.18.18 0 010-.16l.28-.36c.06.15.14.32.2.46m.32-1.36v-.71a6.57 6.57 0 010-.78.16.16 0 01.18-.14.14.14 0 01.12.09l.22.37.15.26.38-.2a4.1 4.1 0 00.49-.36.16.16 0 01.22 0 .13.13 0 010 .1 3.73 3.73 0 01-.09.67 5.82 5.82 0 01.6 0h.44a.16.16 0 01.18.13.24.24 0 01-.05.14 3.38 3.38 0 01-1.1.63c0-.16-.15-.31-.45-.47-.46-.23-.81.13-1.07.3a.59.59 0 00-.35 0z"/><path class="cls-2" d="M38.7 48.16v.09l.08.18.13.3a2.26 2.26 0 00.43-.17 4.63 4.63 0 00.53-.29.08.08 0 01.08 0 .12.12 0 01.12.14 3 3 0 01-.17.64v.06a4.56 4.56 0 01.64 0h.27a1 1 0 00.12-.49.6.6 0 00-.17-.39.11.11 0 010-.13 1.33 1.33 0 010-.19c.08-.27.15-.49-.32-.73a.74.74 0 00-.8.2l-.14.09a.12.12 0 01-.1 0h-.06a.51.51 0 00-.4.19 1.09 1.09 0 00-.23.47m-.27.11v-.15a1.25 1.25 0 01.3-.61.72.72 0 01.6-.26l.08-.06a1 1 0 011.13-.16c.65.34.56.66.45 1v.11a.84.84 0 01.21.52 1.37 1.37 0 01-.18.69.14.14 0 01-.12.07h-.37a2.81 2.81 0 00-.77 0 .13.13 0 01-.16-.09.16.16 0 010-.07l.09-.26.1-.31-.31.16a4.07 4.07 0 01-.58.22.15.15 0 01-.16-.08 2.5 2.5 0 00-.17-.4l-.1-.21s-.05-.06-.05-.08z"/><path class="cls-2" d="M38 50.63a2.79 2.79 0 01-.73.33.17.17 0 01-.14 0 4.32 4.32 0 00.88-.34zm.1-1.34c0-.15 0-.31.07-.47s.07-.53.13-.76a.16.16 0 01.2-.12.15.15 0 01.11.11 3 3 0 00.17.38l.12.28.4-.16a3.88 3.88 0 00.52-.3.15.15 0 01.22 0 .14.14 0 010 .11 2.88 2.88 0 01-.17.64h.59a2.26 2.26 0 00.44 0 .17.17 0 01.17.16.17.17 0 01-.07.13 4.24 4.24 0 01-1.7.71h-.21c.07-.22 0-.44-.37-.7a.64.64 0 00-.59-.01z"/><path class="cls-2" d="M36.84 50.24v.09l.07.19c0 .1.07.21.1.31a2.54 2.54 0 00.45-.13 3.76 3.76 0 00.55-.23.1.1 0 01.09 0 .13.13 0 01.1.15 3.17 3.17 0 01-.24.62 4.78 4.78 0 01.63.09h.27A1.11 1.11 0 0039 51a.58.58 0 00-.13-.41.16.16 0 010-.13 1.34 1.34 0 00.07-.18c.1-.26.19-.48-.24-.76s-.59 0-.82.1l-.15.08a.11.11 0 01-.1 0h-.06a.53.53 0 00-.41.14 1 1 0 00-.28.45m-.28.08a.37.37 0 010-.15 1.14 1.14 0 01.4-.62.72.72 0 01.62-.2h.1a1 1 0 011.09-.1c.62.4.49.71.33 1.08v.1a.81.81 0 01.15.53 1.49 1.49 0 01-.26.68.12.12 0 01-.12 0l-.36-.06a2.7 2.7 0 00-.78-.07.12.12 0 01-.14-.11.17.17 0 010-.07 1.33 1.33 0 01.11-.24c0-.11.09-.21.13-.31l-.32.13a4.44 4.44 0 01-.6.16.13.13 0 01-.15-.11c0-.11-.08-.25-.13-.4 0-.08-.05-.16-.07-.22a.06.06 0 01-.04-.07z"/><path class="cls-2" d="M35.76 52.69a3.38 3.38 0 01-.62.18.16.16 0 01-.12-.29l.3-.25v.38h.39m.37-1.34c0-.16.09-.34.13-.51s.13-.51.22-.75a.16.16 0 01.2-.09.16.16 0 01.1.11c0 .12.08.26.13.41l.09.28.42-.11a4.37 4.37 0 00.55-.24.15.15 0 01.21.07.13.13 0 010 .12 3.51 3.51 0 01-.24.61 4.22 4.22 0 01.59.09l.43.07a.15.15 0 01.15.17.16.16 0 01-.09.12 3.25 3.25 0 01-1.31.39c.07-.19 0-.39-.27-.68s-.82-.1-1.11 0a.46.46 0 00-.15-.08z"/><path class="cls-2" d="M35.47 52v.56a3.28 3.28 0 00.43 0 4.07 4.07 0 00.58-.14h.11a.17.17 0 01.09.21 2.84 2.84 0 01-.34.58 4.23 4.23 0 01.57.19l.24.08a1 1 0 00.25-.48.6.6 0 000-.41.15.15 0 010-.16l.1-.17c.14-.21.26-.41-.1-.74s-.54-.12-.78 0l-.15.05a.16.16 0 01-.12 0h-.06a.47.47 0 00-.41.06 1 1 0 00-.34.38zm-.35 0a1 1 0 01.07-.15 1.26 1.26 0 01.46-.51.77.77 0 01.68-.09h.09a1 1 0 011.11.1c.56.52.37.82.15 1.16v.08a.81.81 0 010 .55 1.52 1.52 0 01-.37.64.16.16 0 01-.16 0 3 3 0 01-.35-.13 2.94 2.94 0 00-.74-.2.14.14 0 01-.15-.16.19.19 0 010-.08l.16-.23.14-.21-.27.06a4.4 4.4 0 01-.62 0 .15.15 0 01-.16-.14c0-.12 0-.27-.06-.43v-.23z"/><path class="cls-2" d="M34.46 53.1a5.61 5.61 0 00.32-.65 7.56 7.56 0 01.34-.7.16.16 0 01.22 0 .15.15 0 01.07.12c0 .12 0 .28.06.43s0 .2 0 .29a3.28 3.28 0 00.43 0 3.06 3.06 0 00.58-.14.16.16 0 01.2.11.17.17 0 010 .1 2.84 2.84 0 01-.34.58c.19.05.38.12.57.19a4.13 4.13 0 00.42.14.16.16 0 01.11.19.17.17 0 01-.11.12 4.35 4.35 0 01-1.86.11h-.62a6.42 6.42 0 01-.76.28 3.15 3.15 0 01-.8.11.16.16 0 01-.15-.17.16.16 0 01.08-.13 6 6 0 00.65-.41 5 5 0 00.56-.45M32.11 30.74h.06l.09-.1.15-.16-.22-.22a2.33 2.33 0 00-.35-.27.21.21 0 010-.06.12.12 0 01.07-.14 2 2 0 01.49-.07 2.86 2.86 0 01-.15-.41l-.06-.18a.76.76 0 00-.34.06.4.4 0 00-.2.22.13.13 0 01-.09.07h-.14c-.19 0-.36 0-.39.39a.54.54 0 00.35.47l.11.07v.07c0 .07 0 0 0 0a.33.33 0 00.23.2.76.76 0 00.37 0zm.15.18h-.11a.82.82 0 01-.49 0 .58.58 0 01-.36-.34h-.05a.69.69 0 01-.44-.67c0-.55.29-.57.58-.6h.07a.6.6 0 01.29-.28.91.91 0 01.51-.07.11.11 0 01.1.07c0 .07.06.16.09.25a1.71 1.71 0 00.22.51.11.11 0 010 .15h-.44l.15.13a2.5 2.5 0 01.32.33.12.12 0 010 .15l-.21.22-.12.12h-.05z"/><path class="cls-2" d="M33.22 30.81l-.52.12a4.22 4.22 0 01-.55.12.14.14 0 01-.16-.11.15.15 0 01.05-.13l.21-.22.13-.14-.2-.21c-.11-.09-.22-.18-.34-.26a.14.14 0 010-.19.16.16 0 01.08-.06 3.4 3.4 0 01.46-.07c-.05-.12-.1-.25-.14-.37a2.09 2.09 0 00-.11-.3.14.14 0 01.07-.18.12.12 0 01.13 0 3 3 0 01.92 1l.26.38a.56.56 0 01.2.28.42.42 0 00-.35.27.11.11 0 01-.07 0z"/><path class="cls-3" d="M28.84 55.13c1.52-.25 2.85.5 4.21 1.19l-.87.09a6.76 6.76 0 00-3.34-1.28m-1 0c-1.53-.25-2.86.5-4.22 1.19l.87.09a6.76 6.76 0 013.31-1.28z"/><path class="cls-2" d="M28.46 55a.17.17 0 01.17.16.18.18 0 01-.17.17 13 13 0 01-5.64-24.79l.34-.16.35-.15a.17.17 0 01.21.09.17.17 0 01-.09.21l-.34.15-.29.12a12.8 12.8 0 00-5.26 4.71A12.71 12.71 0 0028.46 55"/><path class="cls-2" d="M25.94 29.55a2.15 2.15 0 00-.8 0 3.09 3.09 0 00-1.21.69l-.14.11a2.52 2.52 0 00.77.11 1.89 1.89 0 001.13-.42l.15-.12a3.4 3.4 0 01.41-.31 1.65 1.65 0 00-.32-.07m-.87-.3a2.84 2.84 0 01.92 0 2.16 2.16 0 01.81.28.17.17 0 01.05.23.16.16 0 01-.14.07 1.32 1.32 0 00-.65.38l-.16.13a2.17 2.17 0 01-1.32.49 3.86 3.86 0 01-1.19-.21.16.16 0 01-.11-.21.16.16 0 01.06-.08l.4-.31a3.14 3.14 0 011.34-.76zM23.56 31.26a1.81 1.81 0 00-.6-.08 2.35 2.35 0 00-1 .39h-.05a1.78 1.78 0 00.5.14 1.38 1.38 0 00.89-.18l.14-.09.28-.16h-.16m-.62-.41a2.23 2.23 0 01.72.09 1.79 1.79 0 01.6.31.18.18 0 010 .24.17.17 0 01-.15.05 1 1 0 00-.51.21l-.15.09a1.66 1.66 0 01-1.09.22 3 3 0 01-.9-.29.17.17 0 01-.08-.22.16.16 0 01.08-.08l.33-.18a2.71 2.71 0 011.15-.46z"/><path class="cls-2" d="M22.47 29.43a2.2 2.2 0 00-.52.49 2.8 2.8 0 00-.4 1.18v.13a2.94 2.94 0 00.55-.37 1.7 1.7 0 00.5-.94v-.19a3.94 3.94 0 01.08-.42l-.22.12m-.78.3a2.33 2.33 0 01.6-.57 2.09 2.09 0 01.72-.3.18.18 0 01.19.14.16.16 0 01-.06.15 1.17 1.17 0 00-.2.63 1.06 1.06 0 000 .19 1.93 1.93 0 01-.6 1.13 3.44 3.44 0 01-.93.56.16.16 0 01-.22-.08.17.17 0 010-.1c0-.15.06-.3.09-.44a2.86 2.86 0 01.42-1.31zM20.19 30.84a2.27 2.27 0 00-.43.55 2.71 2.71 0 00-.19 1.19v.12a2.4 2.4 0 00.46-.44 1.62 1.62 0 00.33-1v-.19-.4l-.18.15m-.72.4a2.37 2.37 0 01.54-.62 1.88 1.88 0 01.64-.4.17.17 0 01.21.1.15.15 0 010 .16 1 1 0 00-.09.63v.2a1.93 1.93 0 01-.4 1.17 3.5 3.5 0 01-.8.7.16.16 0 01-.23 0 .19.19 0 010-.1v-.44a2.85 2.85 0 01.14-1.38z"/><path class="cls-2" d="M21.34 32.36a1.8 1.8 0 00-.61.08 2.27 2.27 0 00-.86.61l-.05.05a2.26 2.26 0 00.52 0 1.36 1.36 0 00.81-.39l.12-.12.24-.22h-.17m-.7-.24a2.1 2.1 0 01.71-.08 1.49 1.49 0 01.66.16.15.15 0 01.07.22.14.14 0 01-.13.08c-.13 0-.28.16-.45.33l-.12.12a1.74 1.74 0 01-1 .49 3 3 0 01-.95-.08.17.17 0 01-.13-.19.15.15 0 01.06-.09c.11-.09.19-.18.28-.26a2.59 2.59 0 011-.71zM18.23 32.57a2.51 2.51 0 00-.42.72 3.26 3.26 0 000 1.43v.2a2.61 2.61 0 00.51-.63 1.85 1.85 0 00.25-1.21v-.22a3.5 3.5 0 01-.05-.54 1.42 1.42 0 00-.24.25m-.73.61a2.69 2.69 0 01.47-.82 2.47 2.47 0 01.68-.56.18.18 0 01.22.08.15.15 0 010 .16 1.37 1.37 0 000 .77v.23a2.21 2.21 0 01-.28 1.42 4.12 4.12 0 01-.83.93.16.16 0 01-.23 0 .15.15 0 010-.09v-.52a3.5 3.5 0 01-.08-1.6z"/><path class="cls-2" d="M19.61 34a2.05 2.05 0 00-.64.19 2.67 2.67 0 00-.82.82l-.06.08a2 2 0 00.59-.08 1.49 1.49 0 00.81-.57l.11-.15c.08-.11.15-.21.23-.3h-.22zm-.78-.1a2.11 2.11 0 01.74-.22 1.7 1.7 0 01.72 0 .16.16 0 01.11.2.15.15 0 01-.12.11c-.14 0-.28.23-.42.44l-.12.15a1.74 1.74 0 01-1 .69 3 3 0 01-1 .09.16.16 0 01-.16-.16.21.21 0 010-.11 3.17 3.17 0 00.26-.33 2.73 2.73 0 01.99-.87zM18.51 36a2.16 2.16 0 00-.74.29 3 3 0 00-.88 1.05l-.08.13a2.65 2.65 0 00.73-.16 1.81 1.81 0 00.89-.76 1.62 1.62 0 00.1-.18c.09-.14.17-.28.26-.4h-.29m-.92 0a2.51 2.51 0 01.85-.33 2.23 2.23 0 01.85 0 .18.18 0 01.13.21.18.18 0 01-.12.13c-.16 0-.3.3-.46.56a1.74 1.74 0 00-.11.18 2.18 2.18 0 01-1.07.91 3.76 3.76 0 01-1.18.21.17.17 0 01-.18-.17.2.2 0 010-.11l.27-.41A3.21 3.21 0 0117.59 36z"/><path class="cls-2" d="M16.34 34.85a2.53 2.53 0 00-.26.82 3.46 3.46 0 00.29 1.46l.08.21a3.45 3.45 0 00.38-.77 2 2 0 000-1.28l-.08-.22a4.88 4.88 0 01-.18-.54 2.07 2.07 0 00-.19.32m-.58.78a2.85 2.85 0 01.2-.93 2 2 0 01.6-.7.15.15 0 01.22 0 .16.16 0 010 .16A1.55 1.55 0 0017 35c0 .08.06.16.09.22a2.25 2.25 0 010 1.49 4.1 4.1 0 01-.61 1.13.16.16 0 01-.23 0 .27.27 0 01-.07-.08 4.35 4.35 0 00-.17-.51 3.47 3.47 0 01-.25-1.62zM17.27 38.59a2.72 2.72 0 00-.67.5 3.11 3.11 0 00-.6 1.31l-.06.2a3.38 3.38 0 00.73-.38 1.86 1.86 0 00.71-1 1.15 1.15 0 00.06-.21 4.54 4.54 0 01.17-.52 2.81 2.81 0 00-.33.13m-.9.27a2.68 2.68 0 01.76-.56 2.14 2.14 0 01.85-.24.16.16 0 01.17.15.18.18 0 01-.08.15 1.43 1.43 0 00-.32.7c0 .09 0 .17-.06.23a2.3 2.3 0 01-.83 1.19 3.69 3.69 0 01-1.14.53.15.15 0 01-.2-.1.11.11 0 010-.11l.15-.49a3.5 3.5 0 01.69-1.48z"/><path class="cls-2" d="M14.91 38.11a2.44 2.44 0 00-.08.85 3.21 3.21 0 00.57 1.37l.12.19a3.28 3.28 0 00.22-.83 2 2 0 00-.29-1.25l-.13-.19a3.65 3.65 0 01-.28-.5 3 3 0 00-.13.36m-.41.89a2.89 2.89 0 01.1-1 2.17 2.17 0 01.4-.82.17.17 0 01.29.13 1.32 1.32 0 00.31.74l.12.2a2.29 2.29 0 01.35 1.46 4.2 4.2 0 01-.38 1.29.17.17 0 01-.22.08.2.2 0 01-.08-.08c-.08-.15-.18-.31-.26-.45A3.55 3.55 0 0114.5 39zM16.7 41.65a2.5 2.5 0 00-.52.7 3.43 3.43 0 00-.18 1.51 1.69 1.69 0 010 .23 3 3 0 00.62-.62 1.94 1.94 0 00.38-1.25V42a3.7 3.7 0 010-.58 1.73 1.73 0 00-.3.25m-.82.56a3.07 3.07 0 01.59-.8 2.4 2.4 0 01.77-.51.17.17 0 01.21.1.16.16 0 010 .16 1.33 1.33 0 00-.1.82v.24a2.34 2.34 0 01-.45 1.45 4.25 4.25 0 01-1 .88.17.17 0 01-.23 0 .2.2 0 010-.11v-.54a3.55 3.55 0 01.21-1.71z"/><path class="cls-2" d="M14 41.81a3.17 3.17 0 00.23.93A3.69 3.69 0 0015.34 44l.18.16a4 4 0 00-.1-1 2.3 2.3 0 00-.76-1.21l-.19-.15a3.05 3.05 0 01-.45-.42 2.17 2.17 0 000 .44M14 42.88a3.69 3.69 0 01-.26-1 2.63 2.63 0 01.08-1 .17.17 0 01.32 0c0 .22.3.43.58.66l.2.16a2.63 2.63 0 01.86 1.38 4.81 4.81 0 01.09 1.41.17.17 0 01-.17.16.16.16 0 01-.1 0l-.44-.38A4.12 4.12 0 0114 42.88zM17.14 45a2.88 2.88 0 00-.32.92 3.75 3.75 0 00.26 1.66l.09.28a3.52 3.52 0 00.49-.89 2.2 2.2 0 000-1.46 2.23 2.23 0 01-.08-.24 4.24 4.24 0 01-.19-.66 3.77 3.77 0 00-.25.39zm-.65.87a3.51 3.51 0 01.36-1 2.55 2.55 0 01.65-.87.17.17 0 01.25.2 1.5 1.5 0 00.14.9 2 2 0 01.09.26 2.53 2.53 0 010 1.66 4.53 4.53 0 01-.74 1.24.15.15 0 01-.22 0 .09.09 0 01-.06-.08c-.05-.19-.11-.38-.18-.58a4 4 0 01-.29-1.75z"/><path class="cls-2" d="M14.37 45.88a3.81 3.81 0 00.55.91 4.17 4.17 0 001.52 1l.27.12a4.45 4.45 0 00-.42-1 2.51 2.51 0 00-1.18-1l-.25-.11a3.82 3.82 0 01-.64-.31 3.51 3.51 0 00.15.5m.3 1.12a4 4 0 01-.6-1 2.82 2.82 0 01-.23-1.06.17.17 0 01.17-.16.17.17 0 01.14.09 1.74 1.74 0 00.83.52l.26.1a2.86 2.86 0 011.33 1.17 5.14 5.14 0 01.55 1.45.17.17 0 01-.12.2.25.25 0 01-.12 0c-.18-.1-.38-.18-.57-.27A4.34 4.34 0 0114.67 47zM18.34 47.86a3 3 0 00-.11 1 3.87 3.87 0 00.63 1.56l.15.25a3.71 3.71 0 00.28-1 2.24 2.24 0 00-.29-1.43l-.16-.24a3.57 3.57 0 01-.33-.6c-.06.14-.12.29-.17.44m-.43 1a3.07 3.07 0 01.09-1.07 2.53 2.53 0 01.45-.9.16.16 0 01.23 0 .17.17 0 01.06.16c0 .22.15.52.35.84 0 .07.09.14.13.22a2.59 2.59 0 01.37 1.62 4.42 4.42 0 01-.45 1.37.15.15 0 01-.21.08.14.14 0 01-.08-.07c-.09-.18-.2-.35-.29-.52a3.83 3.83 0 01-.65-1.72z"/><path class="cls-2" d="M15.85 49.38a3.5 3.5 0 00.75.74 4 4 0 001.71.55h.29a4.08 4.08 0 00-.66-.9 2.49 2.49 0 00-1.4-.7h-.26a4.24 4.24 0 01-.69-.13 2.61 2.61 0 00.27.44m.57 1a3.8 3.8 0 01-.83-.82 2.86 2.86 0 01-.49-1 .16.16 0 01.28-.15 1.68 1.68 0 00.94.3h.26a2.9 2.9 0 011.58.8 5.46 5.46 0 01.89 1.28.16.16 0 01-.07.22.14.14 0 01-.11 0l-.63-.01a4.26 4.26 0 01-1.83-.61zM20.55 50.45a3.11 3.11 0 00.11 1 3.67 3.67 0 001 1.38l.19.21a3.42 3.42 0 00.06-1 2.23 2.23 0 00-.62-1.31l-.19-.18a4.82 4.82 0 01-.44-.51 2.21 2.21 0 00-.07.46m-.2 1.07a3.56 3.56 0 01-.13-1.08 2.72 2.72 0 01.24-1 .18.18 0 01.22-.07.15.15 0 01.09.14c0 .23.26.48.53.75l.19.19a2.52 2.52 0 01.67 1.5 4.31 4.31 0 01-.12 1.44.15.15 0 01-.19.12.19.19 0 01-.09-.05c-.14-.16-.27-.3-.41-.44a4.1 4.1 0 01-1.04-1.55z"/><path class="cls-2" d="M18.4 52.65a3.54 3.54 0 00.92.53 4.13 4.13 0 001.79.1h.29a3.93 3.93 0 00-.86-.7 2.56 2.56 0 00-1.54-.36h-.28a3.44 3.44 0 01-.7 0 2.11 2.11 0 00.37.36m.81.84a3.43 3.43 0 01-1-.59 2.84 2.84 0 01-.72-.81.16.16 0 01.07-.22.17.17 0 01.17 0 1.69 1.69 0 001 .06H19a2.79 2.79 0 011.72.37 5 5 0 011.18 1 .16.16 0 010 .23.17.17 0 01-.11 0l-.63.05a4.33 4.33 0 01-1.95-.02z"/><path class="cls-3" d="M41.47 55.35l-1.18-.71.59 1.24zm1.75.32l-.48.43-.74-.43-.87.78.37.76-.47.42-1.53-3.4.46-.42zm-3.1 2.62L38.3 56l-.68.53-.37-.53 1.82-1.42.37.47-.68.53 1.82 2.33zm-4.1 0l.38-.2a2.61 2.61 0 00.44-.27.4.4 0 00.09-.21.46.46 0 00-.08-.28.48.48 0 00-.18-.21.32.32 0 00-.23 0 2.37 2.37 0 00-.44.2l-.41.22zm.44 2.09l-1.67-3.14 1.1-.58a1.78 1.78 0 01.64-.24.85.85 0 01.46.14 1.28 1.28 0 01.38.44 1.11 1.11 0 01.14.69 1 1 0 01-.35.55 1.3 1.3 0 01.41.11 5.45 5.45 0 01.57.36l.64.44-.62.33-.74-.48a5.8 5.8 0 00-.52-.32.53.53 0 00-.23 0 .86.86 0 00-.28.11l-.1.06.71 1.3zm-2.37-.7l-.77-1.14V60zm1.44 1l-.61.19-.48-.7-1.11.34v.84l-.6.19.05-3.74.6-.18zM29.42 62l-.37-3.54.58-.06.17 1.6 1-1.69.79-.08-.95 1.49 1.38 2-.76.08-1-1.58-.41.64L30 62zm-2-1.46l-.28-1.35-.51 1.28zm1 1.5l-.64-.04-.18-.82-1.17-.11-.3.79h-.63l1.5-3.5h.62zm-5.18-.78l.38-1.44-.49-2.27.66.18.3 1.54 1-1.19.65.18L24.19 60l-.39 1.45zM20.77 59l.26-.54 1.15.56-.63 1.27a1.43 1.43 0 01-.65.11 1.8 1.8 0 01-.71-.16 1.33 1.33 0 01-.59-.53 1.38 1.38 0 01-.19-.8 2.25 2.25 0 01.26-1 2.43 2.43 0 01.62-.82 1.53 1.53 0 01.72-.34 1.35 1.35 0 01.77.15 1.23 1.23 0 01.63.6 1.25 1.25 0 010 .88l-.58-.13a.8.8 0 000-.49.67.67 0 00-.31-.31.74.74 0 00-.68 0 1.38 1.38 0 00-.6.7 1.53 1.53 0 00-.2 1 .69.69 0 00.4.51 1 1 0 00.36.09 1.32 1.32 0 00.39-.06l.2-.41zm-3.51-2.69a1.51 1.51 0 00-.37.88.72.72 0 00.28.59.69.69 0 00.64.1 1.59 1.59 0 00.75-.61 1.56 1.56 0 00.37-.86.72.72 0 00-.93-.7 1.56 1.56 0 00-.74.57zm-.5-.34a2.75 2.75 0 01.78-.73 1.4 1.4 0 01.76-.24 1.27 1.27 0 01.71.28 1.25 1.25 0 01.53 1 2.09 2.09 0 01-.5 1.32 2.11 2.11 0 01-1.18.87 1.36 1.36 0 01-1.6-1.2 2.08 2.08 0 01.5-1.33zm-2.89-.35l1.12-1 .82-2.17.45.51-.58 1.46 1.5-.44.45.5-2.25.52-1.11 1zM44.52 45.4l3.42 1-.17.57-1.34-.39-.32 1.11 1.34.39-.16.57-3.42-1 .17-.56 1.49.43.32-1.12-1.5-.4zm1.57-1.24l1.36-.26-1.27-.53zm-1.51.93l.07-.63.83-.17.12-1.16-.78-.32.07-.63 3.41 1.5-.06.62zm.18-4.58l1.49-.08 2-1.17v.69l-1.37.76 1.44.6v.67l-2.12-1-1.49.08zm-.29-1.88L48 38l.11.58-3.49.67zm2.12-3.19l-2.23.77.15.42a1.14 1.14 0 00.18.37.44.44 0 00.22.14.85.85 0 00.37 0 3.25 3.25 0 00.6-.15 2.2 2.2 0 00.57-.26.73.73 0 00.28-.27.46.46 0 00.07-.32 1.61 1.61 0 00-.12-.46zm.38-.75l.35 1a1.62 1.62 0 01.12.61 1.13 1.13 0 01-.17.46 1.53 1.53 0 01-.44.44 3.33 3.33 0 01-.78.38 2.77 2.77 0 01-.79.16 1.53 1.53 0 01-.6-.08 1 1 0 01-.41-.27 1.29 1.29 0 01-.25-.49l-.36-1zm-2.73-.77l1-1-1.35.3zm-.71 1.63l-.31-.55.58-.62-.56-1-.83.18-.3-.54 3.66-.74.31.55zm-3.43-5l2.68-2.33.58.66-1.48 2 2.17-1.19.58.66L42 32.7l-.36-.41 2.11-1.84-2.49 1.4-.38-.43 1.74-2.27L40.46 31zm-2.61-2.13l2.14-2.84.7.53-1 2.26 1.89-1.63.7.53-2.14 2.84-.44-.32L41 27.57l-2.15 1.89-.46-.34 1.23-2.59-1.68 2.24zm-.54-2l.24-1.36-1 1zm.32 1.74l-.57-.29.14-.84-1-.52-.58.61-.56-.29 2.63-2.65.56.28zm-5.16-2.08l1-3.41.56.18-.41 1.33 1.1.34.41-1.34.57.17-1 3.41-.57-.18.46-1.48-1.11-.34-.45 1.49zm-2.69-3.87h.59l-.14 1.93a4.54 4.54 0 000 .58.66.66 0 00.16.38.57.57 0 00.38.15.55.55 0 00.34-.07.42.42 0 00.19-.24 2.78 2.78 0 00.09-.68l.14-2h.59l-.13 1.87a5 5 0 01-.15 1 .86.86 0 01-.38.5 1.17 1.17 0 01-.72.14 1.35 1.35 0 01-.7-.21.9.9 0 01-.33-.49 3.13 3.13 0 010-1.09zm-3.65 3.66l-.25-3.55.88-.06.7 2.38.35-2.45.88-.07.25 3.55h-.54l-.2-2.67-.38 2.83h-.57l-.76-2.75.19 2.79zm-4.16.13l.53-.25c.2.42.47.56.82.45a.57.57 0 00.35-.26.44.44 0 000-.37.33.33 0 00-.11-.18.41.41 0 00-.2-.09h-.56a1.67 1.67 0 01-.6-.06.9.9 0 01-.37-.25 1 1 0 01-.24-.41 1 1 0 01-.05-.54.9.9 0 01.24-.45 1.36 1.36 0 01.52-.29 1.08 1.08 0 01.85 0 1.06 1.06 0 01.53.66l-.55.21a.61.61 0 00-.28-.32.5.5 0 00-.38 0 .6.6 0 00-.32.21.3.3 0 000 .27.31.31 0 00.19.2 1.67 1.67 0 00.58 0 2.16 2.16 0 01.69.06.9.9 0 01.4.26 1.37 1.37 0 01.27.48 1 1 0 01-.78 1.41 1.15 1.15 0 01-1.53-.74zm-1.44.51l-1-1 .3 1.35zm1.63.7l-.56.31-.62-.58-1 .57.19.82-.55.3-.75-3.63.54-.3zm-3.75 2.39l-1.77-2.36-.69.52-.37-.48 1.85-1.39.37.48-.69.51 1.77 2.37zm-1.3 1.27l-2.56-2.47.41-.4 2.56 2.47zM14 32.29l.31-.49q.59.36.93-.06a.61.61 0 00.15-.42.43.43 0 00-.17-.33.41.41 0 00-.19-.09.32.32 0 00-.21 0 3.41 3.41 0 00-.48.29 2 2 0 01-.54.28 1 1 0 01-.45 0 1.19 1.19 0 01-.42-.21 1.21 1.21 0 01-.33-.43.89.89 0 010-.51 1.19 1.19 0 01.27-.52 1.08 1.08 0 01.72-.45 1.05 1.05 0 01.81.26l-.34.48a.65.65 0 00-.42-.12.56.56 0 00-.32.21.58.58 0 00-.15.35.31.31 0 00.11.26.3.3 0 00.26.06 1.66 1.66 0 00.46-.25 2.23 2.23 0 01.62-.33.94.94 0 01.47 0 1.24 1.24 0 01.49.26 1.08 1.08 0 01.42.71 1.12 1.12 0 01-.31.89 1.14 1.14 0 01-1.69.16zM12.09 34l.2-.39a1.84 1.84 0 00.21-.47.35.35 0 000-.22.52.52 0 00-.22-.19.45.45 0 00-.28-.07.4.4 0 00-.21.09 2.51 2.51 0 00-.24.41l-.22.41zm1.53 1.48l-3.14-1.67.58-1.1a1.71 1.71 0 01.41-.55.73.73 0 01.45-.14 1.1 1.1 0 01.56.15 1 1 0 01.5.49.86.86 0 010 .65 1.36 1.36 0 01.42-.13 2.91 2.91 0 01.66 0h.78l-.32.62h-.89a4.59 4.59 0 00-.61 0 .4.4 0 00-.21.08.74.74 0 00-.17.24l-.06.11 1.31.7zm-.92 2.56l-3.36-1.13.7-2 .57.2-.51 1.49.74.25.48-1.38.57.19-.48 1.34.91.31.54-1.54.56.2zM12.37 40l-3.67.54.09-.64 2.71-.36L9 38.48l.09-.62 3.37 1.52zm-.13 1.89l-3.55-.12v-.59l3.55.13zm.2 2.91l-3.54.38-.06-.58 2.24-1.43-2.36.25-.06-.55 3.54-.37.06.59-2.18 1.41 2.3-.24zm-2.69 3.79L9.59 48l1.86-.5a4.66 4.66 0 00.56-.17.61.61 0 00.31-.28.54.54 0 000-.4.55.55 0 00-.17-.3.43.43 0 00-.29-.1 2.71 2.71 0 00-.68.13l-1.9.51-.16-.57 1.88-.46a4.87 4.87 0 011-.2.92.92 0 01.59.2 1.16 1.16 0 01.37.63 1.32 1.32 0 010 .73.89.89 0 01-.35.48 3.33 3.33 0 01-1 .39zM45.03 49.11l-1.13.98-1.28-.77.59 1.38-1.14.98 1.5-.14.58 1.38.33-1.46 1.49-.12-1.28-.77.34-1.46zM13.34 49.11l-1.13.98-1.28-.77.59 1.38-1.13.98 1.49-.14.58 1.38.33-1.46 1.5-.12-1.29-.77.34-1.46zM22.7 44.2l-1.42.48.26-.35 1.1-.33.06.2m.19.5l-2.4 1 .39-.53 1.92-.75zm.31.62L20.28 47h-.76l.45-.61L23 45c.07.08.13.2.2.32zm.29.44l-1.69 1.18h-.65l2.2-1.42a1.43 1.43 0 00.14.24zm2.14-1.51l-.3.22-.09-.13.32-.2zm-1.84 1.91l-.88.72h-.43l1.18-.88a1 1 0 00.13.16zm2-1.68l-.28.24a.76.76 0 01-.08-.11l.29-.22zm-1.69 2.05l-.17.16-.28.07.09-.25.19-.17zm1.9-1.84l-.26.26-.12-.12.28-.25zm-1.49 2.2l-1 1.14v-.44l.78-.84zm1.71-2l-.24.29-.1-.09.26-.28a.3.3 0 00.07.09zm-1.29 2.33l-1.53 2.11.07-.64 1.26-1.62zm1.53-2.14l-.22.31-.12-.1.23-.29zm-.96 2.52l-1.64 2.95-.64.42.08-.75 1.84-2.83zm1.28-2.29l-.18.33-.22-.14.2-.32zM26 47.84l-.84 1.86-.55.37 1.17-2.33zm1.08-2.39l-.16.34-.13-.07.16-.33zM26.43 48l-.38 1.05-.36.24.54-1.29zm.88-2.48l-.13.35h-.12l.14-.35zm-.38 2.63l-.05.21-.2.21-.07-.26.07-.23zm.68-2.54l-.1.37-.16.02.11-.36zm-.16 2.66l-.26 1.44-.18-.4.23-1.08zm.47-2.58l-.07.36h-.13l.08-.37zm.08 2.69L27.74 51l-.27-.6.26-2zm.24-2.61v.37h-.15v-.37zm.45 2.63l.08 3.37-.34.68-.31-.69.16-3.36h.41zm-.05-2.62v.37h-.27v-.37h.24zm.58 2.59l.22 2-.29.59-.15-2.57zm-.28-2.61v.37h-.16v-.38zm.77 2.54l.21 1.09-.19.39-.23-1.45zm-.49-2.58l.07.36h-.13l-.06-.37zm1 2.46l.05.19-.07.28-.2-.19v-.22zm-.73-2.53l.11.36h-.16l-.09-.36zM30.66 48l.51 1.37-.36-.25-.35-1zm-.91-2.47l.14.35-.13.05-.12-.36zm1.4 2.26l1.1 2.34-.53-.38-.79-1.86zM30 45.44l.16.34-.15.06-.14-.34zm1.73 2.05l1.76 2.86.06.75-.55-.44-1.56-3zm-1.38-2.24l.2.32-.23.13-.18-.33zm1.81 1.94l1.21 1.63.05.65L32 47.33zm.39-.31l.73.83v.44L32.43 47zm.38-.37l.15.14.08.27-.26-.07-.15-.16zm.33-.38l1.14.93L34 47l-.83-.73a1 1 0 00.13-.14zm.33-.42l2.13 1.45h-.65l-1.59-1.26zm.35-.6l3 1.55.43.63-.76-.06-2.85-1.76c.09-.12.16-.24.24-.36zm.23-.48l1.86.78.38.54-2.34-1.1c.07-.07.11-.14.14-.22zm.17-.47l1.06.35.25.35-1.38-.5a1.59 1.59 0 00.11-.2zm.13-.44l.19.05.21.19-.26.07-.17-.03a2.33 2.33 0 00.07-.28zm0-3.12l.2-.05.28.07-.19.18-.22.05c-.03-.08-.06-.16-.08-.25zm-.11-.35l1.38-.47-.3.35-1 .31zm-.2-.49l2.37-1-.39.52-1.89.72a1.47 1.47 0 00-.1-.24zm-.32-.62l2.9-1.7h.76L37 38l-3 1.5zm-.28-.44l1.65-1.17h.65l-2.18 1.37zm-.31-.4l.85-.71h.44l-1.16.91zm-.38-.41l.16-.15.28-.09-.08.26-.18.16zm-.31-.29l1-1.11v.44l-.76.81zm-.42-.33l1.52-2.1-.07.65-1.25 1.59zm-.59-.38L33.2 34l.63-.42-.09.75-1.84 2.78zm-.47-.24l.85-1.84.54-.36-1.17 2.31zm-.46-.18l.38-1 .36-.24-.55 1.36zm-.54-.17l.06-.23.2-.2.06.25-.07.25zm-.46-.1l.26-1.44.17.4-.23 1.08zm-.53-.07l.23-2.58.27.6-.26 2zm-.7 0l-.08-3.36.34-.68.31.69-.16 3.36h-.41zm-.53 0l-.21-2 .28-.59.18 2.59zm-.49.08l-.21-1.1.19-.39.23 1.45zm-.53.12l-.07-.23.07-.28.16.18.06.26zm-.45.15l-.52-1.38.35.25.36 1.07zm-.49.22l-1.12-2.36.53.38.81 1.87zm-.62.33l-1.78-2.87-.06-.75.62.43 1.58 3zm-.43.3l-1.23-1.63-.06-.65L25 37.2zm-.38.31l-.75-.84v-.44l.95 1.15zm-.4.4l-.19-.18-.08-.28.25.07.2.2zm-.28.31l-1.16-1h.43l.86.75zm-.32.43l-2.17-1.47h.65l1.65 1.23a1.43 1.43 0 00-.14.25zm-.36.59l-3-1.58-.43-.62.75.06L23.3 39c-.07.14-.14.26-.2.38zm-.23.47L21 39.05l-.37-.53L23 39.63zm-.17.46l-1.06-.3-.28-.35 1.4.51a1.07 1.07 0 00-.07.15zm-.14.46l-.24-.06-.21-.2.26-.06.26.08c-.03.09-.06.17-.08.25zm0 3l-.24.07-.28-.07.2-.19.26-.06a1 1 0 00.08.31zm2.71-6s.17.08.1.17-.11 0-.11.07 0 .08-.07.12-.19 0-.2-.06a.32.32 0 010-.06h.11a.05.05 0 00.09 0 .37.37 0 010-.08.31.31 0 00.13 0v-.07c0-.07-.03-.06-.03-.06zm-1.58 1.33s.19 0 .19.07-.07.11-.05.12 0 .07 0 .14-.15.12-.2.08a.28.28 0 01-.06-.06h.1s.05-.06 0-.08l-.05-.06s.09 0 .09-.09v-.05-.04zm1 5.46s-.08.18-.17.11 0-.12-.06-.12-.08 0-.11-.08 0-.19.06-.2h.09v.11h-.05s0 .08.05.08h.08a.31.31 0 000 .13h.17zm5.75 1.74s.16.11.08.18-.12 0-.12 0 0 .08-.1.1-.19 0-.19-.09a.31.31 0 010-.09h.19v-.08h.13c.03 0 0 0 0-.07s.07.08.07.08zM29 47s.11.16 0 .2-.12 0-.13 0-.05.06-.13.06-.16-.1-.14-.16v-.08l.08.07h.09v-.07s.09.07.12.07a.05.05 0 000-.07C28.94 47 29 47 29 47zm4.14-6.72s-.13.31-.31.26-.23-.12-.21-.19a.85.85 0 010-.13.26.26 0 01-.17-.11c-.06-.11 0-.1 0-.1s0-.06-.12-.15-.23-.19-.31-.11l-.12.1-.09-.22s.18-.1.21-.16 0-.11-.24-.25-.3-.26-.32-.35v-.14s-.38.07-.49-.07a.28.28 0 01-.09-.33.52.52 0 01.17-.2s-.12.33.1.42.3.05.3.05a1.47 1.47 0 00.21-.36v-.13l.2.06a1.36 1.36 0 00-.21.49.54.54 0 00.22.48 1.3 1.3 0 00.53.15h.11s-.22.17-.24.23 0 .11.1.18.09.14.15.16h.05a.17.17 0 000 .14.46.46 0 00.18.07s-.11.21 0 .25.15 0 .18 0 0-.06 0-.06zm.18 3.89s.34 0 .33.23-.06.25-.13.25h-.13a.24.24 0 01-.07.18l-.08.08s-.06 0-.12.15-.12.26 0 .32l.13.09-.19.15s-.14-.15-.21-.16-.1.05-.17.3-.18.35-.27.39h-.12s.16.35.06.5-.18.18-.31.16a.41.41 0 01-.23-.11s.35 0 .38-.2 0-.3 0-.3a1.74 1.74 0 00-.41-.12h-.13V46a1.4 1.4 0 00.53.09.58.58 0 00.41-.34 1.33 1.33 0 000-.56.56.56 0 010-.1 1.38 1.38 0 00.29.17c.06 0 .1 0 .14-.14s.11-.13.13-.19v-.06a.17.17 0 00.14-.07.39.39 0 000-.18h.26a.14.14 0 00-.06-.17h-.06zm-.16-4.81s.21.16.28 0 0-.24-.14-.23h-.09s.17.12.1.16a.29.29 0 01-.18.1zm-.73 5s.1-.26-.07-.28-.22.11-.19.19 0 .08 0 .08.07-.19.14-.13a.34.34 0 01.09.2zM30.2 37s.22.16.29 0a.16.16 0 00-.14-.24h-.09s.16.12.09.17a.34.34 0 01-.15.07zm-4.61 9s.17.18.26 0a.14.14 0 00-.1-.23h-.08s.13.14.06.17a.29.29 0 01-.14.12zm6.54-7.61l.87.4.08-.06-.87-.39zm-.25 7.22l.2-.84H32l-.2.84zm-5.54-8.28l.63-.47v-.11l-.63.47zm-1.57.67l.63-.47v-.13l-.62.48zm6.91-.22s.22.18.35.06 0-.23-.09-.19 0 .13 0 .13zm-.26 8.32s.12-.26 0-.35-.21.07-.16.14.14 0 .14 0zm-5.42.29s.35.12.47 0-.1-.21-.18-.16 0 .14 0 .14zm-1.28-1s.32.18.47.05-.06-.22-.15-.19 0 .13 0 .13zm4.69 1.31s.28-.06.26-.24a.1.1 0 00-.2 0c0 .08.08.12.08.12zm-6.01-5.86s0-.28-.19-.3a.11.11 0 00-.09.2c.07 0 .13-.06.13-.06zm7-3.17l.26-.09s.1.44-.19.62a.81.81 0 01-.94-.09.54.54 0 010-.58.34.34 0 01.22-.11.71.71 0 00-.11.4.53.53 0 00.5.35c.25 0 .38-.14.38-.24a.65.65 0 00-.17-.26zm.42 9.17v-.25s.4.14.4.46-.29.69-.53.69a.51.51 0 01-.47-.27.35.35 0 010-.23s.13.24.26.28a.5.5 0 00.52-.21c.11-.22.08-.38 0-.43a.54.54 0 00-.23-.04zm2.12-7.25a.07.07 0 01.07.08s0 .08-.07.07a.07.07 0 01-.08-.07.09.09 0 01.03-.08zm-.23 5a.07.07 0 01.05-.09.08.08 0 010 .15.08.08 0 01-.1-.06zm.29-4.73a.07.07 0 01.07.07.07.07 0 01-.07.07.07.07 0 01-.08-.08.08.08 0 01.08-.06zm-.17 4.52a.08.08 0 01.06-.09.07.07 0 01.09.06.08.08 0 01-.05.09.08.08 0 01-.06-.06zm.28-4.76a.07.07 0 01.07.08.07.07 0 01-.07.07.08.08 0 01-.08-.08.08.08 0 01.12-.07zm-.53 4.71a.07.07 0 01.05-.09.08.08 0 010 .15.07.07 0 01-.01-.06zm-2.46-7a.08.08 0 01.08.08.08.08 0 01-.08.07.07.07 0 01-.07-.08.07.07 0 01.11-.07zm.24 9.49a.08.08 0 01.1 0 .07.07 0 010 .09.07.07 0 01-.1 0 .08.08 0 01.04-.09zm.41-9.59l.06-.11.44-.07-.09.13zm-.17 9l-.06-.11.17-.38.05.14zm-.58.16v-.11l.3-.3v.15zm-1 .37v-.11l.36-.22v.14zm-.49.17v-.11l.37-.19v.14zm-.49-.07l.06-.1.41-.06-.09.12zm.05-.15v-.1l.42-.06-.09.11zm-1.34 0l.1-.1.84-.05-.18.11zm6.76-6.27l.11-.06.39.23h-.15zm-.81 2.78l.11.06.08.44-.13-.09zm-.26.34l.1.08v.45l-.1-.12zm-3.71-6.74v-.12l.42-.18-.07.15zM28 38v-.13l.35-.28v.15zm-1.79.54v-.08l.19-.29v.12zm-2.89.63h.08l.28.13h-.11zm1.66 5v.09l-.27.14v-.12zm-1.72-.65h-.08l-.23-.21h.11zm4.21-6.36l-.11-.08-.07-.63.13.13zm.72-.63s-.2.08-.16.43a3.62 3.62 0 010 .51v.12a.88.88 0 00.17-.59 1.85 1.85 0 01-.02-.41zm-3.86 1.89s-.05.21.25.38.35.22.44.28l.08.07a.82.82 0 00-.39-.48 3.18 3.18 0 01-.39-.19zm1.69-1s-.13.11 0 .35a2 2 0 01.15.37v.08a.62.62 0 000-.47c-.17-.2-.17-.27-.17-.27zm5.34-.12s-.22 0-.36.28a2.84 2.84 0 01-.23.46.46.46 0 00-.06.1.84.84 0 00.43-.44 2.36 2.36 0 01.21-.34zM31 45.89s-.13.16 0 .43.2.33.25.42v.08a.76.76 0 00-.13-.55 1.61 1.61 0 01-.12-.38zm-3 .64s-.18 0-.26.27a2.42 2.42 0 01-.13.41v.09a.7.7 0 00.29-.42 1.15 1.15 0 01.1-.35zm-2.9-1.4s-.15-.16-.43 0a3.13 3.13 0 01-.44.21h-.1a.81.81 0 00.58-.09 1.31 1.31 0 01.38-.12zm8.66-4.48s-.14-.18-.46 0a3.14 3.14 0 01-.48.19h-.11a.87.87 0 00.62 0 1 1 0 01.42-.19zm-1 3.16s0 .17.26.22l.37.1h.07a.6.6 0 00-.38-.25 1 1 0 01-.38-.07zm-6.09-6.09a.08.08 0 110 .16.07.07 0 01-.07-.08.08.08 0 01.01-.08zm.18.22s-.11.2-.19.17-.26-.12-.21-.29.15-.29.17-.38a.61.61 0 01.05-.11s.3.56.56.56.56-.16.51-.49-.13-.56 0-.73.12-.16.12-.16a2.44 2.44 0 000 .58c0 .21.15.59 0 .74a.8.8 0 01-.61.24 1.18 1.18 0 01-.46-.13zm2.15-.3a.08.08 0 01.07.08.07.07 0 01-.07.07.07.07 0 01-.08-.07.07.07 0 01.02-.08zm.76-1.07l-.14.3a.57.57 0 00-.28.21 1.13 1.13 0 00-.19.41.37.37 0 00.07.23l.05.07-.08.15a1.3 1.3 0 01-.37-.06.14.14 0 010-.22l.15-.16s-.07-.39-.23-.49l-.22-.13v-.32a3.64 3.64 0 01.43.44 2.84 2.84 0 01.14.33 3.51 3.51 0 01.44-.62 1.21 1.21 0 01.17-.14zm-4 2.06a.09.09 0 01.12 0v.09c0 .02-.1 0-.12 0s-.12-.06-.08-.09zm0-1.22l.06.3a.53.53 0 00-.13.32.91.91 0 00.08.41.56.56 0 00.23.12h.08v.16a2.27 2.27 0 01-.39.17c-.12 0-.19-.07-.18-.15s0-.2 0-.2a1.07 1.07 0 00-.54-.22h-.3l-.24-.21a3.59 3.59 0 01.7.07 3.33 3.33 0 01.35.15 2.36 2.36 0 010-.7 1.09 1.09 0 01.23-.22zm-1.91 3.4a.07.07 0 010 .14.08.08 0 01-.07-.07s-.02-.08.02-.07zm.32-1.81h.28v.11s.37 0 .45.18.13.27.05.36a1.1 1.1 0 01-.31.17 1.32 1.32 0 01-.14.63 2 2 0 01-.54.33L24 41s-.13.11-.18.08a1.44 1.44 0 01-.21-.37v-.1a1.14 1.14 0 00.54 0 .62.62 0 00.41-.49c0-.27-.06-.44-.21-.48a.5.5 0 00-.18 0l-.17-.3a2.68 2.68 0 00.65.36c.13 0 .23-.09.21-.16s0-.15-.14-.19-.37-.08-.43-.15a.54.54 0 01-.12-.2zm9.36 4.76s-.16.13-.25 0 0-.3.1-.28a.36.36 0 01.38.33.46.46 0 01-.1.39s.1-.27 0-.34a.79.79 0 00-.13-.07zM29.66 47a.54.54 0 010-.17v-.06a.45.45 0 00.15.1H30a.17.17 0 01-.05.17c-.07.07-.22.11-.26.15l.45.06a4.45 4.45 0 01-.36.34.72.72 0 01-.4.15h-.17l-.08.11a1.26 1.26 0 00-.21-.05.58.58 0 00-.21.06.41.41 0 01-.33-.09l-.07-.09s-.21.19-.35.18-.37-.1-.4-.2v-.11s.43.31.64 0a.3.3 0 000-.44l.18-.1v.51s0 .16.16.16a.73.73 0 00.4-.12l.05-.05.23.09a.59.59 0 00.33 0c.05 0 .21-.22.21-.22a1 1 0 00-.26 0 .37.37 0 00-.14.05.23.23 0 010-.21 2 2 0 01.29-.19.31.31 0 00.01-.03zm-3.45.68s.5.36.81.11a2.06 2.06 0 00.43-.54c.06-.05-.12-.06-.19 0s-.1.19-.18.3a.86.86 0 01-.55.23 1.78 1.78 0 01-.32-.15zm.9-.65s-.15.31-.3.33-.22 0-.26 0a.34.34 0 00-.05-.08s-.26 0-.33-.08l-.07-.2a1.8 1.8 0 01-.41 0 .73.73 0 01-.23-.09s-.31.2-.53.09-.22-.17-.21-.26a.23.23 0 010-.13s.17.35.34.28.16-.1.16-.1-.13-.12-.06-.18.21-.16.25-.08a.4.4 0 010 .22.25.25 0 00.23.13 1.13 1.13 0 00.47 0l.09-.05v.24a.22.22 0 00.22 0v.15c0 .03.18.06.22 0v-.09zm-1.37-1.45l-.14.21s-.09-.07-.35.18-.38.5-.59.54-.59 0-.64-.27a.6.6 0 01.09-.53.28.28 0 01.24 0h.08s-.25.07-.26.28.2.5.47.37.66-.65.83-.71a.62.62 0 01.27-.12zm-2.12-2.18a.07.07 0 110 .14.08.08 0 01-.07-.07.07.07 0 01.07-.07zm.93 1.6l-.21.2h-.1s-.25.27-.43.23-.29-.07-.3-.2a.93.93 0 01.06-.34 1.69 1.69 0 01-.42-.45 1.05 1.05 0 01.05-.59s.19-.17.2-.26-.1-.23 0-.25a.52.52 0 01.4.06 2.05 2.05 0 01.28.29s-.63.09-.67.25a.63.63 0 00.13.63c.2.17.37.24.49.14a.73.73 0 00.14-.12l.32.11a3.21 3.21 0 00-.69.26c-.09.11-.08.24 0 .28a.19.19 0 00.24 0c.13-.09.29-.23.38-.23a.42.42 0 01.13-.01zm1.52-1.64a.56.56 0 00.83.56 1.87 1.87 0 001.27-1.22c0-.27 0-.53-.11-.49s-.62.29-.84 0-.35-.51-.61-.06a5.58 5.58 0 00-.33 1 .53.53 0 01-.21.2zm4.53-2.17a.12.12 0 01.12.12.12.12 0 11-.24 0 .12.12 0 01.12-.13zm.29.94l-.13-.23a.43.43 0 010-.09s.3-.1.34-.19a1.32 1.32 0 000-.36.4.4 0 00-.32-.28c-.28-.07-.42-.07-.52.09s0 .25 0 .39.07.15.07.15a7.83 7.83 0 00-1.03.39.66.66 0 00-.33.65v.4a1.29 1.29 0 01.31-.26.73.73 0 01.33 0h.12a1.9 1.9 0 00-.49.57 3.28 3.28 0 00-.17.42s-.11.09-.31-.47-.37-1.31-.37-1.31a.9.9 0 00.26-.44.81.81 0 000-.3 1.69 1.69 0 01-.22.31.47.47 0 01-.14.09 5.74 5.74 0 01-.17-.61v-.32a2.36 2.36 0 00-.25.59.66.66 0 00.07.35l.06.18a.33.33 0 01-.37 0c-.23-.11-.33-.23-.31-.35a1 1 0 01.07-.27.59.59 0 00-.66.29c-.31.41-.38 1-.51 1.11s-.49 0-.53-.38a2.26 2.26 0 010-.72v-.16a1.88 1.88 0 00-.25 1.13 1.31 1.31 0 00.32.65.72.72 0 00.16.15s-.21.79.3 1.06 1.5-.25 1.84-.8l.35-.55s.35 1.34.79 1.56a1.47 1.47 0 00.82.23h.25s-.24-.16-.25-.31a1.19 1.19 0 010-.22 1.65 1.65 0 01-.59-.1 1.8 1.8 0 01-.26-.18s.53-.86 1.09-1 1-.14 1.12-.27a2.3 2.3 0 00.24-.44 1.75 1.75 0 01-1 .17 8 8 0 01-.89-.18 1.61 1.61 0 01.38-.24 1.15 1.15 0 01.36-.1 1.08 1.08 0 00.26.19.19.19 0 01.16 0zm-.77 1.3s.44-.13.53-.14h.1a.16.16 0 010 .16c-.07.06-.22.18-.21.3a.14.14 0 00.25.09l.09-.14a.36.36 0 01-.05.26.35.35 0 01-.43.08c-.14-.11-.07-.32 0-.4a.55.55 0 01.14-.14.42.42 0 01-.24 0 .17.17 0 01-.18-.08zm-1.6.78a.43.43 0 00-.07.36c.05.19.09.27.07.34s-.13.23-.11.3.17.11.23 0a.52.52 0 000-.46 2.8 2.8 0 01-.14-.4zm-.13-.46a7.64 7.64 0 01-.82.69l-.24.11-.12.52s.82-.73 1-.85l.16-.12zM27 43.28l.11-.34h-.34l-.12.35zm.59-.4l.11-.34h-.35l-.11.35zm-1.49-1.82l.11-.35-.35-.05-.11.35zm.73-.34l.12-.34-.35-.05-.12.35zm1.47-1.49s-.05.28-.19.35-1.14.61-1.14.61l.18-.42zM27 41a14.44 14.44 0 011.56-.94c.5-.18.63-.2.73-.39l.17-.3-1.46.71c-.45.24-.64.32-.64.32zm2.3-.79s.32.31.09.45-.28 0-.3.05-.09.17-.26.2-.42-.15-.4-.29a.52.52 0 01.06-.2l.21.12a.08.08 0 000 .11c.05.05.19 0 .2-.06a.81.81 0 000-.17s.23.11.3.09a.1.1 0 00.06-.16c-.06-.14.02-.14.02-.14zm1-.33a.06.06 0 01.06.07.07.07 0 01-.06.07.07.07 0 010-.14zm.35.41h-.23a4.5 4.5 0 01-.56.68 1.71 1.71 0 01-.36.28l.19-.45a1.39 1.39 0 00.43-.3 2.65 2.65 0 00.17-.25s-.2-.12-.16-.27.11-.29.23-.19.12.11.12.22v.12s.14 0 .16.08a.31.31 0 01-.01.08zM38 42l.68.34-.69.31-6-.28a1 1 0 010 .17l5.18.47-.6.28L32 42.7v.17l4 .72-.39.19L32 43v.1l.36.09v.16l-.36-.1a.61.61 0 010 .11l.35.11v.12l-.35-.12-.06.15.34.15-.06.14-.34-.16a1 1 0 01-.07.15l.33.17-.13.23-.32-.2a1 1 0 01-.08.14l.3.21-.09.12-.3-.22a.64.64 0 01-.1.13l.29.24-.09.1-.28-.24-.11.13.26.25-.11.12-.38-.28-.11.1.25.28-.11.09-.26-.27-.13.1.22.3-.13.09-.2-.31h.07A3.52 3.52 0 0125.46 44l-.32.19L25 44l.33-.16-.06-.15-.34.15-.06-.14.34-.13v-.16l-.36.12a.56.56 0 000-.12l.36-.11a.44.44 0 010-.1l-.37.09a1.24 1.24 0 000-.16l.37-.08a.36.36 0 010-.1l-3.66.7-.55-.24 4-.63v-.16l-4.62.49-.59-.28 5.2-.35a.92.92 0 010-.16l-6 .12-.68-.33.69-.31 6 .28a1 1 0 000-.17l-5.18-.48.59-.27 4.61.62v-.17l-4-.72.39-.19 3.65.79a.29.29 0 000-.09l-.36-.09a.83.83 0 000-.15l.36.1v-.13l-.22-.13v-.12l.35.13.06-.15-.25-.13.06-.14.34.16a1 1 0 01.07-.15l-.33-.16a2.36 2.36 0 01.13-.23l.31.19.09-.13-.3-.21.09-.13.3.22.04-.15-.28-.23.08-.1.28.24.09-.09-.27-.25.11-.12.26.27a.68.68 0 01.12-.12l-.19-.26.1-.08.23.28.13-.1-.22-.3.13-.09.21.3.13-.08-.24-.27.23-.13.17.33.14-.08-.16-.33.14-.06.15.34.15-.07-.13-.34h.13l.11.35h.15l-.1-.36h.16l.08.36h.16l-.07-.36h.13l.06.36h.16v-.37h.16v.37h.16v-.37h.26v.37h.17v-.37h.15l-.05.36h.17l.06-.37h.13l-.07.36h.14l.1-.35h.16l-.11.35.17.06.12-.35.13.05-.14.34L30 39l.15-.33.14.07-.16.32.14.08.18-.32.23.14-.2.31.13.09.21-.3.13.09-.23.29.13.1.24-.27.1.09-.25.26.09.09.26-.26.11.12-.26.25.11.13.28-.24a.76.76 0 01.08.11l-.28.22a1.13 1.13 0 00.1.13l.27-.17.09.13-.3.2s.05.09.08.14l.32-.19.12.24-.32.16.07.14.33-.14.06.14-.34.13.06.16.34-.12a.56.56 0 010 .12l-.34.11a.32.32 0 000 .09l.35-.1v.16l-.36.08v.14l3.66-.7.39.19-4 .63a.88.88 0 010 .16l4.62-.49.59.28-5.06.34a.86.86 0 000 .16z"/><path class="cls-4" d="M99.6 26.05C111 15.93 133.79-.45 161 0c35.38 1.44 58.76 19.66 74.14 35.46 3.56 3.65 5.65 6.75-.83 1.73C220.84 26.74 195.7 10 169.27 6.68c-24.43-5.08-53.5 10.9-68.15 20.47-5.88 3.85-6.6 3.4-1.52-1.1zM65.08 53.85c1.7-1.84 4.19-4.15 5.49-5.37 1.94-1.82 5.81-4.72 14.88-2.66s15.71 5.2 19.82 4.83c8-.71 8.52-2.82 26.8-10.14 9.59-3.84 14.55-4.44 19.15-4.11 10.72.78 13.91 3.85 18.24 6.6 5.44 3.44 10.71 7.84 12.82 11.4 0 0 .12 1.12-3.26-1.57-5.15-4.09-15.83-14.41-32.15-12.23a75.85 75.85 0 00-11 2.77c-8.28 2.33-21.43 10.91-30.14 11.15a30.55 30.55 0 01-7.73-.87c-3.87-.91-8.76-2.74-12.7-3.85-1.74-.49-8.16-3.2-14.23 1.08-3.83 2.69-5.49 4.44-6.54 4.8-.8.32-.97-.19.55-1.83z"/><path class="cls-5" d="M3.29 87.88a4.89 4.89 0 01.76.16 3.47 3.47 0 01.67.25v.54H0v-.54A2.94 2.94 0 01.57 88a4.65 4.65 0 01.59-.15v-8a4 4 0 01-.62-.16 2.69 2.69 0 01-.54-.26v-.54h1.79c.38 0 .81 0 1.3-.06s.93 0 1.33 0a7 7 0 011.47.15 3.72 3.72 0 011.28.5 2.82 2.82 0 01.91.94 3.39 3.39 0 010 2.92 3 3 0 01-.88 1 3.85 3.85 0 01-1.28.59 6.16 6.16 0 01-1.5.19H3.29zm.77-8.18h-.45l-.32.07v4.33a1.25 1.25 0 00.38.05h.42a2.35 2.35 0 00.74-.15 1.92 1.92 0 00.63-.4 2 2 0 00.44-.69 2.68 2.68 0 00.17-1 2.24 2.24 0 00-.55-1.67 2 2 0 00-1.46-.54zM16 88.83h-4.92v-.54l.65-.24a3.68 3.68 0 01.73-.17v-8.07h-1.64l-.91 2.43h-.58q-.06-.28-.12-.72c0-.3-.07-.6-.1-.91s0-.62-.07-.93 0-.57 0-.79h9v.8c0 .31 0 .6-.07.92s-.06.61-.1.9-.08.53-.12.73h-.58l-.91-2.43h-1.67v8.07a6 6 0 01.73.17 2.92 2.92 0 01.65.24zM18.38 87.82a1.06 1.06 0 01.33-.82 1.16 1.16 0 01.86-.31 1.25 1.25 0 01.88.31 1 1 0 01.34.82 1 1 0 01-.34.81 1.25 1.25 0 01-.88.31 1.16 1.16 0 01-.86-.31 1 1 0 01-.33-.81zM25.12 78.89h4.38v.54a3 3 0 01-1.09.41v5.47a3.82 3.82 0 00.16 1.16 1.9 1.9 0 00.45.76 1.74 1.74 0 00.72.42 3.12 3.12 0 001 .13 2.57 2.57 0 00.85-.14 1.71 1.71 0 00.69-.43 2 2 0 00.44-.78 3.72 3.72 0 00.16-1.19v-5.33a3.62 3.62 0 01-.67-.2 2.09 2.09 0 01-.58-.28v-.54h3.47v.54a2.57 2.57 0 01-.57.3 4.69 4.69 0 01-.61.18v5.34A3.74 3.74 0 0133 88a3.69 3.69 0 01-2.71.94 4.5 4.5 0 01-2.94-.85 3.32 3.32 0 01-1-2.72v-5.53a3.93 3.93 0 01-.59-.15 2.48 2.48 0 01-.57-.26zM48.07 88.83h-4.24v-.54a3.68 3.68 0 01.55-.24 3.54 3.54 0 01.58-.17v-5.94l.04-1.66h-.11l-.48 1.52-2.74 7h-.65l-2.72-7-.52-1.66h-.08v7.62a4.86 4.86 0 01.6.18 4.92 4.92 0 01.61.29v.54h-3.45v-.54c.15-.08.33-.17.56-.27a2.12 2.12 0 01.63-.21v-8l-.65-.06a2.4 2.4 0 01-.56-.26v-.54h3.85l2.17 5.78.45 1.33.43-1.39 2.21-5.75h3.52v.54a3.11 3.11 0 01-.52.25 3.92 3.92 0 01-.56.16v8a3.43 3.43 0 01.57.17 4.58 4.58 0 01.49.23zM48.65 88.83v-.54a3.38 3.38 0 01.58-.27 2.19 2.19 0 01.59-.14v-8a5.39 5.39 0 01-.6-.16 3.64 3.64 0 01-.57-.25v-.54h4.4a9.54 9.54 0 011.32.09 3.81 3.81 0 011.14.36 2 2 0 01.79.72 2.11 2.11 0 01.3 1.18 2.12 2.12 0 01-.6 1.42 2.63 2.63 0 01-.68.49 3.34 3.34 0 01-.84.29 5.18 5.18 0 01.91.21 2.69 2.69 0 01.83.46 2.44 2.44 0 01.61.74 2.36 2.36 0 01.23 1.11 2.45 2.45 0 01-.34 1.32 2.67 2.67 0 01-.92.91 4.13 4.13 0 01-1.31.52 7 7 0 01-1.53.16H48.65zm3.67-5.51H53.25a2.08 2.08 0 00.9-.7 1.81 1.81 0 00.34-1.09 1.67 1.67 0 00-.49-1.38 1.72 1.72 0 00-1.2-.42h-.55l-.4.05v3.53zm.62 4.68a1.88 1.88 0 001.41-.53 2 2 0 00.51-1.47 2.06 2.06 0 00-.17-.88 1.52 1.52 0 00-.47-.56 2 2 0 00-.71-.28 4.91 4.91 0 00-.89-.08h-.75v3.65l.41.07a5.39 5.39 0 00.66.08z"/><text transform="translate(80.62 92.6)" font-size="29.25" font-family="PTSerif-Bold,PT Serif" font-weight="700" fill="#231f20">BMT UMY</text><text transform="translate(105.83 107.12)" font-size="10.63" font-family="PTSerif-Italic,PT Serif" font-style="italic" fill="#231f20"><tspan class="cls-8">c</tspan><tspan x="4.54" y="0">a</tspan><tspan x="10.22" y="0" letter-spacing="-.01em">k</tspan><tspan x="15.21" y="0">ap &amp; </tspan><tspan x="41.08" y="0" letter-spacing="-.04em">T</tspan><tspan x="47.18" y="0">erper</tspan><tspan class="cls-8" x="70.77" y="0">c</tspan><tspan x="75.3" y="0">a</tspan><tspan x="80.99" y="0" letter-spacing="-.01em">y</tspan><tspan x="85.71" y="0">a</tspan></text></g></g></svg>