<svg xmlns="http://www.w3.org/2000/svg" viewBox="0 0 23.87 23.87"><defs><style>.cls-1{fill:#fff;fill-rule:evenodd}</style></defs><g id="Layer_2" data-name="Layer 2"><g id="Layer_1-2" data-name="Layer 1"><path class="cls-1" d="M11.93 0h7.3a4.38 4.38 0 014.62 4.56v14.73a4.41 4.41 0 01-4.62 4.57H4.63A4.42 4.42 0 010 19.22V4.63A4.4 4.4 0 014.64 0h7.29zm0 4.46H8.11a3.55 3.55 0 00-3.65 3.68v7.5a3.56 3.56 0 003.79 3.75h7.37a3.56 3.56 0 003.78-3.75V8.2a3.55 3.55 0 00-3.71-3.74z"/><path class="cls-1" d="M5.36 12V8.12a2.6 2.6 0 012.75-2.77h7.64a2.6 2.6 0 012.75 2.74v7.7a2.56 2.56 0 01-2.65 2.69H8.01a2.56 2.56 0 01-2.64-2.69c-.02-1.27-.01-2.54-.01-3.79zm11.37 0a4.8 4.8 0 10-4.84 4.76A4.76 4.76 0 0016.73 12zm.7-5c-.21-.13-.5-.46-.82-.49s-.74.31-.71.79a.69.69 0 00.76.69c.49.01.73-.3.77-.99z"/><path class="cls-1" d="M11.91 15.73a3.82 3.82 0 113.84-3.79 3.81 3.81 0 01-3.84 3.79z"/></g></g></svg>