<svg xmlns="http://www.w3.org/2000/svg" viewBox="0 0 23.87 23.87"><defs><style>.cls-1{fill:#fff;fill-rule:evenodd}</style></defs><g id="Layer_2" data-name="Layer 2"><g id="Layer_1-2" data-name="Layer 1"><path class="cls-1" d="M23.85 4.56A4.38 4.38 0 0019.23 0H4.64A4.4 4.4 0 000 4.63v14.59a4.42 4.42 0 004.62 4.64h14.6a4.41 4.41 0 004.62-4.57c.04-4.91.03-9.82.01-14.73zm-3.16 10.9a2.65 2.65 0 01-1 2.07 2.8 2.8 0 01-1.47.46l-6.09.34c-2.13-.11-4.34-.22-6.51-.33a2.22 2.22 0 01-2-1.08 4.54 4.54 0 01-.44-1.51 26.44 26.44 0 01-.11-6c.05-.56.14-1.12.23-1.68a2.14 2.14 0 011.87-1.86c1.22-.12 2.44-.21 3.67-.26a77.71 77.71 0 018.9.13 5.9 5.9 0 011.67.39 1.93 1.93 0 011.16 1.54 26.42 26.42 0 01.12 7.79z"/><path class="cls-1" d="M14.31 11.54q-1.82-1.08-3.63-2.13c-.47-.28-.61-.19-.61.38V14.1c0 .45.13.52.51.3l3.73-2.16c.45-.24.44-.44 0-.7z"/></g></g></svg>