<svg xmlns="http://www.w3.org/2000/svg" viewBox="0 0 135.85 61.33"><defs><style>.cls-3{fill-rule:evenodd}.cls-2,.cls-3{fill:#ffc20e}.cls-4{fill:#fff}</style></defs><g id="Layer_2" data-name="Layer 2"><g id="Layer_1-2" data-name="Layer 1"><path d="M14.78 9.6l-.18.1-.2.1-.2.08-.2.12-.21.07-.22.05-.23.06h-.71l-.26.05h-.25l-.26.05-.27.05h-.28l-.27.07-.28.07-.28.08-.28.1-.29.35-.29.13-.28.15-.28.18-.28.19-.27.22-.27.24-.24.22-.26.29-.24.32-.29.43-.47.11-.38.11-.36.13-.34.15-.32.18-.34.18-.28.2-.25.22-.24.22-.23.24c-.07.07-.13.15-.2.23s-.13.16-.19.25l-.18.24c-.05.09-.11.17-.16.25l-.15.25-.12.25-.14.25c0 .08-.09.16-.13.25s-.17.31-.26.47l-.12.23a1.59 1.59 0 01-.13.22l-.12.21-.13.2-.12.19-.13.18a1.83 1.83 0 00-.13.16l-.14.15a1.85 1.85 0 01-.14.14l-.15.12c-.63.46-.59.39-.37 1.13v.42a1.49 1.49 0 010 .21 1.48 1.48 0 010 .21v1.64a2.34 2.34 0 000 .26v2.25a2.91 2.91 0 010 .31l.06.31c0 .11.05.21.08.32s.07.21.1.32.09.21.13.32l.15.33.18.32c.07.11.14.22.2.33l.24.33.32.4v1.25c0 .13 0 .24.05.36l.06.35.09.34.11.32a2.88 2.88 0 01.13.31 2.59 2.59 0 01.14.29c.06.09.11.18.16.27l.17.27a2.2 2.2 0 01.17.25l.19.24.19.23c.06.08.13.15.19.22l.2.22.19.2c.07.07.13.14.2.2l.19.2.19.19.18.19.17.18.17.18.16.18.14.18.13.18.12.17.1.17.09.18c0 .05.05.11.07.17.25.74.19.68 1 .7h.42l.21.05.21.06.21.07.21.07.22.09.22.1.22.1.22.11.23.11.24.11.23.12.25.11.25.12.27.1.27.11.27.09.3.09.29.07.31.06h1.71l.37-.07.38-.09.39-.12.48-.18.45.19.38.13.37.1.36.07.36.05H18.66l.32-.06.3-.08.3-.09.29-.1.28-.1.28-.12.26-.11.26-.12.26-.13.25-.12.24-.11.23-.11.23-.11.23-.1.22-.09.22-.08.21-.07.2-.05H23.83c.79 0 .71 0 1-.7a1.08 1.08 0 00.08-.19 1.14 1.14 0 00.1-.19 1.74 1.74 0 00.11-.18 1.88 1.88 0 00.12-.18l.14-.18c.05 0 .09-.11.14-.17l.15-.17.16-.18a1.37 1.37 0 01.17-.17l.17-.18.36-.37.19-.18.18-.2.19-.2.18-.21.19-.23c.06-.07.11-.15.17-.23l.17-.24.17-.26.15-.27c.05-.1.09-.2.14-.29l.12-.3c0-.11.08-.22.11-.32l.09-.34c0-.12 0-.23.08-.35s0-.24 0-.37v-.78-.51l.32-.37.24-.31.21-.31.19-.32.15-.32.13-.33c0-.11.07-.21.1-.32s0-.21.08-.32l.06-.32v-.31a3 3 0 010-.31v-.61-.3-.58-.28-.27c0-.09 0-.36-.07-.53s0-.18 0-.26v-.5-.23a1.77 1.77 0 010-.23v-.42a1.5 1.5 0 000-.2 1.42 1.42 0 000-.2v-.18c.24-.74.25-.66-.37-1.13a1.07 1.07 0 00-.16-.14l-.15-.15a2.09 2.09 0 00-.14-.17l-.25-.23-.13-.18-.12-.19-.12-.2-.12-.2-.12-.21-.12-.21c-.07-.16-.15-.31-.23-.46l-.13-.23-.13-.23-.14-.24-.14-.24c-.06-.08-.11-.16-.16-.24l-.17-.24-.17-.23-.2-.24-.22-.19-.23-.22-.26-.21-.27-.2-.3-.19-.31-.18-.34-.16-.36-.15-.39-.13-.5-.13-.25-.43-.22-.32-.25-.29-.25-.27a3.07 3.07 0 00-.26-.25l-.27-.22-.28-.19-.29-.18-.29-.15L21 11l-.29-.12-.29-.1-.3-.09-.29-.07-.29-.07-.54-.13-.28-.05-.54-.1h-.26l-.25-.05h-.24l-.23-.06-.28-.16-.21-.07-.19-.07-.19-.08-.18-.09L16 9.6c-.64-.45-.56-.44-1.21 0" fill-rule="evenodd" fill="#004b2f"/><path class="cls-2" d="M12.49 10.92a6.25 6.25 0 002.83-.92.11.11 0 01.13 0 6.47 6.47 0 002.86.95c1.71.29 3.49.58 4.89 3 2.65.37 3.57 2.07 4.42 3.67A6.1 6.1 0 0029.41 20a.09.09 0 010 .12 6.34 6.34 0 000 3c.25 1.69.52 3.45-1.39 5.51.47 2.6-.9 4-2.17 5.28a6.08 6.08 0 00-1.74 2.41.11.11 0 01-.1.08 6.52 6.52 0 00-2.88.89c-1.55.76-3.17 1.55-5.75.4-2.36 1.23-4.12.38-5.76-.41a6.21 6.21 0 00-2.86-.88.12.12 0 01-.11-.07 6.23 6.23 0 00-1.74-2.42c-1.22-1.23-2.48-2.5-2.17-5.27-1.92-1.83-1.64-3.75-1.38-5.53a6.1 6.1 0 000-2.95.11.11 0 010-.13 6.38 6.38 0 001.8-2.38c.8-1.52 1.64-3.1 4.41-3.66 1.17-2.37 3.1-2.7 4.91-3m2.9-.74a6.5 6.5 0 01-2.87.94c-1.76.3-3.66.63-4.78 3a.08.08 0 01-.07 0c-2.66.46-3.52 2.01-4.31 3.49a6.56 6.56 0 01-1.8 2.41 6.41 6.41 0 010 3c-.24 1.73-.55 3.61 1.38 5.38a.07.07 0 010 .08H3c-.33 2.71.91 4 2.09 5.15a6.81 6.81 0 011.78 2.43 6.64 6.64 0 012.85.87c1.61.78 3.33 1.61 5.62.39a.12.12 0 01.1 0c2.51 1.14 4.09.37 5.61-.37a6.82 6.82 0 012.89-.92 6.54 6.54 0 011.77-2.42c1.25-1.26 2.58-2.62 2.11-5.15a.09.09 0 010-.09c1.87-2 1.62-3.73 1.37-5.38a6.57 6.57 0 010-3 6.48 6.48 0 01-1.79-2.41c-.84-1.56-1.73-3.23-4.32-3.57a.1.1 0 01-.08 0c-1.35-2.38-3.09-2.67-4.77-3a6.76 6.76 0 01-2.84-.9zm-.61-.58l-.18.1-.2.1-.2.08L14 10l-.21.07-.22.05-.23.06h-.71l-.26.05h-.25l-.26.05-.27.05h-.28l-.27.07-.28.07-.28.08-.28.1-.29.35-.29.13-.28.15-.28.18-.28.19-.27.22-.27.24-.24.22-.26.29-.24.32-.29.43-.47.11-.38.11-.36.13-.34.15-.32.18-.34.18-.28.2-.25.22-.24.22-.23.24c-.07.07-.13.15-.2.23s-.13.16-.19.25l-.18.24c-.05.09-.11.17-.16.25l-.15.25-.12.25-.14.25c0 .08-.09.16-.13.25s-.17.31-.26.47l-.12.23a1.59 1.59 0 01-.13.22l-.12.21-.13.2-.12.19-.13.18a1.83 1.83 0 00-.13.16l-.14.15a1.85 1.85 0 01-.14.14l-.15.12c-.63.46-.59.39-.37 1.13v.42a1.49 1.49 0 010 .21 1.48 1.48 0 010 .21v1.64a2.34 2.34 0 000 .26v2.25a2.91 2.91 0 010 .31l.06.31c0 .11.05.21.08.32s.07.21.1.32.09.21.13.32l.15.33.18.32c.07.11.14.22.2.33l.24.33.32.4v1.25c0 .13 0 .24.05.36l.06.35.09.34.11.32a2.88 2.88 0 01.13.31 2.59 2.59 0 01.14.29c.06.09.11.18.16.27l.17.27a2.2 2.2 0 01.17.25l.19.24.19.23c.06.08.13.15.19.22l.2.22.19.2c.07.07.13.14.2.2l.19.2.19.19.18.19.17.18.17.18.16.18.14.18.13.18.12.17.1.17.09.18c0 .05.05.11.07.17.25.74.19.68 1 .7h.42l.21.05.21.06.21.07.21.07.22.09.22.1.22.1.22.11.23.11.24.11.23.12.25.11.25.12.27.1.27.11.27.09.3.09.29.07.31.06h1.71l.37-.07.38-.09.39-.12.48-.18.45.19.38.13.37.1.36.07.36.05H18.66l.32-.06.3-.08.3-.09.29-.1.28-.1.28-.12.26-.11.26-.12.26-.13.25-.12.24-.11.23-.11.23-.11.23-.1.22-.09.22-.08.21-.07.2-.05H23.83c.79 0 .71 0 1-.7a1.08 1.08 0 00.08-.19 1.14 1.14 0 00.1-.19 1.74 1.74 0 00.11-.18 1.88 1.88 0 00.12-.18l.14-.18c.05 0 .09-.11.14-.17l.15-.17.16-.18a1.37 1.37 0 01.17-.17l.17-.18.36-.37.19-.18.18-.2.19-.2.18-.21.19-.23c.06-.07.11-.15.17-.23l.17-.24.17-.26.15-.27c.05-.1.09-.2.14-.29l.12-.3c0-.11.08-.22.11-.32l.09-.34c0-.12 0-.23.08-.35s0-.24 0-.37v-.78-.51l.32-.37.24-.31.21-.31.19-.32.15-.32.13-.33c0-.11.07-.21.1-.32s0-.21.08-.32l.06-.32v-.31a3 3 0 010-.31v-.61-.3-.58-.28-.27c0-.09 0-.36-.07-.53s0-.18 0-.26v-.5-.23a1.77 1.77 0 010-.23v-.42a1.5 1.5 0 000-.2 1.42 1.42 0 000-.2v-.18c.24-.74.25-.66-.37-1.13a1.07 1.07 0 00-.16-.14l-.15-.15a2.09 2.09 0 00-.14-.17l-.25-.23-.13-.18-.12-.19-.12-.2-.12-.2-.12-.21-.12-.21c-.07-.16-.15-.31-.23-.46l-.13-.23-.13-.23-.14-.24-.14-.24c-.06-.08-.11-.16-.16-.24l-.17-.24-.17-.23-.2-.24-.22-.19-.23-.22-.26-.21-.27-.2-.3-.19-.31-.18-.34-.16-.36-.15-.39-.13-.5-.13-.25-.43-.22-.32-.25-.29-.25-.27a3.07 3.07 0 00-.26-.25l-.27-.22-.28-.19-.29-.18-.29-.15L21 11l-.29-.12-.29-.1-.3-.09-.29-.07-.29-.07-.54-.13-.28-.05-.54-.1h-.26l-.25-.05h-.24l-.23-.06-.28-.16-.21-.07-.19-.07-.19-.08-.18-.09L16 9.6c-.65-.45-.57-.44-1.22 0zm1.52-.46l.13.08.14.07.16.07.17.06.18.06.21.06.21.05.23.05h.24l.26.05.54.09h.28l.58.12.31.07.31.08.31.09.32.11.31.13.32.15.32.16.32.19.31.22.3.25.29.27.28.3.27.32.24.35.15.24.3.09.41.14.4.16.37.17.34.19.33.21.3.22.28.24.26.24.23.24.22.26c.07.09.14.17.2.26l.18.25.17.26c.05.09.11.17.16.25l.14.25.14.24.12.24.24.44.11.22.12.2.11.19a1.74 1.74 0 01.11.18l.12.17.11.16.12.15a1.49 1.49 0 01.12.14l.13.12.13.12c.94.72.91.6.55 1.71V20.91a1.11 1.11 0 010 .17v.37a1.48 1.48 0 000 .21v.94c0 .17.05.35.08.53s0 .19 0 .28a2.89 2.89 0 000 .29v2.25l-.06.35-.09.36c0 .12-.07.24-.11.36s-.1.24-.14.35l-.18.36c-.06.12-.13.24-.2.36l-.23.34c-.09.12-.18.23-.26.35a1.8 1.8 0 00-.19.2v1.16c0 .14 0 .27-.05.4s-.05.26-.08.39l-.1.37-.12.35-.14.33-.15.32-.17.3-.18.28-.18.26-.19.26-.2.24a2 2 0 00-.19.22l-.2.21-.19.2c-.06.06-.12.13-.19.19l-.36.36-.16.18-.17.17-.15.16-.14.16a1 1 0 01-.13.16l-.12.16a1.3 1.3 0 01-.1.15l-.1.17-.08.15-.07.16c-.4 1.1-.29 1-1.48 1H23.08l-.19.06-.19.08-.2.08-.22.09-.22.1-.24.12-.24.11-.25.12-.26.13-.26.12-.28.12-.3.12L20 39l-.31.11-.32.09-.33.09-.34.06-.36.05H16.8l-.4-.08-.4-.17-.39-.15-.26-.11-.29.1-.42.13-.41.1-.41.07-.4.05H12.3l-.36-.05-.34-.06-.32-.08-.28-.09-.35-.06-.28-.11-.27-.11a2.06 2.06 0 01-.26-.12l-.26-.11-.24-.12-.24-.11-.22-.12-.22-.1-.22-.1-.2-.09-.24-.13-.19-.07-.19-.06h-.19l-.18-.05H6.9c-1.18 0-1.09 0-1.46-1.06l-.06-.14-.07-.14-.05-.26-.1-.15-.16-.13-.13-.17-.14-.16a1.29 1.29 0 00-.16-.17L4.44 35l-.17-.19-.19-.19-.2-.19-.19-.21-.21-.21-.2-.22-.2-.24-.2-.24a2.56 2.56 0 01-.2-.26l-.19-.27-.18-.28-.17-.31C2.08 32.12 2 32 2 31.91a3.45 3.45 0 01-.14-.34c0-.12-.08-.23-.13-.35l-.09-.37c0-.13-.05-.26-.08-.39s0-.27-.05-.4 0-.28 0-.42v-.71l-.19-.24-.26-.35C1 28.22.92 28.1.84 28s-.13-.24-.19-.36l-.17-.35-.14-.36c0-.12-.07-.24-.11-.35l-.09-.35-.06-.35v-.34-.33-.63V23.16a2.34 2.34 0 000-.26v-.71-.22a1.64 1.64 0 000-.22v-.4a1.28 1.28 0 000-.19v-.35-.17c-.33-1.12-.38-1 .58-1.7l.11-.1.12-.11.11-.13a1.71 1.71 0 00.11-.14l.12-.15a1.74 1.74 0 01.11-.18l.12-.18.12-.2.11-.21.31-.25.25-.47.14-.25.14-.26.15-.26c.06-.09.11-.18.17-.26s.11-.18.17-.27l.19-.26A2.56 2.56 0 013.4 15l.22-.26.24-.26.26-.25.28-.23.31-.22.29-.21.35-.19.37-.17.4-.15.42-.12.27-.06.19-.26.27-.34.29-.28.29-.3.29-.26.3-.24.31-.22.31-.19.31-.16.31-.15.32-.13.3-.1.31-.09.3-.08.29-.08.28-.06.27-.05H13l.22-.05h.21l.2-.06.19-.05.18-.36.17-.07.16-.08.15-.09c.98-.65.86-.67 1.82.01z"/><path class="cls-2" d="M15.29 31.7a.09.09 0 01-.09-.09.09.09 0 01.09-.08 7.2 7.2 0 002.14-.33 7.09 7.09 0 001.94-.93.09.09 0 11.1.14 7.32 7.32 0 01-2 1 7.21 7.21 0 01-2.19.33M18.82 18.46l.07-.06.12-.1a1.77 1.77 0 00-.12-.17 2 2 0 00-.21-.2.08.08 0 010-.05.06.06 0 01.06-.08 1.76 1.76 0 01.33 0 1.27 1.27 0 01-.06-.28v-.12a.36.36 0 00-.23 0 .28.28 0 00-.16.13.06.06 0 01-.06 0h-.09c-.13 0-.24 0-.29.23 0 .16.09.27.19.34l.05.05a.06.06 0 010 .06.23.23 0 00.13.16.4.4 0 00.27.09zm.09.14h-.08a.59.59 0 01-.32-.06.4.4 0 01-.21-.26.48.48 0 01-.24-.49c.08-.35.24-.35.44-.35h.05a.32.32 0 01.22-.16.83.83 0 01.35 0 .06.06 0 01.05.06.85.85 0 010 .17 1.18 1.18 0 00.1.36.07.07 0 010 .1H19V18a2.07 2.07 0 01.17.24.06.06 0 010 .1l-.16.13-.09.08z"/><path class="cls-2" d="M20.26 18.68l.06.09a.1.1 0 010 .13.14.14 0 01-.09 0l-.12-.07a1.41 1.41 0 00-.13-.24 1.28 1.28 0 01.32.09m-1 0a2.58 2.58 0 01-.38 0 .09.09 0 01-.09-.09.09.09 0 010-.08l.16-.13.1-.08-.12-.16c-.06-.07-.13-.13-.2-.2a.09.09 0 010-.13h.05a1.14 1.14 0 01.32 0 1.31 1.31 0 01-.06-.27 1.17 1.17 0 00-.05-.2.11.11 0 01.06-.12.1.1 0 01.09 0 2 2 0 01.52.75v.06c-.15-.05-.29-.06-.45.22a.4.4 0 00-.03.39z"/><path class="cls-2" d="M19.790000000000003 19.31h.16l.18-.07-.13-.3a3 3 0 00-.16-.31.09.09 0 010-.05.06.06 0 01.08-.06 1.86 1.86 0 01.37.1v-.37a.88.88 0 000-.16.68.68 0 00-.28-.07.31.31 0 00-.23.09.1.1 0 01-.07 0h-.11c-.15-.05-.28-.09-.42.17a.43.43 0 00.09.47l.05.07a.07.07 0 010 .05.33.33 0 00.1.24.54.54 0 00.37.18zm.05.16h-.08a.63.63 0 01-.34-.18.42.42 0 01-.14-.35v-.05a.53.53 0 01-.1-.62c.2-.37.39-.31.6-.24h.06a.49.49 0 01.3-.1.81.81 0 01.4.12.08.08 0 010 .07 1.49 1.49 0 010 .21 1.32 1.32 0 000 .44.08.08 0 01-.06.09l-.14-.06-.17-.06a1.42 1.42 0 01.08.18 2.19 2.19 0 01.12.33.08.08 0 01-.05.09l-.23.09-.13.05z"/><path class="cls-2" d="M20.41 19.64l-.26-.05a2.72 2.72 0 01-.43-.09.08.08 0 01-.06-.11.09.09 0 01.06-.06l.22-.09.16-.06a1.13 1.13 0 00-.08-.24 2.89 2.89 0 00-.15-.31.08.08 0 010-.12.09.09 0 01.07 0 1.92 1.92 0 01.37.11 2 2 0 010-.34 2.5 2.5 0 000-.25.09.09 0 01.09-.09.09.09 0 01.08 0 2.26 2.26 0 01.31 1c-.14-.07-.27-.09-.46.15a.48.48 0 000 .55"/><path class="cls-2" d="M20.82 20.38h.17-.13m0-.16h.35a2.2 2.2 0 00-.15-.6.07.07 0 01.09-.05 1.41 1.41 0 01.35.17 2.21 2.21 0 01.08-.35v-.16a.88.88 0 00-.26-.12.3.3 0 00-.24.06.11.11 0 01-.08 0l-.09-.17c-.14-.08-.26-.14-.44.09a.44.44 0 000 .48v.14a.28.28 0 00.05.25.63.63 0 00.24.19zm.44.08l-.41.08h-.08a.79.79 0 01-.31-.23.49.49 0 01-.08-.37v-.06a.56.56 0 010-.63c.27-.33.43-.24.63-.13h.05a.43.43 0 01.31-.05.72.72 0 01.37.18.11.11 0 010 .07l-.06.21a1.41 1.41 0 00-.08.43.08.08 0 01-.07.08l-.14-.08-.16-.09a2.59 2.59 0 01.11.54.08.08 0 01-.15.05z"/><path class="cls-2" d="M21.17 20.6h-.07a3.89 3.89 0 01-.41-.17.08.08 0 010-.12.08.08 0 01.07-.05H21.17a3 3 0 00-.15-.57.09.09 0 01.05-.12.06.06 0 01.06 0 2.81 2.81 0 01.35.17c0-.1 0-.22.08-.33s.05-.17.07-.24a.09.09 0 01.1-.08.11.11 0 01.07.06 2.44 2.44 0 01.15 1.06v.11c-.19-.13-.31-.31-.62 0a.39.39 0 00-.12.42"/><path class="cls-2" d="M21.48 21.36h.36v-.26a2.15 2.15 0 00-.05-.34.09.09 0 010-.05.07.07 0 01.1 0 2.18 2.18 0 01.31.22 2.52 2.52 0 01.15-.34l.06-.14a.63.63 0 00-.23-.17.39.39 0 00-.26 0 .09.09 0 01-.07 0l-.09-.07c-.12-.1-.23-.19-.45 0s-.11.32-.07.47a.44.44 0 010 .1v.05a.28.28 0 000 .25.63.63 0 00.2.23m0 .17l-.08-.05a.75.75 0 01-.25-.28.46.46 0 010-.38v-.08a.55.55 0 01.11-.62c.32-.28.47-.16.65 0h.05a.47.47 0 01.31 0 .78.78 0 01.34.25.08.08 0 010 .08l-.09.18a1.7 1.7 0 00-.16.42.06.06 0 01-.08.06l-.12-.1-.12-.06a1.21 1.21 0 010 .19.92.92 0 010 .16c0 .07-.08 0-.08.08a.08.08 0 01-.08.07v.12h-.35z"/><path class="cls-2" d="M21.8 21.81h-.07a4.2 4.2 0 01-.38-.24.08.08 0 010-.12.09.09 0 01.07 0h.42a1 1 0 000-.24 2.11 2.11 0 00-.05-.35.1.1 0 01.08-.1h.06a1.6 1.6 0 01.31.22c0-.11.09-.21.14-.32a1.46 1.46 0 00.1-.23.09.09 0 01.12-.05.09.09 0 01.06.06 2.4 2.4 0 010 1c-.17-.17-.25-.38-.62-.15s-.18.42-.18.6"/><path class="cls-2" d="M22 22.4h.3a1.32 1.32 0 00.05-.26 2 2 0 000-.35v-.05a.07.07 0 01.1 0 1.72 1.72 0 01.27.27 2 2 0 01.2-.31l.09-.13a.55.55 0 00-.2-.2.3.3 0 00-.25 0 .1.1 0 01-.07 0 .27.27 0 01-.07-.08c-.1-.11-.19-.22-.45-.06a.44.44 0 00-.15.45V21.83a.27.27 0 000 .25.54.54 0 00.15.25zm0 .17l-.07-.06a.83.83 0 01-.2-.32.51.51 0 01.05-.38v-.06a.57.57 0 01.22-.59c.36-.22.49-.07.64.1a.56.56 0 01.32.06.81.81 0 01.28.3v.08l-.12.17a1.75 1.75 0 00-.23.38.07.07 0 01-.09.05l-.1-.11-.18-.19a1.27 1.27 0 010 .2c0 .12 0 .24-.07.35a.07.07 0 01-.08.05h-.39z"/><path class="cls-2" d="M23 23.73a1.18 1.18 0 010 .2.09.09 0 01-.11.06.09.09 0 01-.07-.06c0-.1-.05-.2-.07-.29s.06-.19.09-.3a2.87 2.87 0 01.2.39m-.76-.83h-.05a3.31 3.31 0 01-.34-.3.09.09 0 010-.13.08.08 0 01.08 0H22.38c0-.08 0-.16.05-.25s0-.22 0-.34a.09.09 0 01.09-.09h.06a1.34 1.34 0 01.26.27 2.4 2.4 0 01.19-.29c.05-.07.1-.14.14-.21a.09.09 0 01.12 0s.05 0 .05.07a2.47 2.47 0 01-.22 1.05.47.47 0 00-.06.15c-.09-.18-.15-.35-.52-.25a.41.41 0 00-.35.32z"/><path class="cls-2" d="M22.17 23.71v.05h.11l.18.08a2.56 2.56 0 00.11-.24c0-.11.08-.22.11-.33a.08.08 0 01.1 0 1.38 1.38 0 01.18.34 1.61 1.61 0 01.28-.24l.12-.1a.56.56 0 00-.14-.25A.33.33 0 0023 23a.08.08 0 01-.06 0 .93.93 0 010-.1c-.07-.14-.13-.27-.42-.18s-.23.24-.27.39v.09a.05.05 0 010 .05.28.28 0 00-.1.23.62.62 0 00-.01.25zm-.07.15l-.1-.05a.7.7 0 01-.11-.37.44.44 0 01.15-.35V23c0-.19.09-.43.37-.51s.49.06.59.26v.06a.5.5 0 01.28.14.89.89 0 01.2.37.11.11 0 010 .07l-.16.13a1.58 1.58 0 00-.32.31.09.09 0 01-.11 0c0-.05-.05-.1-.07-.14s-.05-.12-.07-.17l-.07.18a3.18 3.18 0 01-.16.32.08.08 0 01-.1 0l-.22-.1-.13-.06v.02z"/><path class="cls-2" d="M22.86 24.85v.18a2.08 2.08 0 01-.19.43.09.09 0 01-.12 0 .11.11 0 01-.05-.09.49.49 0 010-.12 2.18 2.18 0 00.36-.52v.09m-.56-.47l-.12-.18c-.08-.12-.17-.25-.24-.37a.1.1 0 010-.12.1.1 0 01.09 0 1.12 1.12 0 00.22.1l.16.07a1.47 1.47 0 00.1-.22 1.6 1.6 0 00.11-.33.09.09 0 01.11-.06.09.09 0 01.05 0 1.86 1.86 0 01.19.34 2.75 2.75 0 01.26-.22l.19-.17a.09.09 0 01.13 0 .08.08 0 010 .08 2.35 2.35 0 01-.44.88c-.05-.16-.11-.28-.42-.26s-.31.33-.39.49z"/><path class="cls-2" d="M22.15 25a.08.08 0 000 .05l.09.07.15.12a2.45 2.45 0 00.35-.5.08.08 0 01.1 0 1.54 1.54 0 01.09.37 2 2 0 01.32-.17l.15-.07a.65.65 0 00-.08-.28.31.31 0 00-.2-.15h-.05a.61.61 0 010-.11c0-.16-.06-.29-.36-.28s-.29.18-.35.32a.36.36 0 000 .09.05.05 0 01-.05 0 .28.28 0 00-.15.2.61.61 0 000 .3m-.11.13L22 25a.73.73 0 010-.39.43.43 0 01.23-.3v-.05c.08-.17.18-.39.47-.4s.47.18.51.4v.06a.48.48 0 01.24.2.72.72 0 01.1.4v.07l-.19.09a1.59 1.59 0 00-.39.22.08.08 0 01-.11 0v-.15a1.29 1.29 0 000-.19 1 1 0 01-.11.17 3 3 0 01-.23.27.07.07 0 01-.1 0l-.2-.15-.11-.08z"/><path class="cls-2" d="M22.19 25.77c0-.1-.07-.2-.11-.31a3.52 3.52 0 01-.15-.42.09.09 0 01.07-.11.08.08 0 01.08 0 2.07 2.07 0 00.2.15l.13.1a1.46 1.46 0 00.16-.19l.18-.29a.09.09 0 01.12 0l.05.05a1.54 1.54 0 01.09.37l.31-.16a2.25 2.25 0 00.22-.11.1.1 0 01.13 0 .07.07 0 010 .09 2.48 2.48 0 01-.71.8h-.05a.47.47 0 00-.25-.16.43.43 0 00-.47.13"/><path class="cls-2" d="M21.67 26.37v.05l.06.1.1.16a1 1 0 00.23-.12 2.83 2.83 0 00.28-.2h.05a.08.08 0 01.08.07 1.76 1.76 0 01-.06.38 2.1 2.1 0 01.36 0H23a.7.7 0 000-.29.33.33 0 00-.12-.21.06.06 0 010-.07v-.11c0-.04.06-.29-.22-.39a.45.45 0 00-.44.17l-.07.06h-.06a.27.27 0 00-.22.13.56.56 0 00-.1.28zm-.15.07a.28.28 0 010-.09.74.74 0 01.12-.36.44.44 0 01.36-.19h.05a.54.54 0 01.6-.19c.39.15.36.33.32.56v.06a.49.49 0 01.15.28.82.82 0 01-.06.41.08.08 0 01-.06 0h-.22a1.56 1.56 0 00-.44 0 .06.06 0 01-.09 0v-.15a1.06 1.06 0 010-.19l-.17.11a1.37 1.37 0 01-.32.16.07.07 0 01-.09 0l-.12-.21-.06-.11s.08-.08.07-.09z"/><path class="cls-2" d="M21.27 28l-.18.09A.09.09 0 0121 28a.07.07 0 010-.09l.16-.21c0 .08.08.18.12.26m.17-.78v-.41-.44a.1.1 0 01.11-.08l.07.05.12.21.09.15a2.25 2.25 0 00.21-.12 1.79 1.79 0 00.28-.2.09.09 0 01.13 0 .07.07 0 010 .06 1.65 1.65 0 01-.05.38 1.87 1.87 0 01.34 0H23a.09.09 0 01.08.15 1.9 1.9 0 01-.63.36c0-.09-.09-.17-.26-.26s-.47.07-.61.17a.37.37 0 00-.21 0z"/><path class="cls-2" d="M21.22 27.62v.16a1.22 1.22 0 01.07.17l.25-.1.3-.17h.05a.08.08 0 01.07.08 1.7 1.7 0 01-.1.37 2.32 2.32 0 01.37 0h.15a.72.72 0 00.07-.28.32.32 0 00-.1-.23.06.06 0 010-.07v-.11c0-.15.08-.28-.18-.42s-.34 0-.47.12h-.16a.29.29 0 00-.23.1.54.54 0 00-.14.27m-.15.07v-.09a.68.68 0 01.17-.35.45.45 0 01.34-.15h.05a.53.53 0 01.61-.13c.38.19.33.38.26.59v.07a.49.49 0 01.12.29.8.8 0 01-.11.4.07.07 0 01-.07 0h-.21a1.62 1.62 0 00-.44 0 .07.07 0 01-.09-.05.88.88 0 00.05-.15l.06-.18-.18.1a2.19 2.19 0 01-.33.12.08.08 0 01-.09 0 1.46 1.46 0 00-.1-.23l-.05-.12.06-.01z"/><path class="cls-2" d="M20.84 29a2 2 0 01-.42.19.08.08 0 01-.08 0 2.34 2.34 0 00.5-.19zm.05-.77c0-.09 0-.18.05-.27s0-.3.07-.43a.09.09 0 01.11-.07.11.11 0 01.07.06c0 .06.06.14.09.22a1.11 1.11 0 01.07.16l.23-.09.3-.17a.09.09 0 01.13 0 .08.08 0 010 .07 1.81 1.81 0 01-.09.37h.34a1.09 1.09 0 00.25 0 .09.09 0 01.09.09.08.08 0 010 .08 2.41 2.41 0 01-1 .36h-.11c0-.13 0-.26-.21-.41a.4.4 0 00-.39.07z"/><path class="cls-2" d="M20.15 28.82v.16a1.21 1.21 0 01.05.18l.26-.07a1.83 1.83 0 00.32-.14h.05s.06 0 .06.08a1.78 1.78 0 01-.14.36 2.23 2.23 0 01.36 0h.16a.58.58 0 00.09-.28.29.29 0 00-.07-.23.08.08 0 010-.08.3.3 0 000-.1c.06-.15.11-.27-.14-.44a.42.42 0 00-.47.07h-.18a.28.28 0 00-.24.08.57.57 0 00-.16.26m-.16 0v-.09a.69.69 0 01.21-.32.43.43 0 01.36-.12.55.55 0 01.63-.06c.35.23.28.41.19.62v.05a.52.52 0 01.08.31.78.78 0 01-.15.39.08.08 0 01-.07 0h-.2a1.79 1.79 0 00-.45 0 .08.08 0 01-.08-.07l.07-.14c.02-.04.05-.11.07-.17l-.18.07a2 2 0 01-.35.09s-.07 0-.08-.06 0-.15-.07-.23 0-.09-.05-.12z"/><path class="cls-2" d="M19.54 30.22a1.61 1.61 0 01-.36.1.08.08 0 01-.1-.07.09.09 0 010-.09 1.22 1.22 0 00.17-.15 1 1 0 010 .22h.23m.21-.77c0-.09.05-.19.08-.29a3 3 0 01.12-.43.09.09 0 01.12-.05.1.1 0 01.05.06c0 .07.05.15.07.24l.06.16.24-.07a2 2 0 00.31-.13.08.08 0 01.12 0v.06a1.55 1.55 0 01-.13.36l.33.05h.25a.11.11 0 01.09.1.08.08 0 010 .07 2.1 2.1 0 01-.75.23c0-.11 0-.23-.16-.4s-.47 0-.64 0a.28.28 0 00-.1.03z"/><path class="cls-2" d="M19.37 29.81v.11a1 1 0 010 .17 1.9 1.9 0 00.25 0A1.32 1.32 0 0020 30a.09.09 0 01.05.11 1.68 1.68 0 01-.2.34l.32.11h.14a.56.56 0 00.13-.24.32.32 0 000-.23.07.07 0 010-.09l.05-.1c.09-.13.16-.24-.05-.43a.41.41 0 00-.45 0h-.19a.27.27 0 00-.23 0 .61.61 0 00-.2.22zm-.2 0v-.08a.67.67 0 01.26-.29.45.45 0 01.39-.06h.05a.53.53 0 01.63.06c.32.3.22.46.09.66v.05a.48.48 0 010 .31.87.87 0 01-.22.37.1.1 0 01-.09 0l-.2-.07a2.1 2.1 0 00-.42-.12.1.1 0 01-.08-.14l.09-.13.08-.11h-.15a1.46 1.46 0 01-.36 0 .08.08 0 01-.09-.08v-.38z"/><path class="cls-2" d="M18.79 30.46c.07-.11.12-.25.18-.37a3.73 3.73 0 01.2-.4.09.09 0 01.12 0 .1.1 0 01.05.08v.24a1.11 1.11 0 010 .17 1.9 1.9 0 00.25 0A1.32 1.32 0 0020 30a.11.11 0 01.12.06v.06a1.68 1.68 0 01-.2.34l.32.11.24.08a.09.09 0 01.07.11.12.12 0 01-.07.07 2.54 2.54 0 01-1.06.06h-.36c-.15.06-.29.12-.43.16a1.88 1.88 0 01-.46.06.09.09 0 010-.17c.13-.07.25-.15.37-.23a2.78 2.78 0 00.32-.26M17.44 17.63l.06-.06a.76.76 0 01.09-.09.8.8 0 00-.13-.13l-.19-.16a.06.06 0 010-.08 1.35 1.35 0 01.28 0 2.34 2.34 0 01-.09-.24.42.42 0 000-.1.63.63 0 00-.19 0 .23.23 0 00-.12.12.07.07 0 01-.05 0H17c-.11 0-.21 0-.22.23s.11.21.2.27h.06a.2.2 0 00.13.12.49.49 0 00.21 0zm.09.1h-.06a.44.44 0 01-.28 0 .29.29 0 01-.21-.19c-.12-.08-.27-.17-.26-.39s.17-.33.34-.34a.33.33 0 01.17-.16.59.59 0 01.29 0 .07.07 0 01.06 0s0 .1.05.14a1.18 1.18 0 00.13.3.06.06 0 010 .08h-.22l.09.08.18.19a.08.08 0 010 .09l-.12.12-.06.07z"/><path class="cls-2" d="M18.08 17.67l-.3.07a2.06 2.06 0 01-.32.07.08.08 0 01-.09-.07.11.11 0 010-.07 1.36 1.36 0 00.12-.12.6.6 0 01.08-.08.68.68 0 00-.12-.12l-.19-.16a.06.06 0 010-.1 1.15 1.15 0 01.26 0 1.87 1.87 0 01-.07-.22c0-.06 0-.12-.07-.17a.08.08 0 010-.11.11.11 0 01.08 0 1.69 1.69 0 01.52.58l.14.22a.34.34 0 01.12.16.25.25 0 00-.2.15z"/><path class="cls-3" d="M15.56 31.62a4 4 0 012.44.68l-.5.06a3.84 3.84 0 00-1.92-.74m-.59 0a4 4 0 00-2.42.68l.5.06a3.88 3.88 0 011.93-.74z"/><path class="cls-2" d="M15.35 31.53a.09.09 0 01.09.09.1.1 0 01-.09.1 7.48 7.48 0 01-3.23-14.22l.19-.09.2-.09a.1.1 0 01.12.05.1.1 0 01-.05.13l-.19.08-.19.09a7.3 7.3 0 00-3 2.7 7.29 7.29 0 006.17 11.16"/><path class="cls-2" d="M13.9 17a1.42 1.42 0 00-.46 0 1.68 1.68 0 00-.69.4l-.08.06a1.3 1.3 0 00.44.06 1 1 0 00.65-.24l.09-.07.24-.17h-.19m-.49-.17a1.51 1.51 0 01.52 0 1.3 1.3 0 01.47.16.11.11 0 010 .13.1.1 0 01-.09 0c-.1 0-.23.11-.37.22l-.1.07a1.25 1.25 0 01-.75.28 2 2 0 01-.69-.12.09.09 0 01-.06-.12v-.05l.22-.17a1.88 1.88 0 01.85-.49zM12.54 17.93a1.06 1.06 0 00-.35-.05 1.52 1.52 0 00-.57.23l.29.08a.83.83 0 00.51-.11l.08-.05.16-.09h-.09m-.36-.23a1.13 1.13 0 01.41.05.89.89 0 01.35.18.09.09 0 010 .13.09.09 0 01-.09 0 .62.62 0 00-.3.12l-.08.05a.91.91 0 01-.62.13 1.52 1.52 0 01-.52-.17.09.09 0 01-.05-.12.12.12 0 01.05-.05l.19-.11a1.56 1.56 0 01.63-.22z"/><path class="cls-2" d="M11.92 16.88a1.19 1.19 0 00-.31.28 1.52 1.52 0 00-.22.68v.07a1.77 1.77 0 00.32-.21 1 1 0 00.29-.54.52.52 0 010-.11 1.72 1.72 0 010-.24l-.12.07m-.46.17a1.56 1.56 0 01.35-.33 1.16 1.16 0 01.41-.16.09.09 0 01.11.08.08.08 0 010 .08.61.61 0 00-.12.36v.11a1.11 1.11 0 01-.35.65 1.92 1.92 0 01-.53.32.09.09 0 01-.12 0 .17.17 0 010-.07 1.84 1.84 0 000-.25 1.82 1.82 0 01.29-.79zM10.6 17.69a1.43 1.43 0 00-.24.31 1.54 1.54 0 00-.11.69v.06a1 1 0 00.26-.25.88.88 0 00.19-.56v-.11a1.69 1.69 0 010-.23l-.11.09m-.41.23a1.28 1.28 0 01.29-.37 1.1 1.1 0 01.36-.23.1.1 0 01.12.06.08.08 0 010 .09.72.72 0 000 .36v.11a1.15 1.15 0 01-.23.68 1.92 1.92 0 01-.46.4.09.09 0 01-.13 0v-.26a1.79 1.79 0 01.06-.84z"/><path class="cls-2" d="M11.26 18.56a1 1 0 00-.34.05 1.27 1.27 0 00-.5.35 1 1 0 00.3 0 .81.81 0 00.47-.22.23.23 0 01.07-.07.8.8 0 01.13-.13h-.1m-.4-.14a1.44 1.44 0 01.41-.05.89.89 0 01.38.1.08.08 0 010 .12.08.08 0 01-.08.05c-.07 0-.16.1-.25.19a.46.46 0 01-.07.07 1 1 0 01-.58.28 1.94 1.94 0 01-.54 0 .1.1 0 01-.06-.16.07.07 0 010-.06l.16-.15a1.64 1.64 0 01.6-.37zM9.48 18.68a1.57 1.57 0 00-.24.41 1.92 1.92 0 000 .83v.11a1.7 1.7 0 00.29-.36 1 1 0 00.14-.7v-.12a1.8 1.8 0 010-.31.93.93 0 00-.14.14m-.47.32a1.69 1.69 0 01.27-.47 1.41 1.41 0 01.39-.32.1.1 0 01.13.05.1.1 0 010 .09.79.79 0 000 .44.69.69 0 010 .13 1.33 1.33 0 01-.16.82 2.22 2.22 0 01-.48.53.09.09 0 01-.13 0 .14.14 0 010-.06v-.29a2 2 0 01-.02-.92z"/><path class="cls-2" d="M10.27 19.5a.94.94 0 00-.36.11 1.38 1.38 0 00-.47.46v.05a1.27 1.27 0 00.34 0 .91.91 0 00.47-.33l.06-.09a1.09 1.09 0 01.13-.17h-.13zm-.45-.06a1.33 1.33 0 01.43-.13.93.93 0 01.41 0 .09.09 0 01.06.12.11.11 0 01-.07.06c-.08 0-.16.13-.24.25l-.07.09a1 1 0 01-.56.4 2.28 2.28 0 01-.58 0c-.05 0-.1 0-.09-.1a.14.14 0 010-.06 1.57 1.57 0 00.18-.07 1.65 1.65 0 01.53-.56zM9.64 20.63a1.2 1.2 0 00-.42.17 1.68 1.68 0 00-.51.6v.08a1.45 1.45 0 00.41-.1 1 1 0 00.47-.38l.07-.11a1.82 1.82 0 01.15-.23h-.17m-.53 0a1.47 1.47 0 01.49-.19 1.17 1.17 0 01.49 0 .1.1 0 01.07.12.09.09 0 01-.06.08c-.1 0-.18.17-.27.32l-.06.1a1.29 1.29 0 01-.61.52 2.08 2.08 0 01-.68.12.11.11 0 01-.11-.09.14.14 0 010-.07l.15-.24a2 2 0 01.59-.7z"/><path class="cls-2" d="M8.4 20a1.36 1.36 0 00-.15.47 1.94 1.94 0 00.17.84.56.56 0 000 .12 2 2 0 00.26-.43 1.19 1.19 0 000-.74.83.83 0 000-.12 2.74 2.74 0 01-.1-.31 1.08 1.08 0 00-.18.17m-.34.45a1.43 1.43 0 01.17-.53 1.24 1.24 0 01.31-.42.09.09 0 01.13 0 .08.08 0 010 .09.83.83 0 00.09.45 1.12 1.12 0 01.05.13 1.32 1.32 0 010 .85 2.27 2.27 0 01-.36.65.09.09 0 01-.13 0 .09.09 0 010-.05c0-.09-.07-.19-.1-.29a2 2 0 01-.16-.89zM8.93 22.14a1.34 1.34 0 00-.38.28 1.87 1.87 0 00-.36.75v.11a1.65 1.65 0 00.42-.21 1.05 1.05 0 00.39-.59 1 1 0 000-.12 2.11 2.11 0 01.1-.3 1 1 0 00-.19.08m-.52.15a1.55 1.55 0 01.46-.29 1.35 1.35 0 01.49-.14.09.09 0 01.09.09.07.07 0 010 .08.79.79 0 00-.19.4 1.3 1.3 0 010 .13 1.25 1.25 0 01-.48.69 2.12 2.12 0 01-.65.3.09.09 0 01-.12-.06v-.09a1.52 1.52 0 00.01-.28 2.07 2.07 0 01.41-.83z"/><path class="cls-2" d="M7.58 21.86a1.63 1.63 0 000 .49 1.94 1.94 0 00.33.79.61.61 0 00.07.1 1.55 1.55 0 00.12-.47 1.05 1.05 0 00-.17-.72l-.07-.11a2.09 2.09 0 01-.16-.29 1.29 1.29 0 00-.07.21m-.24.5a1.72 1.72 0 01.06-.55 1.29 1.29 0 01.23-.47.09.09 0 01.13 0 .07.07 0 010 .08.84.84 0 00.18.43A.49.49 0 018 22a1.3 1.3 0 01.2.84 2.29 2.29 0 01-.22.7.09.09 0 01-.12.05h-.05c0-.09-.1-.18-.15-.27a2 2 0 01-.32-.96zM8.6 23.89a1.68 1.68 0 00-.3.4 1.92 1.92 0 00-.11.87v.13a1.75 1.75 0 00.36-.36 1.11 1.11 0 00.22-.71v-.14a1.9 1.9 0 010-.34c-.06.05-.12.09-.18.15m-.47.32a2.19 2.19 0 01.34-.46 1.29 1.29 0 01.44-.29.09.09 0 01.12.06.1.1 0 010 .09H9a.73.73 0 00-.06.47v.14a1.35 1.35 0 01-.26.83 2.21 2.21 0 01-.56.5.09.09 0 01-.13 0 .07.07 0 010-.06v-.31a2 2 0 01.14-.97z"/><path class="cls-2" d="M7.07 24a1.66 1.66 0 00.14.54 2.13 2.13 0 00.61.7l.1.09a1.75 1.75 0 000-.56 1.3 1.3 0 00-.43-.69L7.33 24a2.05 2.05 0 01-.26-.24 1 1 0 000 .25m0 .61a2.32 2.32 0 01-.19-.62 1.48 1.48 0 010-.57.09.09 0 01.12-.06.08.08 0 01.07.07c0 .13.18.25.34.38l.11.1a1.42 1.42 0 01.49.78 2.8 2.8 0 01.06.81.1.1 0 01-.1.09.08.08 0 01-.06 0H8l-.25-.22a2.27 2.27 0 01-.75-.79zM8.86 25.8a1.68 1.68 0 00-.19.53 2.13 2.13 0 00.15 1 .75.75 0 010 .16 1.82 1.82 0 00.28-.51 1.23 1.23 0 000-.83c0-.07 0-.11-.05-.15a2.06 2.06 0 01-.1-.37.86.86 0 00-.09.17zm-.37.5a1.79 1.79 0 01.2-.59 1.51 1.51 0 01.37-.45.09.09 0 01.13 0 .08.08 0 010 .09 1 1 0 00.09.52 1.31 1.31 0 01.05.15 1.46 1.46 0 010 .95 2.51 2.51 0 01-.42.71.09.09 0 01-.13 0 2.07 2.07 0 00-.1-.33 2.35 2.35 0 01-.19-1.05z"/><path class="cls-2" d="M7.27 26.31a2.31 2.31 0 00.31.53 2.37 2.37 0 00.87.54l.16.07a2.36 2.36 0 00-.24-.59 1.38 1.38 0 00-.68-.59l-.14-.06a2.55 2.55 0 01-.37-.21 1.52 1.52 0 00.09.28m.17.65a2.57 2.57 0 01-.35-.57 1.81 1.81 0 01-.09-.58.1.1 0 01.1-.09.1.1 0 01.08 0 1.07 1.07 0 00.48.29l.15.07a1.61 1.61 0 01.76.66 3.06 3.06 0 01.31.84.09.09 0 01-.07.11.07.07 0 01-.06 0l-.33-.15a2.5 2.5 0 01-.98-.51zM9.55 27.45a1.54 1.54 0 00-.07.56 2 2 0 00.37.89 1.09 1.09 0 00.08.15 2.23 2.23 0 00.16-.56 1.27 1.27 0 00-.18-.82l-.08-.12a2.9 2.9 0 01-.19-.34 1.06 1.06 0 00-.09.25M9.3 28a1.87 1.87 0 01.06-.62 1.43 1.43 0 01.27-.52.09.09 0 01.13 0v.09a.87.87 0 00.2.49l.08.13a1.5 1.5 0 01.21.93 2.72 2.72 0 01-.26.79.09.09 0 01-.12 0 .1.1 0 01-.05 0c0-.11-.11-.2-.16-.3A2.13 2.13 0 019.3 28z"/><path class="cls-2" d="M8.12 28.32a2 2 0 00.43.43 2.31 2.31 0 001 .31h.16a2.29 2.29 0 00-.37-.51 1.46 1.46 0 00-.81-.41h-.15a2.36 2.36 0 01-.4-.08 1.75 1.75 0 00.16.25m.32.58a2.14 2.14 0 01-.46-.46 1.56 1.56 0 01-.27-.55.11.11 0 01.07-.12.1.1 0 01.09 0 .92.92 0 00.53.17h.15a1.57 1.57 0 01.91.45 3.06 3.06 0 01.51.74.1.1 0 010 .12.06.06 0 01-.07 0l-.35-.06a2.34 2.34 0 01-1.13-.28zM10.81 28.94a1.51 1.51 0 00.07.56 2.18 2.18 0 00.55.79.63.63 0 01.11.12 1.62 1.62 0 000-.58 1.2 1.2 0 00-.35-.75l-.1-.1a3.25 3.25 0 01-.26-.3 2.19 2.19 0 000 .27m-.11.61a1.6 1.6 0 01-.07-.62 1.36 1.36 0 01.13-.56.09.09 0 01.18 0c0 .13.15.28.3.43l.11.11a1.46 1.46 0 01.41.86 2.49 2.49 0 01-.07.82.09.09 0 01-.11.07h-.05l-.24-.26a2.21 2.21 0 01-.61-.86z"/><path class="cls-2" d="M9.58 30.2a2.13 2.13 0 00.53.3 2.32 2.32 0 001 .06h.17a2.38 2.38 0 00-.49-.4 1.53 1.53 0 00-.86-.16h-.16a1.91 1.91 0 01-.41 0 2.18 2.18 0 00.22.21m.46.48a2.4 2.4 0 01-.58-.33 2 2 0 01-.41-.47.11.11 0 010-.13.12.12 0 01.1 0 .91.91 0 00.56 0h.16a1.57 1.57 0 011 .21 3.2 3.2 0 01.68.58.09.09 0 010 .13.07.07 0 01-.06 0 2.19 2.19 0 00-.36 0 2.6 2.6 0 01-1.13 0z"/><path class="cls-3" d="M22.81 31.75l-.68-.41.34.71zm1 .18l-.27.25-.42-.25-.5.45.21.44-.26.24-.89-2 .27-.24zM22 33.43l-1-1.33-.39.3-.21-.27 1.05-.82.21.27-.39.31 1 1.34zm-2.36 0l.23-.12a1.29 1.29 0 00.24-.15.23.23 0 00.06-.12.3.3 0 00-.05-.17.4.4 0 00-.1-.12.23.23 0 00-.14 0l-.25.12-.23.12zm.26 1.2l-1-1.81.63-.33a1 1 0 01.37-.13.38.38 0 01.26.08.6.6 0 01.22.25.64.64 0 01.08.39.53.53 0 01-.2.32.86.86 0 01.23.06 1.65 1.65 0 01.33.21l.37.25-.36.19-.42-.28-.3-.18a.21.21 0 00-.13 0 .47.47 0 00-.16.05h-.06l.4.75zm-1.36-.4l-.45-.66v.79zm.83.59l-.36.1-.27-.4-.64.2v.48l-.34.11v-2.14l.34-.11zm-3.51.73l-.21-2h.33l.09.9.59-1h.45l-.54.86.79 1.17h-.43l-.56-.9-.24.37.06.61zm-1.13-.84l-.12-.71-.29.74zm.56.86h-.37l-.1-.48-.63-.09-.18.45h-.36l.83-2h.36zm-3-.45l.22-.83-.22-1.29.38.1.17.89.58-.68.38.1-.9 1-.22.83zm-1.41-1.33l.15-.3.66.31-.36.73a.86.86 0 01-.38.07 1 1 0 01-.4-.1.72.72 0 01-.34-.3.75.75 0 01-.11-.46 1.24 1.24 0 01.15-.56 1.34 1.34 0 01.35-.47.88.88 0 01.42-.19.78.78 0 01.44.08.68.68 0 01.36.35.71.71 0 010 .5l-.33-.08a.41.41 0 000-.27.39.39 0 00-.18-.18.41.41 0 00-.39 0 .85.85 0 00-.34.41.9.9 0 00-.12.56.42.42 0 00.23.3.46.46 0 00.21 0 .83.83 0 00.22 0l.12-.24zm-2-1.54a.9.9 0 00-.21.5.4.4 0 00.16.34.35.35 0 00.37.06.87.87 0 00.43-.35.85.85 0 00.21-.49.41.41 0 00-.12-.31.41.41 0 00-.37-.06.9.9 0 00-.43.34zm-.28-.2a1.41 1.41 0 01.45-.41.79.79 0 01.43-.11.75.75 0 01.41.16.71.71 0 01.3.57 1.16 1.16 0 01-.29.76 1.24 1.24 0 01-.67.5.78.78 0 01-.92-.69 1.24 1.24 0 01.33-.75zM7 31.88l.64-.57.47-1.25.26.3-.37.83.86-.25.26.29-1.3.33-.63.57zM24.56 26l2 .57-.09.32-.78-.22-.18.64.77.22-.09.32-2-.56.09-.33.86.25.18-.64-.85-.24zm.9-.71l.78-.15-.73-.3zm-.87.53v-.36l.48-.1.07-.66-.45-.19v-.35l2 .86v.35zm.11-2.62h.86l1.15-.67v.39l-.79.44.83.34v.39l-1.22-.55h-.85zm-.17-1.08l2-.39.06.33-2 .39zm1.22-1.83l-1.28.44.09.24a.51.51 0 00.1.21.22.22 0 00.13.08.46.46 0 00.21 0 1.46 1.46 0 00.34-.08 1.75 1.75 0 00.33-.15.49.49 0 00.16-.16.3.3 0 000-.18 1.32 1.32 0 00-.07-.27zm.25-.39l.2.58a.87.87 0 01.06.35.58.58 0 01-.09.27.89.89 0 01-.26.25 1.5 1.5 0 01-.44.21 1.74 1.74 0 01-.46.1.87.87 0 01-.34-.05.51.51 0 01-.23-.15.85.85 0 01-.17-.3l-.2-.6zm-1.57-.45l.55-.57-.77.17zm-.41.94l-.18-.32.34-.35-.32-.59-.48.1-.17-.31 2.1-.42.17.32zm-2-2.85l1.54-1.34.34.38-.9 1.14 1.29-.72.33.39-1.53 1.33-.21-.23 1.21-1.05-1.43.8-.21-.24 1-1.3-1.21 1.05zm-1.49-1.23l1.23-1.63.4.31-.6 1.29 1.08-.93.41.3-1.23 1.63-.25-.18 1-1.28-1.27 1.08-.3-.2.71-1.48-1 1.28zm-.31-1.14l.13-.77-.54.57zm.18 1l-.33-.17.09-.48-.6-.3-.33.35-.32-.17 1.51-1.52.31.16zm-3-1.2l.6-2 .32.1-.23.76.63.2.23-.77.33.1-.6 1.95-.32-.1.26-.85-.64-.2-.26.86zm-1.5-2.21h.34l-.08 1.1a2.06 2.06 0 000 .33.3.3 0 00.09.22.34.34 0 00.21.09.4.4 0 00.2 0 .26.26 0 00.11-.14 1.74 1.74 0 000-.39l.08-1.13h.34l-.07 1.08a3.38 3.38 0 01-.09.58.53.53 0 01-.22.29.72.72 0 01-.41.08.7.7 0 01-.4-.12.51.51 0 01-.19-.28 1.86 1.86 0 010-.63zm-2.09 2.1l-.15-2h.51l.4 1.37.2-1.41h.51l.14 2h-.31L15 13.17l-.23 1.62h-.32L14 13.24l.11 1.6zm-2.39 0l.31-.14c.11.24.27.32.46.26a.34.34 0 00.21-.15.28.28 0 000-.22.36.36 0 00-.07-.1.28.28 0 00-.11-.05h-.32a1.08 1.08 0 01-.35 0 .6.6 0 01-.21-.14.72.72 0 01-.14-.24.65.65 0 010-.31.51.51 0 01.14-.26.73.73 0 01.29-.16.63.63 0 01.49 0 .64.64 0 01.31.38l-.32.12a.39.39 0 00-.16-.19.33.33 0 00-.22 0 .32.32 0 00-.18.12.16.16 0 000 .16.21.21 0 00.11.12 1.25 1.25 0 00.33 0 1.15 1.15 0 01.4 0 .65.65 0 01.23.15.82.82 0 01.15.28.63.63 0 010 .47.66.66 0 01-.43.33q-.63.26-.92-.39zm-.83.29l-.59-.51.17.78zm.94.41l-.32.18-.36-.34-.58.33.11.47-.32.17-.42-2.1.31-.17zM9.38 17l-1-1.36-.4.3-.21-.27 1.07-.8.21.27-.4.3 1 1.35zm-.75.72l-1.46-1.44.23-.28 1.47 1.42zm-1.56.83l.18-.28c.22.13.4.12.53 0a.27.27 0 00.09-.27.26.26 0 00-.1-.2.27.27 0 00-.11-.05.27.27 0 00-.12 0l-.27.16a1 1 0 01-.31.16.57.57 0 01-.26 0 .47.47 0 01-.24-.13.61.61 0 01-.19-.24.42.42 0 010-.29.71.71 0 01.15-.3.61.61 0 01.41-.26.63.63 0 01.47.15l-.2.28a.35.35 0 00-.24-.07.32.32 0 00-.18.12.32.32 0 00-.09.2.2.2 0 00.06.15.22.22 0 00.16 0 1 1 0 00.29-.16 1.38 1.38 0 01.35-.19.61.61 0 01.27 0 .64.64 0 01.28.15.66.66 0 01.25.41.7.7 0 01-.18.51.66.66 0 01-1 .12zM6 19.52l.11-.23A1.16 1.16 0 006.2 19a.28.28 0 000-.13.25.25 0 00-.2-.08.31.31 0 00-.15 0 .17.17 0 00-.12.05 1 1 0 00-.15.24l-.12.23zm.88.85l-1.8-1 .33-.63a1 1 0 01.23-.32.45.45 0 01.26-.08.65.65 0 01.32.09.61.61 0 01.29.28.52.52 0 010 .37.75.75 0 01.23-.07 2 2 0 01.39 0h.44l-.18.35h-.54a2.18 2.18 0 00-.35 0 .22.22 0 00-.12 0 .33.33 0 00-.1.14v.06l.75.4zm-.53 1.47l-1.93-.67.37-1.17.32.11-.29.89.42.14.28-.79.32.11-.27.8.52.18.31-.89.32.12zM6.12 23L4 23.26v-.37l1.56-.21-1.44-.61.05-.36 1.94.88zm-.07 1H4v-.33l2 .07zm.11 1.67l-2 .22v-.33l1.28-.82-1.44.17v-.31l2-.22v.34l-1.26.81 1.33-.14zm-1.54 2.2l-.09-.33 1.06-.28.33-.1a.33.33 0 00.17-.16.3.3 0 000-.23.29.29 0 00-.09-.17.23.23 0 00-.16-.06 1.77 1.77 0 00-.39.07l-1.09.3-.09-.33 1-.28a3.49 3.49 0 01.59-.11.52.52 0 01.34.12.64.64 0 01.21.36.77.77 0 010 .42.54.54 0 01-.2.27 2.15 2.15 0 01-.59.23zM24.85 28.17l-.65.56-.73-.44.34.79-.65.56.85-.08.34.8.19-.84.85-.07-.73-.45.19-.83zM6.68 28.17l-.65.56-.74-.44.34.79-.65.56.86-.08.33.8.19-.84.86-.07-.74-.45.2-.83zM12.05 25.35l-.82.28.15-.2.63-.19a.36.36 0 000 .11m.1.29l-1.37.6.22-.3 1.1-.43a.69.69 0 01.09.13zm.18.35l-1.68 1h-.43l.26-.34 1.74-.87a2 2 0 00.15.22zm.17.26l-1 .67h-.37l1.26-.81a.83.83 0 00.15.14zm1.23-.87l-.18.13-.05-.08.18-.11zm-1.06 1.09l-.5.42h-.25l.67-.52zm1.16-1l-.17.14-.05-.06.17-.13zm-1 1.18l-.09.09h-.16v-.14l.11-.1a.52.52 0 01.2.19zm1.08-1.05l-.15.14-.06-.06.16-.15zm-.85 1.26l-.56.65v-.25l.44-.48zm1-1.15l-.14.17-.06-.05.15-.16zm-.74 1.34l-.88 1.21v-.37l.73-.93zm.87-1.23l-.12.18H14l.13-.16zm-.54 1.44l-.9 1.74-.37.24.05-.44 1.06-1.62a2.12 2.12 0 00.2.12zm.77-1.26l-.1.19-.13-.08.12-.18zm-.46 1.45l-.48 1.07-.32.21.67-1.34zm.62-1.37l-.09.19h-.08l.1-.2zm-.36 1.48l-.21.61-.21.13.31-.78zm.51-1.42l-.07.21h-.07l.07-.2zm-.22 1.51v.12l-.11.12v-.28zm.39-1.45l-.06.2h-.09l.07-.21zm-.09 1.52l-.15.83-.1-.23.13-.62zm.23-1.49v.21h-.08l.05-.21zm0 1.52l-.13 1.48-.16-.34.15-1.15zm.14-1.5v.21h-.04v-.21zm.26 1.51v1.93l-.19.39-.18-.39.09-1.93h.24zm0-1.5v.21h-.15v-.21h.14zm.33 1.49l.13 1.15-.17.34-.1-1.48zm-.16-1.5v.21h-.08v-.22zm.45 1.45l.12.63-.11.23-.13-.84zm-.29-1.48v.21h-.07v-.22zm.58 1.41v.28l-.1-.11v-.13zm-.41-1.45l.05.21h-.09l-.05-.21zm.67 1.37l.29.78-.2-.14-.2-.6zm-.52-1.42l.08.2h-.07l-.07-.2zm.8 1.3l.63 1.34-.3-.21-.45-1.07zm-.64-1.37l.1.2h-.09l-.08-.2zm1 1.18l1 1.64v.43l-.35-.25-.9-1.7zM16.46 26l.11.19-.13.07-.1-.19zm1 1.12l.69.93v.38l-.84-1.23zm.22-.18l.42.48v.25l-.47-.67zm.22-.21l.08.08.05.15h-.15l-.09-.09zm.19-.22l.65.53h-.25l-.48-.42zm.18-.24l1.23.83h-.38l-.93-.69a1 1 0 01.12-.19zm.21-.35l1.7.9.25.35H20l-1.64-1zm.12-.27l1.08.45.21.31-1.34-.63a.69.69 0 00.09-.18zm.11-.27l.6.2.14.2-.78-.29s.07-.12.08-.16zm.07-.25h.11l.12.12h-.27s.07-.13.08-.17zm0-1.79h.27l-.11.1h-.12c0-.06-.02-.1-.03-.15zm-.06-.2l.79-.27-.17.2-.59.18zm-.11-.29l1.39-.64-.22.3-1.08.42a.5.5 0 01-.08-.13zm-.19-.35l1.66-1h.44l-.26.35-1.72.86zm-.16-.25l.95-.67h.37l-1.24.81zm-.17-.25l.49-.41h.25l-.66.51zm-.21-.24l.08-.09h.17l-.05.14-.1.1zm-.19-.16l.55-.64v.25l-.44.47zm-.24-.19l.88-1.2v.37l-.71.91zm-.33-.22l.94-1.68.37-.24-.05.44-1.06 1.6zm-.27-.19l.48-1 .31-.2-.64 1.28zm-.27-.1l.22-.6.21-.14-.32.78zm-.31-.1v-.13l.11-.12v.15l-.05.14zm-.27-.04l.14-.82.11.23-.14.61zm-.31 0l.14-1.48.15.35-.15 1.15zm-.4 0v-1.93l.19-.39.18.4-.09 1.92h-.27zm-.3 0l-.12-1.16.16-.34.1 1.49zm-.28 0l-.12-.63.11-.22.13.83zm-.31.08V20.54l.11.11v.15zm-.26.08l-.29-.79.2.14.21.61zm-.28.12l-.64-1.34.31.21L14 21zm-.35.2l-1-1.65v-.43l.36.25.91 1.71a1.13 1.13 0 00-.26.13zm-.25.17l-.7-.94v-.38l.85 1.23zm-.22.18l-.43-.49v-.25l.54.66zm-.23.22l-.1-.1-.05-.16h.14l.12.12zm-.16.18l-.65-.53h.25l.49.43zm-.18.25l-1.24-.85h.37l1 .7zm-.21.34l-1.72-.91-.25-.36h.44l1.65 1zm-.13.27l-1.08-.46-.22-.31 1.36.64zm-.09.26l-.61-.2-.16-.2.8.29zm-.08.27h-.14l-.12-.11h.3a.83.83 0 000 .12zm0 1.75H11.66l.12-.1h.14a.83.83 0 01.08.11zm1.55-3.46s.1 0 .07.09-.07 0-.07 0a.08.08 0 010 .07h-.12v-.03h.14v-.12zm-.9.76h.11V22.58c0 .08-.09.07-.12.05s0 0 0-.05v-.05c0-.05 0 0 0 0l.03-.09zm.6 3.13s-.05.1-.1.06 0-.07 0-.06 0 0-.07-.05 0-.11 0-.12v.13c0 .01 0 0 0 0l.19.05zm3.3 1s.09.06 0 .1-.07 0-.07 0l-.05.06c-.05.06-.11 0-.11-.05a.09.09 0 010-.06h.18l.07-.04zm-.89.4s.06.1 0 .12-.07 0-.07 0h-.08c-.08 0-.09-.06-.08-.09a.14.14 0 010-.05h.06l.19.06zM18 23.12s-.07.18-.17.15-.13-.07-.12-.11a.25.25 0 010-.07.16.16 0 01-.1-.07v-.05l-.06-.09c-.06-.09-.13-.11-.18-.07l-.07.06v-.12a.44.44 0 00.12-.1s0-.06-.14-.13-.17-.15-.18-.21a.45.45 0 010-.08h-.29a.16.16 0 010-.19.28.28 0 01.09-.11s-.07.19.06.24a.39.39 0 00.17 0 .72.72 0 00.12-.21v-.08h.12a.73.73 0 00-.13.28.3.3 0 00.13.27.59.59 0 00.3.09h.07a.79.79 0 00-.14.13s0 .07.06.1.05.08.08.1a.1.1 0 000 .08.22.22 0 00.1 0s-.06.12 0 .15a.09.09 0 00.1 0zm.11 2.23s.19 0 .19.13 0 .15-.08.15h-.07a.13.13 0 010 .11c-.05.05-.05 0-.05 0l-.07.09c-.07.09-.06.15 0 .18l.08.06-.11.08s-.08-.09-.12-.09 0 0-.1.17-.1.2-.15.22h-.07s.09.2 0 .29-.1.1-.17.09a.3.3 0 01-.13-.06s.2 0 .21-.12a.38.38 0 000-.17 1 1 0 00-.24-.07h-.07v-.12a.88.88 0 00.31.05.33.33 0 00.23-.2.89.89 0 000-.32.28.28 0 010-.06s.12.1.16.1.06 0 .08-.08.07-.07.07-.11a.08.08 0 00.07 0 .23.23 0 000-.11h.15a.08.08 0 000-.1zM18 22.59s.12.1.16 0 0-.14-.08-.14h-.05s.09.07.05.1a.2.2 0 01-.08.04zm-.42 2.89s.06-.15 0-.16-.13.06-.11.11v.05s0-.11.08-.08a.15.15 0 01.06.08zm-1.26-4.25s.12.1.16 0a.09.09 0 00-.08-.14h-.05s.1.07.05.1a.2.2 0 01-.05.04zm-2.62 5.19s.1.1.15 0a.08.08 0 000-.13h-.05s.07.08 0 .1a.13.13 0 01-.1.03zm3.75-4.37l.51.23-.46-.28zm-.14 4.15l.11-.49-.11.48zm-3.18-4.75l.37-.28v-.06l-.36.27zm-.9.34l.37-.28v-.06l-.36.28zm4-.13s.13.1.21 0a.06.06 0 00-.06-.11v.08zm-.14 4.77s.06-.15 0-.2a.06.06 0 00-.09.08h.08zm-3.09.18s.2.07.27 0-.06-.12-.1-.1 0 .08 0 .08zm-.74-.55s.19.11.27 0 0-.14-.08-.12 0 .08 0 .08zm2.7.76s.16 0 .15-.14a.06.06 0 00-.12 0v.07zm-3.47-3.39s0-.17-.11-.18-.09.09-.05.12.07 0 .07 0zm4-1.82l.15-.06s.06.26-.11.36a.44.44 0 01-.53-.05.28.28 0 010-.33.21.21 0 01.12-.07.46.46 0 00-.06.23.31.31 0 00.29.21c.14 0 .21-.09.22-.14a.34.34 0 00-.14-.15zm.24 5.26v-.15s.23.09.23.27-.17.39-.31.39a.28.28 0 01-.26-.15.15.15 0 010-.13s.07.13.15.15a.27.27 0 00.3-.12c.06-.12 0-.21 0-.24a.3.3 0 00-.17-.02zm1.22-4.16v0h-.06zm-.13 2.87v-.06a.05.05 0 01.05 0v.05l-.11.01zm.18-2.72l.05.05h-.09l.04-.05zm-.09 2.6a.06.06 0 010-.06h.05a.05.05 0 01-.08.06zm.09-2.73v0zm-.31 2.7a.06.06 0 010-.06.05.05 0 01.06 0 .05.05 0 010 .05s-.01.03-.02.01zm-1.4-4v0l.04-.02zm.13 5.44a.06.06 0 01.06 0v.06c0 .06 0 0-.06 0a.06.06 0 01.04-.08zm.24-5.5v-.06h.25l-.05.07zm-.1 5.18v-.06l.1-.22v.08zm-.34.1v-.07l.17-.17v.09zm-.58.21v-.07l.21-.12v.08zm-.29.1v-.07l.21-.11v.08zm-.28 0v-.06h.24l-.06.06zm0-.09v-.06h.24l-.05.07zm-.77 0l.06-.06h.48l-.1.07zm3.88-3.61h.06l.23.13h-.09zm-.46 1.6h.06v.26l.04-.12zm-.15.2h.05v.26l-.06-.07zm-2.13-3.87v-.07l.24-.1v.08zm-.43.67v-.07l.2-.16v.09zm-1 .32v-.05l.11-.17V22zm-1.66.36l.16.08h-.06zm1 2.89v.05l-.16.08v-.07zm-1-.37l-.13-.11h.07zm2.42-3.65l-.07-.05V21l.08.08zm.41-.36s-.12.05-.09.24a2.48 2.48 0 010 .3v.06a.47.47 0 00.08-.34.66.66 0 01.02-.31zM13 22.07s0 .12.14.22l.25.16h.05a.5.5 0 00-.23-.27.63.63 0 01-.21-.11zm1-.57s-.07.06 0 .2.07.17.09.21A.28.28 0 0114 22a.36.36 0 000-.27 2 2 0 01-.06-.23zm3-.07s-.13 0-.21.16a2.32 2.32 0 01-.13.27v.05a.47.47 0 00.25-.25.86.86 0 01.09-.23zm-.2 4.89s-.07.09 0 .25a1.22 1.22 0 01.14.24v.05a.45.45 0 00-.08-.32.94.94 0 01-.05-.22zm-1.73.37s-.11 0-.15.15-.06.19-.07.24v.05a.43.43 0 00.17-.24.51.51 0 01.06-.2zm-1.66-.81s-.09-.08-.25 0l-.25.12h-.06a.44.44 0 00.33-.05 1.57 1.57 0 01.24-.07zm5-2.57s-.08-.1-.26 0l-.28.11h-.06a.51.51 0 00.36 0 1.71 1.71 0 01.21-.11zm-.6 1.82s0 .09.15.13h.21a.36.36 0 00-.22-.14.41.41 0 01-.17.01zm-3.49-3.49v0h-.03zm.1.12s-.06.11-.11.1-.15-.07-.12-.17.09-.16.1-.21a.14.14 0 010-.07s.17.32.32.32.32-.09.29-.28-.08-.32 0-.42.07-.09.07-.09a1.36 1.36 0 000 .34c0 .12.08.33 0 .42a.47.47 0 01-.35.14.74.74 0 01-.23-.08zm1.23-.17l.05.05h-.09l.01-.05zm.44-.61l-.08.17a.33.33 0 00-.16.12.73.73 0 00-.11.23.23.23 0 000 .14v.09a1.14 1.14 0 01-.21 0 .08.08 0 010-.13l.08-.09s0-.23-.13-.28l-.13-.08v-.18a1.91 1.91 0 01.25.25c0 .08.08.19.08.19a1.68 1.68 0 01.25-.35.68.68 0 01.13-.06zm-2.31 1.18h.07c.01 0 0 0 0 0a.09.09 0 01-.07 0h-.03zm0-.7v.17a.29.29 0 00-.08.18.58.58 0 000 .24.32.32 0 00.13.07H14v.09a1.2 1.2 0 01-.22.1c-.07 0-.11 0-.1-.09s0-.11 0-.11a.6.6 0 00-.31-.13h-.17l-.14-.12a2.41 2.41 0 01.4 0 1.5 1.5 0 01.2.09 1.74 1.74 0 010-.4.75.75 0 01.11-.09zm-1.09 1.95v.08s-.04-.09-.01-.08zm.21-1h.16v.06s.21 0 .26.1.07.16 0 .21a.69.69 0 01-.18.1s0 .27-.08.36a1.2 1.2 0 01-.3.19v.1c0 .02-.07.07-.1 0s-.1-.17-.12-.21a.25.25 0 010-.06.73.73 0 00.31 0 .37.37 0 00.24-.29c0-.15 0-.25-.12-.27s-.11 0-.11 0l-.07-.18a1.76 1.76 0 00.37.2c.08 0 .14-.05.13-.09s0-.08-.09-.11-.2 0-.24-.09a.45.45 0 01-.07-.04zm5.37 2.73s-.1.07-.15 0 0-.17.06-.16a.22.22 0 01.22.19.26.26 0 01-.06.23s.06-.16 0-.2zM16 26.93a.32.32 0 010-.1s0 .05.08.05h.06a.12.12 0 010 .1s-.09.02-.14.02h.25s-.14.15-.2.2a.4.4 0 01-.23.08h-.09l-.05.06h-.12a.42.42 0 00-.13 0 .2.2 0 01-.18-.05s-.12.11-.2.1-.21-.05-.23-.11v-.07s.25.18.37 0 0-.25 0-.25l.1-.06a2 2 0 010 .22v.07s0 .1.09.09a.42.42 0 00.23-.06l.13.05a.4.4 0 00.19 0l.12-.13a.68.68 0 00-.15 0 .15.15 0 00-.08 0 .11.11 0 010-.12A1.5 1.5 0 0116 27zm-2 .39s.29.2.46.06a1.19 1.19 0 00.25-.31h-.11c-.04 0-.06.11-.1.17a.44.44 0 01-.32.13.89.89 0 01-.12-.05zm.52-.38s-.09.18-.18.2-.13 0-.15 0-.16 0-.2-.05L14 27a1 1 0 01-.23 0l-.13-.05s-.18.11-.3.05-.13-.1-.13-.15a.1.1 0 010-.07s.1.19.2.16.09-.06.09-.06-.08-.07 0-.1.12-.09.15 0a.43.43 0 010 .13.13.13 0 00.12.07.8.8 0 00.28 0h.05v.14a.12.12 0 00.12 0v.08c0 .02.1 0 .12 0a.16.16 0 000-.05zm-.79-.83l-.08.13s-.05 0-.2.1-.22.28-.34.31-.34 0-.37-.16a.34.34 0 010-.3.2.2 0 01.14 0s-.14 0-.15.16a.2.2 0 00.27.21c.15-.07.37-.37.47-.4a.62.62 0 01.32-.05zm-1.22-1.22v-.08zm.53.92l-.11.11h-.06s-.14.16-.25.14-.16-.05-.17-.12a.56.56 0 010-.2 1.11 1.11 0 01-.25-.25.62.62 0 010-.34s.11-.1.12-.15-.06-.13 0-.14a.25.25 0 01.23 0 1.69 1.69 0 01.16.17s-.36 0-.39.14a.36.36 0 00.08.36c.11.1.21.14.28.08a.29.29 0 00.08-.07l.18.06a1.65 1.65 0 00-.4.16v.15c0 .02.06.06.14 0s.16-.13.22-.13a.31.31 0 01.2.03zm.88-.94s0 .48.48.32a1.07 1.07 0 00.72-.7c0-.16 0-.3-.06-.28s-.35.16-.48 0-.2-.29-.35 0a2.85 2.85 0 00-.19.58.47.47 0 01-.04.08zm2.6-1.25a.06.06 0 01.06.07.07.07 0 01-.07.07.07.07 0 01-.06-.07.07.07 0 01.13-.07zm.17.54l-.02-.16s.17-.06.19-.12a.87.87 0 000-.2.23.23 0 00-.19-.16c-.16 0-.24 0-.29.05s0 .15 0 .23v.08a5.29 5.29 0 00-.6.22.39.39 0 00-.19.37v.23a.77.77 0 01.18-.15.36.36 0 01.18 0h.07a1 1 0 00-.28.33l-.1.24s-.06.05-.17-.27-.22-.78-.22-.78a.55.55 0 00.15-.25.51.51 0 000-.17 1 1 0 01-.13.17.24.24 0 01-.08.06 2.34 2.34 0 01-.09-.35v-.19a1.32 1.32 0 00-.14.34.29.29 0 000 .2v.1a.17.17 0 01-.21 0c-.13-.06-.19-.13-.18-.2a.85.85 0 010-.15.33.33 0 00-.38.16c-.17.24-.21.59-.29.64a.23.23 0 01-.3-.22 1.77 1.77 0 010-.41v-.09a1.11 1.11 0 00-.14.65.77.77 0 00.18.37l.09.09s-.12.45.17.6.87-.14 1.06-.46l.2-.31s.2.77.45.9a1 1 0 00.47.13h.15s-.14-.1-.14-.18a.41.41 0 010-.13 1.07 1.07 0 01-.34-.05.84.84 0 01-.15-.11s.3-.49.62-.57a3 3 0 00.65-.15 1.48 1.48 0 00.13-.26.94.94 0 01-.55.1 5.14 5.14 0 01-.51-.1.89.89 0 01.22-.14.85.85 0 01.21-.06.61.61 0 00.14.11zm-.45.75a2.7 2.7 0 01.31-.08h.05a.09.09 0 010 .09.27.27 0 00-.12.18.08.08 0 00.14.05l.05-.09a.19.19 0 010 .15.18.18 0 01-.24.05c-.08-.06 0-.18 0-.23l.08-.08a.24.24 0 01-.14 0 .1.1 0 01-.07-.04zm-.92.44a.28.28 0 000 .21c0 .11.05.16 0 .19s-.07.13-.06.18a.07.07 0 00.13 0 .28.28 0 000-.27c0-.11-.07-.19-.08-.23s.08-.08.07-.08zm-.07-.26a4.6 4.6 0 01-.47.39l-.14.06-.07.31.56-.49.09-.07zm-.81-.26l.06-.2h-.2l-.06.2zm.33-.23l.07-.2h-.2l-.07.2zM14 23.55l.07-.2h-.2l-.07.2zm.43-.19l.06-.2h-.2l-.06.2zm.84-.86s0 .16-.11.2l-.66.35.11-.24zm-.76 1a7.55 7.55 0 01.9-.54c.28-.11.36-.12.41-.22l.1-.18-.85.41-.37.18zm1.32-.46s.18.18 0 .26-.16 0-.17 0 0 .1-.15.11-.24-.08-.23-.16a.4.4 0 010-.12l.13.07v.06a.06.06 0 00.11 0 .23.23 0 000-.09s.13.06.17 0 .06 0 0-.09.13-.02.13-.02zm.57-.18s-.03.02-.01.02zm.2.23h-.13a2.46 2.46 0 01-.32.39 1.93 1.93 0 01-.2.17l.1-.27a.89.89 0 00.25-.16.81.81 0 00.09-.15s-.11-.07-.09-.16.07-.16.14-.1.06.06.06.12V23s.07 0 .09.05a.28.28 0 010 .06zm4.25 1l.39.19-.39.18-3.43-.16v.09l3 .28-.34.16-2.64-.36v.1l2.3.41-.23.11-2.09-.45v.06l.2.05a.29.29 0 010 .09l-.2-.06a.14.14 0 000 .06l.2.07v.07l-.2-.07a.94.94 0 000 .09l.2.08a.2.2 0 000 .08l-.19-.09a.59.59 0 000 .08l.18.1c0 .05-.05.09-.07.13l-.18-.11a.35.35 0 00-.05.08l.17.12v.07l-.48-.11-.06.08.17.13-.05.06-.16-.14-.07.08.15.14-.06.07-.15-.15-.06.05.14.17h-.06l-.14-.16-.07.06.13.17h-.08l-.12-.18a2 2 0 01-2.95-.64l-.19.11c0-.05 0-.09-.07-.14l.19-.09a.36.36 0 000-.09l-.19.09v-.08l.2.03v-.09l-.2.07v-.07l.2-.06a.13.13 0 010-.06l-.21.05a.29.29 0 010-.09h.21v-.06l-2.1.4-.22-.11 2.31-.36v-.1l-2.65.29-.34-.17 3-.2v-.09l-3.43.08-.39-.19L10 24l3.42.16v-.09l-3-.27.35-.16 2.64.35v-.09l-2.3-.42.22-.1 2.1.45a.07.07 0 010-.05l-.21-.05v-.09l.2.06a.24.24 0 000-.08l-.2-.06v-.07l.19.07a.3.3 0 000-.08l-.2-.09a.2.2 0 000-.08l.19.09a.3.3 0 000-.08l-.18-.1s.05-.08.07-.13l.18.11.05-.07.03-.13a.35.35 0 010-.08l.17.13.06-.07-.17-.14.05-.05.16.13h.05l-.16-.14a.46.46 0 00.07-.07l.15.15.07-.07-.14-.15.06-.05.13.16.08-.06-.13-.17.07-.05.12.17.08-.05-.11-.18.13-.07.1.18h.08l-.09-.19h.08l.08.2h.09l-.08-.19h.08l.06.2h.09l-.06-.2h.09l.05.2h.09L15 22v.21h.09V22h.09v.21h.09V22h.15v.21h.09V22h.09v.21h.1V22h.08v.2h.08l.06-.2h.09l-.07.2h.1l.07-.2h.07l-.07.19h.08l.09-.19h.08l-.1.18h.09l.1-.18.13.07-.12.18.08.05.12-.17h.07l-.12.17.07.06.14-.16v.05l-.14.16.15-.14.06.06-.15.15a.46.46 0 01.07.07l.16-.13v.06L17 23l.06.08.17-.12.05.07-.18.12.05.07.18-.1.08.13-.19.1a.59.59 0 010 .08l.19-.08a.59.59 0 010 .08l-.2.07v.09l.19-.07a.25.25 0 010 .07l-.19.07a.43.43 0 010 .05l.2-.06v.09l-.21.05v.08l2.1-.4.22.11-2.31.36a.28.28 0 010 .09l2.65-.28.34.16-3 .2a.38.38 0 000 .1z"/><path class="cls-4" d="M56.15 14.94C62.71 9.14 75.77-.26 91.4 0c20.29.82 33.7 11.27 42.52 20.33 2.05 2.1 3.24 3.88-.47 1-7.75-6-22.17-15.59-37.33-17.51C82.11.92 65.43 10.08 57 15.57c-3.35 2.21-3.76 1.95-.85-.63z"/><path d="M68.35 19.9s3.4-4.58 4-5.76 2.08.07 2.08.07 3 1.95 3.74 1.39 3.74-3.12 3.74-3.12a1.84 1.84 0 012.5 0c1.11 1.18 4.09 4 4.09 4s.35.9 2.36.14S98.17 14 98.17 14s1.46-1 1.94.55 1.89 6.74 1.89 6.74.14.83 2.09.9 5.33 0 5.33 0 2.5-.35 2.22 1a30.48 30.48 0 01-1.8 4.58l-.21-3.68-5.84-.09s-2.84.28-3.61-2.15-1.38-5.13-1.38-5.13-.14-1.25-1.32-.48a61.3 61.3 0 01-6.73 2.63 5 5 0 01-3.4-.83 31 31 0 01-3.46-3.75s-.49-.55-1.46.14-3.26 2.64-3.26 2.64-.76.76-2.77.14a11.32 11.32 0 01-3.05-1.39s-4.86 4.77-5 4.08z" fill="#fac90e"/><path class="cls-4" d="M36.35 30.89c1-1.06 2.41-2.38 3.16-3.08 1.1-1 3.32-2.71 8.53-1.53s9 3 11.37 2.77c4.6-.41 4.89-1.62 15.37-5.82 5.5-2.2 8.35-2.54 11-2.35 6.15.44 8 2.21 10.47 3.78 3.11 2 6.14 4.5 7.35 6.54 0 0 .07.65-1.87-.9-3-2.35-9.08-8.26-18.44-7A42.25 42.25 0 0077 24.88c-4.75 1.34-12.29 6.25-17.29 6.39a16.94 16.94 0 01-4.42-.5c-2.22-.52-5-1.57-7.28-2.2-1-.29-4.69-1.84-8.17.61-2.19 1.55-3.15 2.55-3.75 2.76s-.61-.12.26-1.05zM58.42 47a6.58 6.58 0 01.86.18 6.06 6.06 0 01.76.28v.61H54.7v-.57a3.44 3.44 0 01.65-.28A4.68 4.68 0 0156 47v-9a5.13 5.13 0 01-.7-.19 3.13 3.13 0 01-.61-.28v-.61h2q.64 0 1.47-.06c.55 0 1.05-.07 1.51-.07a8.27 8.27 0 011.66.17 4.18 4.18 0 011.44.57 3 3 0 011 1.07 3.21 3.21 0 01.39 1.66 3.36 3.36 0 01-.38 1.63 3.44 3.44 0 01-1 1.14 4.28 4.28 0 01-1.45.66 6.25 6.25 0 01-1.68.22h-1.26zm.86-9.24a3.25 3.25 0 00-.5 0l-.36.07v4.88a2 2 0 00.43 0h.47a2.34 2.34 0 00.83-.15 1.88 1.88 0 00.71-.44 2.34 2.34 0 00.51-.79 3 3 0 00.19-1.15 2.58 2.58 0 00-.62-1.9 2.31 2.31 0 00-1.66-.48zM72.74 48.11h-5.52v-.61l.73-.26a4.78 4.78 0 01.83-.2v-9.11h-1.86l-1 2.75h-.66c0-.22-.08-.49-.13-.82s-.08-.68-.11-1-.06-.7-.08-1 0-.64 0-.89h10.2v.9c0 .34-.05.69-.08 1s-.07.69-.11 1-.08.6-.13.83h-.66l-1-2.75h-1.98V47c.28.05.55.12.82.19a5.25 5.25 0 01.74.27zM75.46 47a1.24 1.24 0 01.37-.94 1.37 1.37 0 011-.35 1.42 1.42 0 011 .35 1.21 1.21 0 01.39.94 1.17 1.17 0 01-.39.92 1.42 1.42 0 01-1 .34 1.36 1.36 0 01-1-.34 1.19 1.19 0 01-.37-.92zM83.07 36.89H88v.61a3.38 3.38 0 01-1.22.47v6.17a4.1 4.1 0 00.22 1.31 2.14 2.14 0 00.51.86 1.94 1.94 0 00.81.47 3.55 3.55 0 001.07.15 3 3 0 001-.15 2 2 0 001.21-1.38 4.3 4.3 0 00.18-1.34v-6a5.94 5.94 0 01-.76-.23 2.62 2.62 0 01-.65-.32v-.61h4v.61a2.6 2.6 0 01-.64.34l-.69.21v6a3.75 3.75 0 01-4.13 4.19 5.11 5.11 0 01-3.32-1 3.78 3.78 0 01-1.17-3.08V38a4.71 4.71 0 01-.67-.17 3.23 3.23 0 01-.65-.3zM109 48.11h-4.8v-.61l.63-.27a5.19 5.19 0 01.66-.19v-6.7l.08-1.88h-.13l-.53 1.72-3.09 7.93h-.74L98 40.24l-.58-1.87h-.14V47a3.7 3.7 0 01.68.21 7.22 7.22 0 01.69.31v.61h-3.9v-.63l.63-.3a2.83 2.83 0 01.71-.24V38l-.68-.18a2.28 2.28 0 01-.63-.29v-.61h4.34l2.45 6.52L102 45l.48-1.58 2.5-6.49h4v.61a3.46 3.46 0 01-.58.28 5 5 0 01-.63.19v9.08a3.4 3.4 0 01.64.2c.21.08.4.17.56.25zM109.65 48.11v-.61a6.44 6.44 0 01.65-.3 2.5 2.5 0 01.7-.2v-9a6.91 6.91 0 01-.67-.19 3.85 3.85 0 01-.65-.28v-.61H113.42c.37 0 .78-.05 1.25-.05a9.08 9.08 0 011.49.12 4.09 4.09 0 011.28.4 2.21 2.21 0 01.9.81 2.38 2.38 0 01.34 1.34 2.3 2.3 0 01-.19.95 2.51 2.51 0 01-.51.78 2.93 2.93 0 01-.77.56 3.33 3.33 0 01-1 .32v.06a6.65 6.65 0 011 .24 3 3 0 01.94.52 2.57 2.57 0 01.68.84 2.49 2.49 0 01.26 1.19 2.73 2.73 0 01-.38 1.49 3.17 3.17 0 01-1 1 4.94 4.94 0 01-1.49.59 8.12 8.12 0 01-1.73.18h-2.95zm4.14-6.22a5.15 5.15 0 00.55 0l.51-.06a2.25 2.25 0 001-.79 2.11 2.11 0 00.38-1.23 1.9 1.9 0 00-.52-1.48 2 2 0 00-1.37-.47h-1.07v4zm.71 5.28a2.08 2.08 0 001.58-.6 2.2 2.2 0 00.58-1.6 2.26 2.26 0 00-.19-1 1.72 1.72 0 00-.53-.63 2.13 2.13 0 00-.8-.32 6.36 6.36 0 00-1-.08h-.85v4.11c.15 0 .3.06.47.09a6.94 6.94 0 00.74.03zM42.78 60.14l.28.06.25.09v.2h-1.74v-.2a1.89 1.89 0 01.21-.09l.22-.06v-3l-.23-.06-.2-.1v-.19H43.2a2.42 2.42 0 01.54.06 1.39 1.39 0 01.47.18 1 1 0 01.46.89 1.13 1.13 0 01-.12.54 1.17 1.17 0 01-.33.37 1.44 1.44 0 01-.47.21 2 2 0 01-.55.07h-.42zm.28-3h-.16a.53.53 0 00-.12 0v1.58H43.08a.84.84 0 00.27 0 .83.83 0 00.23-.15.72.72 0 00.16-.25.92.92 0 00.07-.38.83.83 0 00-.21-.62.73.73 0 00-.54-.19zM47.45 60.49h-1.8v-.2l.24-.08.27-.07v-3h-.61l-.33.89H45v-.27-.33-.34-.29h3.32v1.23h-.21l-.33-.89h-.61v3l.27.07a1.35 1.35 0 01.24.08zM48.33 60.12a.41.41 0 01.12-.3.45.45 0 01.32-.12.46.46 0 01.33.12.41.41 0 01.12.3.38.38 0 01-.12.3.46.46 0 01-.33.11.45.45 0 01-.32-.11.38.38 0 01-.12-.3zM50.82 56.84h1.6V57a1 1 0 01-.39.16v2a1.25 1.25 0 00.06.42.59.59 0 00.16.28.53.53 0 00.27.16 1.16 1.16 0 00.34 0 1.07 1.07 0 00.32 0 .82.82 0 00.25-.16.68.68 0 00.16-.29 1.37 1.37 0 00.06-.44v-2a1.36 1.36 0 01-.25-.07 1 1 0 01-.21-.11v-.19h1.3V57a.88.88 0 01-.21.12 2 2 0 01-.23.06v2a1.34 1.34 0 01-.35 1 1.32 1.32 0 01-1 .35 1.68 1.68 0 01-1.09-.31 1.25 1.25 0 01-.38-1v-2l-.23-.09a.75.75 0 01-.2-.1zM59.26 60.49H57.7v-.2l.2-.08.22-.07v-2.75l-.17.56-1 2.58h-.24l-1-2.56-.19-.61h-.05v2.8l.22.07.22.1v.2h-1.29v-.2l.2-.09a.75.75 0 01.24-.08v-2.97l-.23-.06a.75.75 0 01-.2-.1v-.19H56l.8 2.12.15.5.16-.51.89-2.11h1.3V57l-.2.1-.2.06v3a.83.83 0 01.21.06l.18.08zM60.66 60.49h-1.29v-.2l.18-.09.19-.06 1.35-3.36h.39l1.31 3.36.2.06.19.09v.2h-1.64v-.2l.22-.08.22-.07-.31-.83h-1.16l-.3.83a1.2 1.2 0 01.45.15zm0-1.52h.92l-.34-1-.1-.44L61 58zM65.34 60.49h-1.79v-.2l.24-.08.26-.07v-3h-.6l-.34.89h-.21v-.27a3.31 3.31 0 010-.33v-.34-.29h3.32v.96a1.56 1.56 0 010 .27h-.21l-.34-.89h-.6v3l.27.07a1.23 1.23 0 01.23.08zM72.34 60.49h-1.56v-.2l.2-.08.22-.07v-2.75l-.17.56-1 2.58h-.24l-1-2.56-.19-.61v2.8l.22.07.22.1v.2H67.7v-.2l.21-.09a.79.79 0 01.23-.08v-2.97l-.22-.06a.68.68 0 01-.21-.1v-.19h1.41l.8 2.12.16.5.16-.51.81-2.11h1.3V57l-.19.1-.21.06v3a.83.83 0 01.21.06l.18.08zM73.74 60.49h-1.29v-.2l.18-.09.19-.06 1.35-3.36h.39l1.31 3.36.21.06.18.09v.2h-1.64v-.2l.22-.08.22-.07-.31-.83H73.6l-.31.83a1.2 1.2 0 01.45.15zm0-1.52h.92l-.33-1-.1-.44-.12.46zM78.82 56.84h1.29V57a1.18 1.18 0 01-.22.14l-.22.09v3.29h-.44l-1.85-2.67-.21-.4v2.6a1 1 0 01.24.08l.21.12v.2h-1.26v-.2a1.39 1.39 0 01.21-.11.92.92 0 01.23-.09v-2.81l-.21-.09-.18-.15v-.19h1.12L79 59l.24.45v-2.18l-.25-.1a1.37 1.37 0 01-.2-.13zM80.32 60.49v-.2l.2-.09.23-.06v-3l-.23-.07a.61.61 0 01-.2-.09v-.19h1.6a2.55 2.55 0 01.81.12 1.62 1.62 0 01.61.36 1.59 1.59 0 01.38.56 2.15 2.15 0 01.13.79 2.47 2.47 0 01-.12.79 1.71 1.71 0 01-.38.6 1.61 1.61 0 01-.63.39 2.74 2.74 0 01-.9.14h-1.5zm1.53-3.36h-.35v3h.37a.92.92 0 00.51-.13 1 1 0 00.35-.33 1.55 1.55 0 00.2-.51 2.93 2.93 0 00.06-.61 2.51 2.51 0 00-.06-.55 1.49 1.49 0 00-.21-.48.86.86 0 00-.35-.33 1.05 1.05 0 00-.52-.06zM85.85 60.49h-1.63v-.2a1.77 1.77 0 01.42-.15v-3l-.22-.06-.2-.1v-.19h1.63V57a.81.81 0 01-.21.1.9.9 0 01-.22.06v3l.22.06a1.33 1.33 0 01.21.09zM87.32 60.14l.21.07.19.08v.2h-1.61v-.2l.22-.09.21-.06v-3a1.33 1.33 0 01-.43-.16v-.19H87.77a2.19 2.19 0 01.53.07 1.17 1.17 0 01.42.2 1 1 0 01.27.33 1.06 1.06 0 01.1.45 1 1 0 01-.19.62 1.19 1.19 0 01-.5.37c.14.21.29.44.45.66a8.05 8.05 0 00.49.66l.25.17v.17h-.87l-.22-.17a2.78 2.78 0 01-.43-.66c-.12-.25-.23-.5-.33-.74h-.42zm.26-3a.89.89 0 00-.26 0v1.45h.31a.62.62 0 00.46-.19.79.79 0 00.19-.56.86.86 0 00-.06-.34.55.55 0 00-.14-.22.71.71 0 00-.22-.13.87.87 0 00-.28-.02zM91.43 60.49H89.8v-.2a1.77 1.77 0 01.42-.15v-3l-.22-.01-.2-.1v-.19h1.63V57a.68.68 0 01-.21.1l-.21.06v3l.21.06a1 1 0 01.21.09zM93.1 60.49v-.2a1.89 1.89 0 01.21-.09l.22-.06v-3l-.22-.06a1 1 0 01-.21-.1v-.19h1.63a3.88 3.88 0 01.48 0 1.6 1.6 0 01.42.13.69.69 0 01.29.27.81.81 0 01.11.43.78.78 0 01-.03.38.73.73 0 01-.17.26 1 1 0 01-.56.28 1.87 1.87 0 01.34.08 1.34 1.34 0 01.31.17.94.94 0 01.18 1.15 1.07 1.07 0 01-.34.33 1.27 1.27 0 01-.48.19 2.62 2.62 0 01-.57.06H93.1zm1.35-2H94.79a.71.71 0 00.33-.26.64.64 0 00.13-.4.62.62 0 00-.17-.48.68.68 0 00-.45-.15h-.35v1.3zm.23 1.71a.69.69 0 00.52-.2.75.75 0 00.18-.52.81.81 0 00-.06-.33.55.55 0 00-.43-.3 1.66 1.66 0 00-.33 0h-.28v1.35h.16zM99.24 56.84v.48c0 .17 0 .33-.07.47h-.21l-.24-.61h-1v1.28h.64l.23-.41h.17v1.16h-.17l-.23-.41h-.66v1.35h1l.28-.66h.21a1.43 1.43 0 010 .22 2.34 2.34 0 010 .26v.52h-2.7v-.2l.2-.08.23-.07v-3l-.22-.06a1 1 0 01-.21-.1v-.19zM100.86 60.14a1 1 0 01.21.07l.18.08v.2h-1.6v-.2a1.2 1.2 0 01.21-.09l.21-.06v-3a1.36 1.36 0 01-.42-.16v-.19H101.31a2.26 2.26 0 01.53.07 1 1 0 01.41.2.9.9 0 01.28.33 1.06 1.06 0 01.09.45 1 1 0 01-.18.62 1.19 1.19 0 01-.5.37l.44.66a8.16 8.16 0 00.5.66l.25.17v.17h-.87l-.23-.17a3.1 3.1 0 01-.42-.66 6.74 6.74 0 01-.33-.74h-.42zm.26-3a.83.83 0 00-.26 0v1.45h.31a.6.6 0 00.45-.19.75.75 0 00.19-.56 1.11 1.11 0 000-.34.57.57 0 00-.15-.22.54.54 0 00-.22-.13.76.76 0 00-.32-.02zM105.27 56.84h1.39V57a.54.54 0 01-.2.1l-.21.06-1 1.26.28.37c.11.15.23.29.35.44s.24.31.37.46l.38.44.25.16v.17H106l-.21-.14-.26-.35c-.09-.13-.19-.26-.28-.4s-.18-.27-.26-.41l-.25-.41h-.22v1.36l.21.07a.8.8 0 01.16.08v.2h-1.58v-.2l.21-.09.21-.06v-3a1 1 0 01-.23-.06.85.85 0 01-.19-.1v-.19h1.58V57l-.17.09-.2.07v1.32l.3-.07.84-1.25-.2-.07-.17-.09zM109.74 56.84v.48c0 .17 0 .33-.06.47h-.22l-.24-.61h-1v1.28h.64l.23-.41h.17a5.06 5.06 0 010 .57 5.53 5.53 0 010 .59h-.17l-.23-.41h-.64v1.35h1l.28-.66h.21c0 .07 0 .14.05.22v.26a2.45 2.45 0 010 .27 2.18 2.18 0 010 .25H107v-.2l.2-.08.23-.07v-3l-.22-.06A1 1 0 01107 57v-.19zM114.79 60.49h-1.56v-.2l.2-.08.22-.07v-2.75l-.17.56-1 2.58h-.24l-1-2.56-.19-.61v2.8l.22.07.22.1v.2h-1.27v-.2l.2-.09a.85.85 0 01.24-.08v-2.97l-.23-.06a.75.75 0 01-.2-.1v-.19h1.41l.8 2.12.15.5.16-.51.81-2.11h1.3V57l-.19.1-.21.06v3a.83.83 0 01.21.06l.18.08zM116.19 60.49h-1.29v-.2l.18-.09.19-.06 1.35-3.36h.38l1.31 3.36.2.06.19.09v.2h-1.64v-.2l.22-.08.22-.07-.31-.83H116l-.31.83a1.19 1.19 0 01.46.15zm0-1.52h.92l-.34-1-.1-.44-.11.46zM118.85 56.84h1.61V57l-.19.1-.21.06v2.67a1.56 1.56 0 01-.13.7 1.31 1.31 0 01-.3.44 1.45 1.45 0 01-.36.23 2.08 2.08 0 01-.3.1l-.1-.14A.61.61 0 00119 61a.89.89 0 00.12-.24 1.82 1.82 0 00.09-.37 3.83 3.83 0 000-.53v-2.7l-.23-.06a.63.63 0 01-.2-.1zM120.65 56.84h1.61V57a1.09 1.09 0 01-.4.16v2a1.25 1.25 0 00.06.42.6.6 0 00.17.28.54.54 0 00.26.16 1.23 1.23 0 00.35 0 1 1 0 00.31 0 .72.72 0 00.25-.16.7.7 0 00.17-.29 1.37 1.37 0 00.06-.44v-2a1.17 1.17 0 01-.25-.07.68.68 0 01-.24-.06v-.19h1.29V57a.72.72 0 01-.21.12l-.22.06v2a1.38 1.38 0 01-.35 1 1.34 1.34 0 01-1 .35 1.64 1.64 0 01-1.08-.31 1.25 1.25 0 01-.38-1v-2l-.22-.06a.68.68 0 01-.21-.1zM125.64 60.49h-1.29v-.2l.18-.09.19-.06 1.35-3.36h.38l1.31 3.36.21.06.19.09v.2h-1.64v-.2l.21-.08.22-.07-.3-.83h-1.16l-.31.83a1.25 1.25 0 01.46.15zm0-1.52h.92l-.34-1-.1-.44-.12.47zM130.71 56.84H132V57a1.64 1.64 0 01-.22.14 1.09 1.09 0 01-.23.09v3.29h-.44l-1.84-2.67-.21-.4v2.6a.79.79 0 01.23.08l.22.12v.2h-1.29v-.2a1 1 0 01.21-.11.92.92 0 01.23-.09v-2.81l-.21-.09-.15-.15v-.19h1.13l1.5 2.17.24.45v-2.16l-.24-.1a1.07 1.07 0 01-.21-.13zM120.35 52.18c0 .23-15 .42-33.48.42s-33.48-.19-33.48-.42 15-.43 33.48-.43 33.48.19 33.48.43z"/></g></g></svg>