<svg xmlns="http://www.w3.org/2000/svg" viewBox="0 0 127.18 57.41"><defs><style>.cls-4{fill:#004b2f}.cls-3{fill-rule:evenodd}.cls-2,.cls-3{fill:#ffc20e}</style></defs><g id="Layer_2" data-name="Layer 2"><g id="Layer_1-2" data-name="Layer 1"><path d="M13.84 9l-.18.1a.75.75 0 01-.18.08l-.18.08-.2.07-.19.07h-.21l-.21.05h-.22l-.22.05h-1.2l-.26.05-.26.06-.26.07-.26.08-.26.09-.27.11-.28.42-.27.14-.26.16-.26.18-.26.2-.25.23-.24.25-.24.28-.23.3-.27.39-.44.1-.36.11-.33.12-.31.16-.3.16-.27.17-.26.19-.24.2-.21.2-.21.22c-.06.07-.12.15-.19.22l-.17.23-.17.23-.15.24-.11.23-.13.23c0 .08-.09.16-.13.24l-.18.24-.24.44c0 .07-.07.14-.11.22l-.12.2-.11.2-.12.19-.12.18-.12.16-.12.15-.13.14a1.59 1.59 0 01-.13.13l-.14.12c-.59.42-.56.36-.35 1.05a1.42 1.42 0 000 .2v.39a1.27 1.27 0 000 .2 1.48 1.48 0 000 .21 1.48 1.48 0 010 .21V22.75a2.44 2.44 0 010 .27v1.12l.06.29c0 .1 0 .2.07.3s.07.2.1.3.07.2.11.31l.15.3.16.3.2.31c.07.1.14.21.22.31l.3.38c0 .14 0 .29-.05.44v1.06c0 .11 0 .22.07.33s.05.21.08.32.07.2.1.3l.12.28c0 .09.09.18.13.27l.15.26c.05.09.11.17.16.25l.16.24.18.22.17.22.19.21.18.2.18.19c.06.06.13.12.19.19l.18.18.17.18.17.17.16.18a1.29 1.29 0 01.16.17A1.15 1.15 0 015 33l.14.16.12.17.11.16.1.16a1.3 1.3 0 00.08.17s0 .1.07.16c.23.69.18.63.91.65H7.13l.19.06.2.06.2.07.2.09.2.09.21.09.21.1.21.11.22.11.23.1.23.11.23.1.25.11.25.09.26.09.28.08.27.07.3.05h1.59l.35-.06.35-.09.37-.11.45-.16.42.17c.12 0 .23.09.35.12l.35.1.34.07h1.6l.3-.06.28-.07.28-.08.27-.09.27-.1.26-.11.24-.11.25-.11.24-.11.23-.12.22-.11.22-.1.22-.1.21-.09.21-.09.2-.07.2-.07h.74c.74 0 .66 0 .92-.65a1.42 1.42 0 01.08-.18l.09-.18.1-.17.12-.16.12-.17c0-.06.09-.11.13-.16a2.09 2.09 0 00.14-.17c.06 0 .1-.11.15-.16l.16-.17.16-.16.34-.34.17-.18.18-.18.17-.19.18-.2.17-.21.16-.21.16-.23.15-.24.15-.26c0-.09.08-.18.13-.27s.08-.19.11-.28l.11-.3c0-.11.05-.21.08-.32l.07-.32v-.35-.36-.38-.47l.3-.34.22-.29c.07-.1.14-.2.2-.3s.12-.2.17-.3l.15-.3.12-.3c0-.1.06-.2.1-.3s0-.2.07-.3 0-.2 0-.3v-.3V23.15v-.28a2.45 2.45 0 000-.27v-.53-.26c0-.09 0-.33-.07-.49L28 21v-.46-.22a1.48 1.48 0 010-.21v-.2a1.34 1.34 0 010-.2v-.19a1.16 1.16 0 000-.18 1.36 1.36 0 010-.17c.22-.69.23-.61-.35-1.06l-.09-.11a.93.93 0 00-.14-.14l-.13-.15c0-.06-.09-.11-.13-.16l-.16-.19-.12-.17-.07-.19-.11-.18c0-.07-.07-.14-.11-.2l-.11-.2-.23-.42a2.12 2.12 0 00-.11-.21l-.14-.23-.13-.23-.14-.22-.15-.23-.16-.22-.17-.22-.19-.22-.2-.21a2.09 2.09 0 00-.22-.2l-.23-.2a2.48 2.48 0 01-.26-.19l-.28-.17-.29-.17-.32-.15-.34-.14-.36-.12-.47-.13c-.08-.13-.15-.26-.23-.38l-.21-.31-.23-.27-.23-.26-.19-.22-.25-.21-.27-.18-.26-.17-.27-.14-.28-.12-.27-.11-.27-.1-.32-.07-.27-.07-.27-.06-.53-.11-.26-.05-.48-.09h-.7l-.22-.05-.21-.06-.2-.06-.18-.07-.17-.07-.17-.09L15 9c-.6-.42-.52-.41-1.13 0" fill-rule="evenodd" fill="#004b2f"/><path class="cls-2" d="M11.69 10.23a5.87 5.87 0 002.65-.89.09.09 0 01.12 0 6.2 6.2 0 002.68.88c1.6.27 3.27.55 4.58 2.82 2.48.34 3.34 1.94 4.14 3.44a5.81 5.81 0 001.67 2.21.11.11 0 010 .12 5.94 5.94 0 000 2.78c.24 1.58.48 3.23-1.3 5.16.44 2.43-.84 3.73-2 4.94a5.67 5.67 0 00-1.63 2.25.09.09 0 01-.09.08 6.13 6.13 0 00-2.7.83c-1.45.71-3 1.45-5.38.37-2.21 1.16-3.86.37-5.39-.38a5.9 5.9 0 00-2.7-.84.09.09 0 01-.1-.07 5.94 5.94 0 00-1.64-2.25c-1.13-1.14-2.32-2.33-2-4.93C.78 25 1 23.25 1.28 21.58a5.74 5.74 0 000-2.77.08.08 0 010-.11A6 6 0 003 16.47C3.72 15 4.5 13.57 7.1 13c1.09-2.22 2.9-2.53 4.59-2.81m2.72-.7a6.2 6.2 0 01-2.69.88c-1.65.28-3.42.59-4.47 2.76a.12.12 0 01-.07.05 5.29 5.29 0 00-4 3.33 6.2 6.2 0 01-1.68 2.26 6 6 0 010 2.79c-.24 1.64-.49 3.39 1.28 5a.08.08 0 010 .08c-.31 2.53.85 3.7 2 4.82a6.28 6.28 0 011.62 2.37 6.19 6.19 0 012.7.84c1.5.73 3.12 1.51 5.26.37a.1.1 0 01.09 0c2.35 1.07 3.83.35 5.26-.35a6.38 6.38 0 012.7-.85 6 6 0 011.66-2.27c1.16-1.19 2.42-2.46 2-4.83a.11.11 0 010-.08c1.76-1.87 1.51-3.48 1.28-5a6 6 0 010-2.8 6.16 6.16 0 01-1.69-2.25c-.78-1.46-1.62-3-4-3.34 0 0-.05 0-.07-.05-1.26-2.23-2.89-2.5-4.46-2.76a6.33 6.33 0 01-2.72-.93zM13.84 9l-.18.1a.75.75 0 01-.18.08l-.18.08-.2.07-.19.07h-.21l-.21.05h-.22l-.22.05h-1.2l-.26.05-.26.06-.26.07-.26.08-.26.09-.27.11-.28.42-.27.14-.26.16-.26.18-.26.2-.25.23-.24.25-.24.28-.23.3-.27.39-.44.1-.36.11-.33.12-.31.16-.3.16-.27.17-.26.19-.24.2-.21.2-.21.22c-.06.07-.12.15-.19.22l-.17.23-.17.23-.15.24-.11.23-.13.23c0 .08-.09.16-.13.24l-.18.24-.24.44c0 .07-.07.14-.11.22l-.12.2-.11.2-.12.19-.12.18-.12.16-.12.15-.13.14a1.59 1.59 0 01-.13.13l-.14.12c-.59.42-.56.36-.35 1.05a1.42 1.42 0 000 .2v.39a1.27 1.27 0 000 .2 1.48 1.48 0 000 .21 1.48 1.48 0 010 .21V22.75a2.44 2.44 0 010 .27v1.12l.06.29c0 .1 0 .2.07.3s.07.2.1.3.07.2.11.31l.15.3.16.3.2.31c.07.1.14.21.22.31l.3.38c0 .14 0 .29-.05.44v1.06c0 .11 0 .22.07.33s.05.21.08.32.07.2.1.3l.12.28c0 .09.09.18.13.27l.15.26c.05.09.11.17.16.25l.16.24.18.22.17.22.19.21.18.2.18.19c.06.06.13.12.19.19l.18.18.17.18.17.17.16.18a1.29 1.29 0 01.16.17A1.15 1.15 0 015 33l.14.16.12.17.11.16.1.16a1.3 1.3 0 00.08.17s0 .1.07.16c.23.69.18.63.91.65H7.13l.19.06.2.06.2.07.2.09.2.09.21.09.21.1.21.11.22.11.23.1.23.11.23.1.25.11.25.09.26.09.28.08.27.07.3.05h1.59l.35-.06.35-.09.37-.11.45-.16.42.17c.12 0 .23.09.35.12l.35.1.34.07h1.6l.3-.06.28-.07.28-.08.27-.09.27-.1.26-.11.24-.11.25-.11.24-.11.23-.12.22-.11.22-.1.22-.1.21-.09.21-.09.2-.07.2-.07h.74c.74 0 .66 0 .92-.65a1.42 1.42 0 01.08-.18l.09-.18.1-.17.12-.16.12-.17c0-.06.09-.11.13-.16a2.09 2.09 0 00.14-.17c.06 0 .1-.11.15-.16l.16-.17.16-.16.34-.34.17-.18.18-.18.17-.19.18-.2.17-.21.16-.21.16-.23.15-.24.15-.26c0-.09.08-.18.13-.27s.08-.19.11-.28l.11-.3c0-.11.05-.21.08-.32l.07-.32v-.35-.36-.38-.47l.3-.34.22-.29c.07-.1.14-.2.2-.3s.12-.2.17-.3l.15-.3.12-.3c0-.1.06-.2.1-.3s0-.2.07-.3 0-.2 0-.3v-.3V23.15v-.28a2.45 2.45 0 000-.27v-.53-.26c0-.09 0-.33-.07-.49L28 21v-.46-.22a1.48 1.48 0 010-.21v-.2a1.34 1.34 0 010-.2v-.19a1.16 1.16 0 000-.18 1.36 1.36 0 010-.17c.22-.69.23-.61-.35-1.06l-.09-.11a.93.93 0 00-.14-.14l-.13-.15c0-.06-.09-.11-.13-.16l-.16-.19-.12-.17-.07-.19-.11-.18c0-.07-.07-.14-.11-.2l-.11-.2-.23-.42a2.12 2.12 0 00-.11-.21l-.14-.23-.13-.23-.14-.22-.15-.23-.16-.22-.17-.22-.19-.22-.2-.21a2.09 2.09 0 00-.22-.2l-.23-.2a2.48 2.48 0 01-.26-.19l-.28-.17-.29-.17-.32-.15-.34-.14-.36-.12-.47-.13c-.08-.13-.15-.26-.23-.38l-.21-.31-.23-.27-.23-.26-.19-.22-.25-.21-.27-.18-.26-.17-.27-.14-.28-.12-.27-.11-.27-.1-.32-.07-.27-.07-.27-.06-.53-.11-.26-.05-.48-.09h-.7l-.22-.05-.21-.06-.2-.06-.18-.07-.17-.07-.17-.09L15 9c-.63-.43-.55-.42-1.16 0zm1.42-.43l.12.07.13.07.15.06.16.06.17.06h.19l.2.05H17.06l.51.08.26.05.55.11.29.07.28.07.3.09.3.1.29.12.3.14.3.15.29.18.3.21.28.23.27.25.26.28.25.3c.08.11.15.23.23.33l.13.23.28.08.4.13.36.15.35.16.33.18.3.2.28.2.26.22.24.23.23.23.2.24.19.24.17.24.16.24a1.76 1.76 0 00.14.23l.13.23.13.23.12.22.22.42a2 2 0 01.11.2l.11.19.1.18.11.17.1.16.11.15a1.71 1.71 0 01.11.14l.12.13.12.11.12.11c.87.67.85.56.51 1.6V19.75a1.09 1.09 0 000 .18V21c0 .17.05.34.07.5s0 .18 0 .26v.28a2.46 2.46 0 010 .28v1.5a3.11 3.11 0 010 .32l-.06.33c0 .11-.05.23-.08.34s-.07.22-.11.33-.08.22-.13.33-.11.23-.16.34-.12.22-.19.33-.14.22-.22.33l-.24.32-.17.19a2.81 2.81 0 000 .29v.8c0 .12 0 .25-.05.37s-.05.24-.08.36l-.09.35-.11.33a2.88 2.88 0 00-.13.31l-.15.29-.15.29c-.06.08-.11.17-.17.26l-.17.25-.18.23-.19.23-.18.2-.18.2-.18.19-.17.18-.34.34-.16.16-.15.16-.14.15-.13.15-.12.16a.76.76 0 00-.11.14l-.1.15-.09.15s0 .09-.08.14a1 1 0 01-.07.15c-.37 1-.27 1-1.38 1H21.61l-.17.06-.19.07-.19.07-.2.09-.21.1-.22.1-.22.11-.23.11-.25.12-.25.11-.26.12-.27.11-.28.11-.29.09-.3.09-.31.08-.32.06h-1.4l-.38-.05-.37-.08-.38-.1-.39-.13-.24-.1-.27.09-.4.12-.38.1-.38.06-.37.05H11.1l-.32-.06-.3-.07-.3-.09-.18.17-.26-.11-.26-.1-.24-.11L9 36l-.23-.11-.22-.11-.21-.1-.21-.1-.19-.09-.2-.09-.18-.07-.19-.07-.17-.06-.2-.01h-.49c-1.11 0-1 0-1.37-1L5.07 34a.83.83 0 00-.07-.14 1 1 0 00-.08-.14l-.09-.14-.11-.14-.12-.16-.13-.15-.15-.13-.16-.17-.16-.2-.17-.18-.18-.18-.19-.2-.19-.19-.19-.21c-.06-.08-.13-.15-.19-.22l-.19-.23-.19-.22-.18-.25-.17-.27-.16-.31-.15-.3-.13-.31-.12-.34-.09-.34c0-.13 0-.25-.07-.37s0-.25 0-.37v-.39V27.08l-.18-.22-.26-.33-.21-.34-.18-.33c-.06-.11-.11-.22-.16-.33s-.09-.23-.13-.34-.07-.22-.1-.33l-.09-.33-.06-.32v-.32-.31V23a2.83 2.83 0 000-.29 2.45 2.45 0 000-.27 2.48 2.48 0 000-.27 2.17 2.17 0 000-.25v-.25V20.76a1.36 1.36 0 000-.2v-.21a1.28 1.28 0 010-.19V20v-.18-.49c-.31-1.05-.36-.94.53-1.59l.11-.09.11-.1.1-.12.11-.13.11-.15.28-.15.1-.18a1.74 1.74 0 00.11-.18l.12-.2a2.12 2.12 0 01.11-.21l.24-.45.13-.23.13-.24.14-.31.16-.24c0-.08.1-.17.16-.25l.18-.23.18-.28.21-.24.22-.24.25-.23.26-.23.29-.2.3-.2.29-.13.35-.16.37-.14.4-.12h.25l.16-.24.25-.33.26-.3.26-.27.28-.25.28-.22.29-.2.29-.18.29-.16.29-.13.3-.12.28-.1.29-.09.28-.07.28-.07.26-.05H12.33l.2-.05h.19l.18-.06.16-.06.16-.07.16-.07.14-.08c.96-1 .84-1.02 1.74-.38z"/><path class="cls-2" d="M14.31 29.68a.09.09 0 01-.08-.08.09.09 0 01.08-.09 6.73 6.73 0 003.82-1.18.11.11 0 01.12 0 .08.08 0 010 .12 7 7 0 01-1.87.9 6.92 6.92 0 01-2 .31M17.62 17.29l.07-.06.11-.09-.08-.14a1.8 1.8 0 00-.19-.2.08.08 0 01.06-.08 1.6 1.6 0 01.31 0 2.68 2.68 0 01-.07-.27v-.11a.55.55 0 00-.22 0 .19.19 0 00-.14.12.05.05 0 01-.05 0h-.09c-.12 0-.23 0-.27.22 0 .15.08.24.17.32h.06a.08.08 0 010 .05.21.21 0 00.12.14.46.46 0 00.21.1zm.08.12h-.07a.52.52 0 01-.3-.06.33.33 0 01-.2-.23.43.43 0 01-.23-.45c.07-.34.23-.33.41-.33a.43.43 0 01.2-.15.74.74 0 01.33 0s.05 0 .05.05a.85.85 0 010 .17 1.06 1.06 0 00.09.33.06.06 0 010 .09h-.27l.08.1a1.37 1.37 0 01.17.23.07.07 0 010 .09l-.16.12-.08.07z"/><path class="cls-2" d="M19 17.49l.06.08a.09.09 0 010 .12.1.1 0 01-.09 0l-.11-.06a2.53 2.53 0 00-.12-.23 1.08 1.08 0 01.29.09m-1 0h-.35a.09.09 0 01-.09-.09.1.1 0 010-.07l.15-.12.09-.08a.76.76 0 00-.13-.13 1.62 1.62 0 00-.18-.19.09.09 0 010-.13.93.93 0 01.29 0l-.06-.25a1.06 1.06 0 000-.19.1.1 0 01.06-.11.11.11 0 01.08 0 2 2 0 01.49.7v.06c-.15-.05-.28-.05-.43.21a.4.4 0 00.05.35z"/><path class="cls-2" d="M18.52 18.07h.16l.16-.07a1.55 1.55 0 00-.08-.23 1.59 1.59 0 00-.15-.29.09.09 0 010-.05s0-.06.08-.06a2.19 2.19 0 01.34.1v-.34-.14a.59.59 0 00-.26-.07.32.32 0 00-.22.08.06.06 0 01-.07 0h-.1c-.14-.05-.26-.09-.39.15s0 .32.08.44l.05.07a.11.11 0 010 .05.33.33 0 00.09.22.6.6 0 00.31.13zm.05.15h-.07a.56.56 0 01-.32-.17.37.37 0 01-.13-.33v-.05a.49.49 0 01-.09-.57c.19-.35.36-.29.56-.23h.06a.47.47 0 01.28-.09.8.8 0 01.37.11.07.07 0 010 .06 1.36 1.36 0 010 .2 1.44 1.44 0 000 .41.08.08 0 01-.05.09l-.18-.09-.16-.06a.89.89 0 00.08.17A2 2 0 0119 18a.07.07 0 010 .08l-.21.08-.12.05z"/><path class="cls-2" d="M19.1 18.39l-.24-.05-.4-.08a.09.09 0 010-.17l.21-.08.15-.06a2 2 0 00-.08-.22c0-.1-.09-.19-.14-.29a.07.07 0 010-.11.07.07 0 01.06 0 1.54 1.54 0 01.35.1 1.82 1.82 0 010-.32 2 2 0 000-.23.09.09 0 01.08-.09.08.08 0 01.07 0 2.18 2.18 0 01.3.91c-.13-.07-.26-.08-.43.14s-.06.37 0 .52"/><path class="cls-2" d="M19.49 19.08h.16-.13m0-.16h.33a1.78 1.78 0 00-.14-.55.07.07 0 01.09-.05 2.39 2.39 0 01.32.16 2.05 2.05 0 01.07-.34.57.57 0 000-.14.58.58 0 00-.24-.11.32.32 0 00-.23.05h-.16c-.13-.07-.25-.13-.42.09a.41.41 0 000 .45v.08a.28.28 0 000 .23.46.46 0 00.22.17zm.42.09l-.39.07h-.08a.6.6 0 01-.28-.22.42.42 0 01-.08-.34v-.06a.49.49 0 010-.58c.25-.31.41-.23.59-.13h.05a.49.49 0 01.29-.05.69.69 0 01.34.17.07.07 0 010 .07 1.33 1.33 0 01-.05.19 1.29 1.29 0 00-.08.41.07.07 0 01-.07.07.56.56 0 01-.13-.07l-.15-.09a3.06 3.06 0 01.1.51.09.09 0 01-.12.04z"/><path class="cls-2" d="M19.82 19.28h-.06a3.53 3.53 0 01-.39-.15.09.09 0 010-.12.08.08 0 01.06 0l.23-.05h.16a2.15 2.15 0 00-.14-.54.08.08 0 010-.11h.07a1.59 1.59 0 01.32.16c0-.1.05-.21.08-.31s.05-.16.06-.23a.08.08 0 01.1-.07.1.1 0 01.06.05 2.32 2.32 0 01.14 1v.1c-.18-.12-.29-.29-.58 0a.36.36 0 00-.11.39"/><path class="cls-2" d="M20.11 20h.33a1 1 0 000-.25 1.65 1.65 0 000-.32.07.07 0 010-.05.06.06 0 01.09 0 1.76 1.76 0 01.29.21 2.12 2.12 0 01.14-.31l.06-.14a.66.66 0 00-.22-.15.29.29 0 00-.24 0h-.06l-.09-.06c-.11-.1-.22-.18-.42 0s-.1.3-.07.44a.37.37 0 010 .09v.05a.24.24 0 000 .23.48.48 0 00.19.21m0 .16h-.07a.63.63 0 01-.24-.27.39.39 0 010-.35v-.07a.51.51 0 01.1-.58c.3-.26.44-.15.61 0a.44.44 0 01.3 0 .7.7 0 01.31.22v.08l-.08.18a1.66 1.66 0 00-.15.38.06.06 0 01-.07.06l-.11-.09-.14-.11a1.37 1.37 0 010 .19v.14c0 .05-.08 0-.08.08a.08.08 0 01-.07.07v.1h-.32z"/><path class="cls-2" d="M20.41 20.42h-.07a3.13 3.13 0 01-.36-.22.09.09 0 01.02-.2 1.75 1.75 0 00.23 0h.16v-.23a1.77 1.77 0 00-.05-.32.08.08 0 01.07-.1.07.07 0 01.06 0 1.76 1.76 0 01.29.21c0-.1.08-.19.13-.29a1.38 1.38 0 00.1-.22.1.1 0 01.11-.05.06.06 0 01.05.06 2.13 2.13 0 010 .94c-.16-.16-.24-.35-.58-.15s-.17.4-.17.57"/><path class="cls-2" d="M20.57 21h.29a2 2 0 000-.24 1.83 1.83 0 000-.33.07.07 0 01.1 0 1.42 1.42 0 01.24.25 1.27 1.27 0 01.18-.29l.09-.12a.57.57 0 00-.19-.19.31.31 0 00-.23 0 .08.08 0 01-.07 0L21 20c-.1-.11-.19-.2-.43-.06a.38.38 0 00-.13.42v.09a.27.27 0 000 .23.61.61 0 00.15.24zm0 .15h-.07a.64.64 0 01-.19-.3.43.43 0 010-.35v-.08a.51.51 0 01.2-.55c.34-.2.46-.07.6.09a.46.46 0 01.29.06.66.66 0 01.27.28.09.09 0 010 .07.83.83 0 01-.12.16 1.68 1.68 0 00-.21.36.05.05 0 01-.08 0l-.09-.11-.12-.13a1.09 1.09 0 010 .18 1.91 1.91 0 01-.06.33.07.07 0 01-.08.05h-.36z"/><path class="cls-2" d="M21.49 22.22v.18a.1.1 0 01-.11.06.09.09 0 01-.06-.06c0-.09-.05-.18-.07-.27l.09-.28a2.15 2.15 0 01.19.37m-.71-.79h-.06a2.8 2.8 0 01-.31-.28.09.09 0 010-.12.08.08 0 01.08 0h.39v-.23-.32a.11.11 0 01.08-.09h.06a3.07 3.07 0 01.25.26c.05-.09.12-.18.18-.27a1.62 1.62 0 00.13-.19.1.1 0 01.12 0 .13.13 0 010 .07 2.2 2.2 0 01-.21 1 .88.88 0 000 .15c-.09-.18-.14-.33-.49-.24a.38.38 0 00-.26.26z"/><path class="cls-2" d="M20.73 22.200000000000003a.13.13 0 000 .05h.1l.16.07a2.26 2.26 0 00.11-.22 2.81 2.81 0 00.1-.31.06.06 0 01.09 0 2 2 0 01.17.32l.26-.23.12-.09a.58.58 0 00-.14-.24.29.29 0 00-.21-.09.06.06 0 01-.06 0l-.05-.09c-.06-.13-.12-.25-.39-.17s-.22.23-.25.37v.08a.1.1 0 010 .05.24.24 0 00-.09.21.53.53 0 00.08.3zm-.07.14l-.05-.06a.71.71 0 01-.1-.35.4.4 0 01.14-.32v-.06c0-.18.08-.4.35-.47s.46.05.55.24v.05a.53.53 0 01.27.13.78.78 0 01.18.35.07.07 0 010 .07l-.15.12a1.19 1.19 0 00-.3.29.07.07 0 01-.1 0l-.07-.13a.77.77 0 00-.07-.16l-.06.17a2.1 2.1 0 01-.15.3.07.07 0 01-.09 0l-.21-.09-.12-.05z"/><path class="cls-2" d="M21.4 23.26v.17a1.61 1.61 0 01-.17.4.1.1 0 01-.12 0 .09.09 0 010-.08v-.12a1.88 1.88 0 00.34-.48v.08m-.52-.44l-.11-.16a3 3 0 01-.23-.35.09.09 0 010-.12.11.11 0 01.08 0l.21.09.14.07a2 2 0 00.1-.21 1.6 1.6 0 00.1-.31.1.1 0 01.11-.06h.05a2 2 0 01.17.32 2.41 2.41 0 01.24-.21l.18-.15a.11.11 0 01.13 0 .19.19 0 010 .08 2.13 2.13 0 01-.42.82c0-.14-.11-.25-.4-.24s-.28.31-.4.46z"/><path class="cls-2" d="M20.73 23.4l.09.07.14.11a1.56 1.56 0 00.16-.2 1.78 1.78 0 00.17-.27.06.06 0 01.09 0 1.39 1.39 0 01.09.35 2.85 2.85 0 01.3-.16l.14-.06a.57.57 0 00-.08-.26.28.28 0 00-.18-.14.08.08 0 01-.05-.05v-.1c0-.15-.05-.27-.33-.26s-.27.16-.33.29a.25.25 0 000 .07.27.27 0 00-.14.19.57.57 0 000 .29m-.09.12a.2.2 0 010-.08.73.73 0 010-.36.39.39 0 01.22-.28v-.05c.08-.16.18-.36.45-.37s.43.16.48.37v.05A.42.42 0 0122 23a.79.79 0 01.1.37.08.08 0 010 .06l-.18.09a1.54 1.54 0 00-.36.2.07.07 0 01-.1 0v-.14a1.16 1.16 0 000-.18 1.4 1.4 0 01-.1.16 2.52 2.52 0 01-.21.25.07.07 0 01-.1 0l-.18-.14-.1-.08z"/><path class="cls-2" d="M20.77 24.12l-.1-.28c-.05-.13-.1-.27-.14-.4a.09.09 0 01.06-.1.08.08 0 01.08 0l.18.14.13.09a1.43 1.43 0 00.15-.18 3.18 3.18 0 00.17-.27.08.08 0 01.11 0 1.39 1.39 0 01.09.35l.29-.14.21-.11a.1.1 0 01.12 0 .14.14 0 010 .09 2.38 2.38 0 01-.66.75h-.05a.47.47 0 00-.24-.16.43.43 0 00-.44.12"/><path class="cls-2" d="M20.31 24.68a.09.09 0 000 .05l.06.1.09.15a1.55 1.55 0 00.22-.12 1.57 1.57 0 00.26-.19h.05a.08.08 0 01.07.07 2.23 2.23 0 01-.05.36 2 2 0 01.34 0h.15a.63.63 0 000-.27.31.31 0 00-.11-.2v-.06-.11c0-.04.05-.27-.21-.37-.18-.06-.31.06-.42.16l-.07.05h-.05a.25.25 0 00-.2.12.44.44 0 00-.09.27zm-.14.08v-.09a.7.7 0 01.12-.34.4.4 0 01.3-.18.52.52 0 01.56-.18c.37.13.34.31.3.52v.06a.45.45 0 01.14.26.7.7 0 01-.06.38.05.05 0 01-.05 0h-.2a1.28 1.28 0 00-.41.05.08.08 0 01-.09 0v-.14a1.36 1.36 0 000-.17l-.16.1a1.59 1.59 0 01-.29.15h-.09a1.51 1.51 0 00-.12-.2l-.06-.11.13-.11z"/><path class="cls-2" d="M19.91 26.18l-.16.08a.08.08 0 01-.11-.05.08.08 0 010-.09l.15-.19a2.72 2.72 0 00.11.25m.16-.73v-.39a2.75 2.75 0 010-.41.1.1 0 01.1-.08s.05 0 .06.05c0 .06.08.13.12.2s.05.1.08.14l.2-.11a2.48 2.48 0 00.26-.19.08.08 0 01.12 0 1.47 1.47 0 010 .36 1.73 1.73 0 01.32 0h.24a.07.07 0 01.09.07.06.06 0 010 .07 1.68 1.68 0 01-.59.34c0-.08-.08-.16-.24-.25s-.44.07-.58.16a.28.28 0 00-.18 0z"/><path class="cls-2" d="M19.87 25.86v.05l.05.1c0 .06.05.11.07.16a.92.92 0 00.23-.09 2.09 2.09 0 00.29-.16s.07 0 .06.08a1.43 1.43 0 01-.09.34 1.93 1.93 0 01.34 0H21a.48.48 0 00.06-.26.29.29 0 00-.09-.21.07.07 0 010-.07v-.1c0-.15.08-.27-.17-.39a.4.4 0 00-.44.1l-.07.05h-.08a.25.25 0 00-.22.1.53.53 0 00-.12.25m-.15.06a.25.25 0 000-.08.78.78 0 01.16-.33.41.41 0 01.32-.14.52.52 0 01.58-.12c.35.18.3.35.24.56a.4.4 0 01.11.28.78.78 0 01-.09.37.08.08 0 01-.07 0h-.2a1.39 1.39 0 00-.41 0 .06.06 0 01-.08-.05v-.14a1.09 1.09 0 00.05-.17l-.16.09a2.85 2.85 0 01-.31.12h-.08l-.1-.21.05-.05z"/><path class="cls-2" d="M19.51 27.19a1.55 1.55 0 01-.4.17.09.09 0 01-.07 0 2.07 2.07 0 00.47-.18zm0-.72v-.26c0-.09 0-.28.07-.41a.09.09 0 01.1-.06s.06 0 .06.06a2.2 2.2 0 01.09.21l.07.14.22-.08.28-.16a.07.07 0 01.11 0 .07.07 0 010 .06 1.5 1.5 0 01-.09.35h.55a.08.08 0 01.09.08.08.08 0 010 .07 2.22 2.22 0 01-.95.34H20c0-.12 0-.24-.2-.38a.37.37 0 00-.24.04z"/><path class="cls-2" d="M18.87 27v.11a1.54 1.54 0 01.05.17l.24-.07a1.94 1.94 0 00.3-.13h.05a.07.07 0 010 .08 1.46 1.46 0 01-.12.33l.34.05h.15a.58.58 0 00.09-.25.36.36 0 00-.07-.22.07.07 0 010-.07.42.42 0 000-.1c.06-.14.11-.26-.13-.41s-.31 0-.44.06h-.16a.27.27 0 00-.22.08.43.43 0 00-.15.24m-.15 0v-.08a.72.72 0 01.2-.31.4.4 0 01.33-.11.52.52 0 01.59-.05c.33.21.26.38.18.57a.51.51 0 01.08.29.8.8 0 01-.14.36.09.09 0 01-.07 0h-.19a1.57 1.57 0 00-.42 0s-.07 0-.07-.06l.06-.13c0-.06.05-.11.07-.16l-.17.06-.32.09s-.08 0-.08-.06l-.07-.21a.84.84 0 010-.12l.09.05z"/><path class="cls-2" d="M18.29 28.29a1.39 1.39 0 01-.33.1.09.09 0 01-.1-.07.07.07 0 010-.08l.16-.14v.2h.21m.19-.72a2.76 2.76 0 00.08-.27 3.84 3.84 0 01.11-.4.08.08 0 01.11 0 .09.09 0 01.06.06 1.36 1.36 0 00.07.22v.15l.23-.06.29-.13a.08.08 0 01.12 0 .13.13 0 010 .06 2.26 2.26 0 01-.13.33 1.87 1.87 0 01.32 0h.23a.08.08 0 01.08.09.08.08 0 01-.05.07 1.77 1.77 0 01-.7.21c0-.1 0-.21-.15-.37s-.44-.05-.6 0a.42.42 0 00-.01.03z"/><path class="cls-2" d="M18.13 27.91v.1a1 1 0 010 .16h.24a1.29 1.29 0 00.31-.08.06.06 0 01.06 0s.06.07 0 .11a2 2 0 01-.19.31l.3.09.13.05a.48.48 0 00.12-.22.29.29 0 000-.22.11.11 0 010-.08l.05-.1c.08-.11.15-.22-.05-.4s-.29-.06-.42 0H18.51a.25.25 0 00-.22 0 .55.55 0 00-.19.21zm-.18 0v-.08a.72.72 0 01.25-.27.39.39 0 01.36 0h.07a.54.54 0 01.6.06c.3.28.2.43.08.62a.45.45 0 010 .3.73.73 0 01-.2.34.1.1 0 01-.09 0l-.19-.07a1.25 1.25 0 00-.39-.1.09.09 0 01-.09-.09v-.05l.08-.12a.41.41 0 00.07-.11h-.14a1.84 1.84 0 01-.33 0 .1.1 0 01-.09-.08v-.35a.06.06 0 01.06 0z"/><path class="cls-2" d="M17.59 28.51a2.28 2.28 0 00.17-.35c.06-.13.12-.26.18-.37a.1.1 0 01.12 0 .07.07 0 010 .07v.23a.77.77 0 010 .15h.24a2 2 0 00.31-.07.09.09 0 01.11.05.13.13 0 010 .06 1.39 1.39 0 01-.18.31l.3.09.22.08a.09.09 0 01.07.11.09.09 0 01-.06.06 2.27 2.27 0 01-1 .06h-.33a1.87 1.87 0 01-.41.15 1.65 1.65 0 01-.43.06c-.05 0-.09 0-.08-.08a.08.08 0 010-.08l.35-.21a2.48 2.48 0 00.3-.25M16.33 16.5l.05-.06.09-.09-.12-.12a1.33 1.33 0 00-.19-.14.06.06 0 010-.07 1.09 1.09 0 01.26 0 1.45 1.45 0 01-.09-.22v-.09a.28.28 0 00-.18 0 .25.25 0 00-.12.11h-.08c-.1 0-.19 0-.21.22a.3.3 0 00.19.25h.06a.17.17 0 00.12.11.34.34 0 00.2 0zm.08.1h-.06a.46.46 0 01-.26 0 .32.32 0 01-.2-.18c-.11-.07-.26-.16-.24-.36s.15-.31.31-.33a.33.33 0 01.16-.15.53.53 0 01.28 0 .07.07 0 01.05 0v.13a1.47 1.47 0 00.12.28.05.05 0 010 .08h-.24l.08.07a1 1 0 01.17.18.06.06 0 010 .08 1.36 1.36 0 00-.12.12l-.06.07z"/><path class="cls-2" d="M16.92 16.55l-.28.06-.29.06a.06.06 0 01-.08-.06.07.07 0 010-.07l.11-.11.08-.08-.11-.11a1.33 1.33 0 00-.19-.14.08.08 0 010-.1.1.1 0 01.05 0 2 2 0 01.24 0c0-.07-.05-.14-.07-.2l-.06-.17a.06.06 0 010-.09h.07a1.68 1.68 0 01.49.54c0 .07.09.14.14.2a.31.31 0 01.11.15.22.22 0 00-.19.15z"/><path class="cls-3" d="M14.57 29.6a3.73 3.73 0 012.26.64l-.47.05a3.62 3.62 0 00-1.79-.69m-.56 0a3.73 3.73 0 00-2.26.64l.47.05A3.62 3.62 0 0114 29.6z"/><path class="cls-2" d="M14.37 29.51a.09.09 0 010 .18A7 7 0 018.44 19a7.12 7.12 0 012.9-2.59l.18-.08.19-.08a.08.08 0 01.11 0 .09.09 0 01-.05.12l-.18.08-.17.08a6.82 6.82 0 002.95 13"/><path class="cls-2" d="M13 15.87a1.3 1.3 0 00-.44 0 1.55 1.55 0 00-.64.37l-.08.06a1.4 1.4 0 00.41.06 1.06 1.06 0 00.61-.23l.08-.07.22-.17a.86.86 0 00-.17 0m-.47-.17a1.61 1.61 0 01.49 0 1.34 1.34 0 01.44.15.08.08 0 010 .12.07.07 0 01-.07 0c-.1 0-.22.1-.35.21l-.09.07a1.12 1.12 0 01-.71.26 1.91 1.91 0 01-.64-.11.08.08 0 01-.06-.11.1.1 0 010-.05l.21-.16a1.73 1.73 0 01.81-.4zM11.74 16.78a1.24 1.24 0 00-.33 0 1.31 1.31 0 00-.53.21 1.34 1.34 0 00.27.07.74.74 0 00.48-.1h.07l.15-.09h-.08m-.34-.21a1.26 1.26 0 01.39 0 1 1 0 01.32.17.09.09 0 010 .13.08.08 0 01-.08 0 .53.53 0 00-.28.12l-.08.05a1 1 0 01-.58.12 1.43 1.43 0 01-.48-.16.09.09 0 010-.12l.19-.1a1.34 1.34 0 01.57-.3z"/><path class="cls-2" d="M11.15 15.8a1.11 1.11 0 00-.49.9v.07a1.87 1.87 0 00.29-.2.87.87 0 00.27-.51v-.1a1.24 1.24 0 010-.22l-.12.06m-.42.16a1.18 1.18 0 01.33-.3 1 1 0 01.38-.16.08.08 0 01.1.07.07.07 0 010 .08.75.75 0 00-.11.34.36.36 0 010 .1 1.05 1.05 0 01-.32.61 1.62 1.62 0 01-.5.3.1.1 0 01-.12 0v-.06c0-.06 0-.16.05-.23a1.62 1.62 0 01.24-.71zM9.93 16.56a.89.89 0 00-.23.29 1.37 1.37 0 00-.1.64v.07a1.81 1.81 0 00.24-.24.83.83 0 00.16-.52v-.32l-.09.08m-.39.21a1.44 1.44 0 01.27-.34.77.77 0 01.34-.21.08.08 0 01.11.05.1.1 0 010 .09c-.06.06-.06.19-.06.33v.11a1 1 0 01-.21.63 1.66 1.66 0 01-.43.37.08.08 0 01-.12 0v-.05a2 2 0 000-.24 1.61 1.61 0 01.12-.74z"/><path class="cls-2" d="M10.54 17.38a.88.88 0 00-.32 0 1.23 1.23 0 00-.47.33.87.87 0 00.28 0 .76.76 0 00.43-.21.46.46 0 00.07-.07l.12-.11h-.09m-.37-.13a1.2 1.2 0 01.38-.05 1 1 0 01.36.09.08.08 0 010 .12.08.08 0 01-.07 0 .64.64 0 00-.24.18l-.06.06A.91.91 0 0110 18a1.44 1.44 0 01-.51 0 .1.1 0 01-.07-.11 1 1 0 00.15-.14 1.45 1.45 0 01.6-.5zM8.87 17.49a1.63 1.63 0 00-.22.38 1.54 1.54 0 000 .77.37.37 0 000 .11 1.88 1.88 0 00.28-.34 1 1 0 00.13-.65.5.5 0 010-.12v-.28l-.13.13m-.39.32a1.59 1.59 0 01.26-.43 1.22 1.22 0 01.36-.3.09.09 0 01.12 0 .08.08 0 010 .08.82.82 0 000 .42.6.6 0 010 .12 1.15 1.15 0 01-.15.76 2 2 0 01-.45.5.08.08 0 01-.12 0v-.27a2.07 2.07 0 01-.08-.88z"/><path class="cls-2" d="M9.62 18.25a1.4 1.4 0 00-.35.1 1.42 1.42 0 00-.44.44v.05a1.65 1.65 0 00.32 0 .87.87 0 00.43-.31l.06-.08a1.11 1.11 0 01.12-.16zm-.43-.05a1.48 1.48 0 01.41-.12.83.83 0 01.39 0 .09.09 0 01.06.11.11.11 0 01-.07.06c-.07 0-.15.12-.23.23l-.06.08a.91.91 0 01-.52.37 1.49 1.49 0 01-.55.05.09.09 0 01-.09-.09.09.09 0 010-.06l.13-.17a1.67 1.67 0 01.53-.46zM9 19.31a1.46 1.46 0 00-.39.16 1.62 1.62 0 00-.47.56l-.05.07a1.23 1.23 0 00.41-.1 1 1 0 00.5-.39l.06-.1H9l.14-.22h-.16m-.49 0a1.52 1.52 0 01.51-.16 1.15 1.15 0 01.45 0 .09.09 0 01.07.11.07.07 0 01-.06.07c-.08 0-.16.16-.25.3l-.06.1a1.17 1.17 0 01-.57.48 2.41 2.41 0 01-.64.12.09.09 0 01-.09-.09.13.13 0 010-.06l.15-.22a1.72 1.72 0 01.53-.63z"/><path class="cls-2" d="M7.86 18.71a1.5 1.5 0 00-.14.44 1.72 1.72 0 00.16.79.76.76 0 000 .11 1.73 1.73 0 00.2-.41 1 1 0 000-.69.83.83 0 000-.12 2 2 0 01-.1-.29 1 1 0 00-.1.17m-.31.42a1.4 1.4 0 01.15-.49 1.1 1.1 0 01.3-.39.08.08 0 01.12 0 .1.1 0 010 .09.72.72 0 00.08.42v.12a1.23 1.23 0 010 .8 2.11 2.11 0 01-.22.62.09.09 0 01-.12 0v-.05a1.71 1.71 0 00-.17-.25 1.87 1.87 0 01-.16-.87zM8.36 20.72A1.36 1.36 0 008 21a1.75 1.75 0 00-.33.7v.11A1.79 1.79 0 008 21.6a1 1 0 00.38-.55v-.12a1.84 1.84 0 01.09-.28l-.18.07m-.49.15a1.49 1.49 0 01.41-.3 1.07 1.07 0 01.46-.13.08.08 0 01.09.08.12.12 0 010 .08.71.71 0 00-.17.37.93.93 0 000 .13 1.19 1.19 0 01-.44.64 2 2 0 01-.61.28.08.08 0 01-.12-.02.06.06 0 010-.06 2.76 2.76 0 00.08-.27 2 2 0 01.37-.8z"/><path class="cls-2" d="M7.1 20.46a1.44 1.44 0 000 .46 1.7 1.7 0 00.31.74l.06.1a1.66 1.66 0 00.12-.45 1.1 1.1 0 00-.16-.67l-.07-.1c0-.09-.11-.18-.15-.27a1.06 1.06 0 00-.06.19m-.23.48a1.51 1.51 0 01.06-.52 1.13 1.13 0 01.16-.42.08.08 0 01.12 0 .07.07 0 010 .08.84.84 0 00.17.39l.07.11a1.18 1.18 0 01.18.78 2 2 0 01-.2.66.09.09 0 01-.12.05l-.14-.25a1.93 1.93 0 01-.35-.88zM8.05 22.36a1.69 1.69 0 00-.28.38 1.94 1.94 0 00-.11.81.49.49 0 010 .12 1.48 1.48 0 00.34-.33 1 1 0 00.21-.67v-.13a1.58 1.58 0 010-.31 1.09 1.09 0 00-.17.13m-.43.31a1.31 1.31 0 01.31-.43 1.16 1.16 0 01.42-.24.1.1 0 01.12.06.08.08 0 010 .08.72.72 0 000 .44v.13a1.25 1.25 0 01-.25.78 2.11 2.11 0 01-.52.47.08.08 0 01-.12 0 .07.07 0 010-.06v-.29a1.74 1.74 0 01.05-.94z"/><path class="cls-2" d="M6.62 22.45a2 2 0 00.12.5 2.14 2.14 0 00.58.66l.1.08a2.29 2.29 0 000-.52 1.26 1.26 0 00-.42-.65l-.1-.08-.25-.22a1.85 1.85 0 000 .23m0 .57a1.73 1.73 0 01-.15-.55 1.47 1.47 0 010-.53.07.07 0 01.1-.06.1.1 0 01.07.07c0 .12.16.23.31.35l.11.09a1.38 1.38 0 01.46.74 2.73 2.73 0 010 .75.11.11 0 01-.05.12.08.08 0 01-.06 0l-.23-.21a2 2 0 01-.62-.79zM8.29 24.15a1.56 1.56 0 00-.17.5 1.87 1.87 0 00.14.89l.05.15a2.23 2.23 0 00.26-.48 1.15 1.15 0 000-.78 1.27 1.27 0 000-.14 2.68 2.68 0 01-.1-.35 1.53 1.53 0 00-.18.21zm-.35.47a1.59 1.59 0 01.2-.55 1.31 1.31 0 01.34-.42.08.08 0 01.12 0 .07.07 0 010 .08.77.77 0 00.08.49v.14a1.35 1.35 0 010 .89 2.42 2.42 0 01-.4.66.08.08 0 01-.12 0 .05.05 0 010-.05c0-.1-.06-.2-.1-.31a2.17 2.17 0 01-.12-.93z"/><path class="cls-2" d="M6.8 24.63a2 2 0 00.3.49 2.07 2.07 0 00.81.51l.15.07a2.07 2.07 0 00-.23-.56 1.33 1.33 0 00-.63-.55l-.14-.06a2.68 2.68 0 01-.34-.16c0 .08 0 .17.08.26m.17.61a2 2 0 01-.33-.54 1.5 1.5 0 01-.12-.57.08.08 0 01.09-.08.07.07 0 01.07 0 .92.92 0 00.45.28l.14.06a1.51 1.51 0 01.71.62 3 3 0 01.3.78.09.09 0 01-.07.11.07.07 0 01-.06 0l-.31-.14a2.26 2.26 0 01-.84-.52zM8.94 25.7a1.33 1.33 0 00-.06.52 2 2 0 00.34.84l.07.13a1.56 1.56 0 00.15-.52 1.16 1.16 0 00-.17-.76l-.06-.12a2.08 2.08 0 01-.21-.33 1.17 1.17 0 00-.09.24m-.24.53a1.65 1.65 0 01.07-.58 1.27 1.27 0 01.26-.48.08.08 0 01.12 0 .07.07 0 010 .08.87.87 0 00.19.45l.08.12a1.37 1.37 0 01.19.87 2.16 2.16 0 01-.24.73.08.08 0 01-.11 0l-.15-.28a2.16 2.16 0 01-.38-.91z"/><path class="cls-2" d="M7.6 26.51a1.73 1.73 0 00.4.41 2.37 2.37 0 00.92.29h.15a2 2 0 00-.35-.48 1.37 1.37 0 00-.72-.36h-.14l-.37-.07a1.14 1.14 0 00.15.23m.3.55a1.84 1.84 0 01-.44-.44 1.49 1.49 0 01-.26-.52.09.09 0 01.02-.12.08.08 0 01.09 0 .89.89 0 00.5.16H8a1.44 1.44 0 01.84.43 2.81 2.81 0 01.48.68.08.08 0 010 .12.07.07 0 01-.06 0l-.33-.06a2.31 2.31 0 01-1.03-.27zM10.12 27.09a1.49 1.49 0 00.06.52 2 2 0 00.52.74l.11.11a1.94 1.94 0 000-.54 1.13 1.13 0 00-.33-.7l-.1-.1a2.78 2.78 0 01-.24-.28 1.87 1.87 0 000 .25m-.11.57a1.85 1.85 0 01-.06-.58 1.21 1.21 0 01.13-.52.08.08 0 01.11 0 .08.08 0 01.05.07.84.84 0 00.28.4l.11.11a1.38 1.38 0 01.38.8 2.17 2.17 0 01-.07.77.08.08 0 01-.1.07.09.09 0 01-.05 0l-.22-.24a2.07 2.07 0 01-.59-.88z"/><path class="cls-2" d="M9 28.27a2 2 0 00.49.29 2.21 2.21 0 001 .05h.16a2.33 2.33 0 00-.46-.37 1.38 1.38 0 00-.9-.24h-.14a2.62 2.62 0 01-.38 0 .91.91 0 00.2.19m.43.45a1.94 1.94 0 01-.54-.31 1.4 1.4 0 01-.38-.33.08.08 0 010-.12.14.14 0 01.09 0 .82.82 0 00.53 0h.15a1.43 1.43 0 01.92.2 2.78 2.78 0 01.64.54.08.08 0 010 .12.05.05 0 01-.05 0h-.34a2.43 2.43 0 01-1.02-.02z"/><path class="cls-3" d="M21.35 29.72l-.63-.38.28.66zm.94.17l-.25.23-.4-.23-.46.42.19.41-.25.22-.82-1.82.25-.23zm-1.66 1.41l-1-1.25-.36.28-.2-.25 1-.77.2.26-.37.28 1 1.25zm-2.2 0l.2-.11a1 1 0 00.24-.14.22.22 0 00.05-.11.34.34 0 000-.16.36.36 0 00-.1-.11.19.19 0 00-.13 0 1.28 1.28 0 00-.23.11l-.22.12zm.24 1.12l-.9-1.68.59-.32a.81.81 0 01.34-.12.42.42 0 01.25.07.54.54 0 01.2.24.57.57 0 01.08.37.5.5 0 01-.19.29.79.79 0 01.22.06 2.92 2.92 0 01.31.19l.34.24-.33.18-.4-.26-.28-.17a.19.19 0 00-.12 0 .37.37 0 00-.15 0h-.06l.37.71zm-1.28-.37l-.39-.6v.74zm.78.55l-.33.1-.26-.37-.6.18V33l-.33.1v-2L17 31zm-3.29.68l-.2-1.9H15l.09.84.54-.91h.43l-.51.8.74 1.1h-.41l-.52-.85-.22.35.06.57zm-1.05-.78l-.15-.72-.27.68zm.52.8H14l-.09-.44-.63-.05-.16.42h-.34l.78-1.85h.33zm-2.79-.41l.21-.78-.27-1.22.36.1.16.83.55-.64.35.09-.84.92-.21.78zm-1.32-1.25l.14-.29.62.3-.34.69a1 1 0 01-.35.06 1.12 1.12 0 01-.38-.09.73.73 0 01-.32-.28.76.76 0 01-.1-.43 1.23 1.23 0 01.14-.53 1.27 1.27 0 01.33-.44.86.86 0 01.39-.18.69.69 0 01.41.08.67.67 0 01.34.32.68.68 0 010 .47l-.31-.07a.38.38 0 000-.26.37.37 0 00-.16-.17.4.4 0 00-.37 0 .74.74 0 00-.32.38.85.85 0 00-.11.53.36.36 0 00.22.27.38.38 0 00.19 0 .76.76 0 00.21 0l.11-.22zm-1.89-1.42a.82.82 0 00-.19.47.38.38 0 00.49.38.84.84 0 00.4-.33.87.87 0 00.2-.47.37.37 0 00-.15-.27.36.36 0 00-.35-.06.79.79 0 00-.4.28zM8.09 30a1.09 1.09 0 01.42-.39.78.78 0 01.4-.11.7.7 0 01.39.16.66.66 0 01.28.53 1.11 1.11 0 01-.27.71 1.08 1.08 0 01-.63.46.64.64 0 01-.57-.13.65.65 0 01-.29-.51 1.12 1.12 0 01.27-.72zm-1.55-.19l.59-.54.44-1.17.25.28-.32.78.81-.16.24.27-1.21.32-.59.53zM23 24.38l1.84.53-.09.3L24 25l-.18.6.73.2-.09.31-1.84-.53.09-.3.8.23.18-.6-.81-.23zm.85-.67l.72-.14-.68-.28zm-.82.5v-.34l.45-.09.06-.62-.39-.16v-.34l1.83.81v.33zm.1-2.46h.8l1.07-.67v.37l-.74.41.78.32v.36l-1.1-.54h-.8zm-.15-1l1.87-.36.06.31-1.91.35zM24.1 19l-1.19.41.08.23a.53.53 0 00.1.2.26.26 0 00.11.07.42.42 0 00.2 0 1.24 1.24 0 00.32-.08 1.37 1.37 0 00.31-.13.53.53 0 00.15-.15.27.27 0 000-.17 1.09 1.09 0 00-.07-.25zm.21-.4l.19.54a1.29 1.29 0 01.06.33.69.69 0 01-.09.25.91.91 0 01-.24.24 1.74 1.74 0 01-.41.2 1.46 1.46 0 01-.43.08.77.77 0 01-.32 0 .71.71 0 01-.22-.15.73.73 0 01-.15-.28l-.2-.56zm-1.47-.42l.52-.53-.73.16zm-.38.88l-.17-.3.32-.33-.31-.55-.44.1-.16-.3 2-.39.16.29zm-1.84-2.67l1.44-1.26.31.36-.8 1.07 1.17-.56.31.35-1.44 1.26-.19-.22 1.13-1-1.34.75-.2-.23.99-1.26-1.14 1zm-1.4-1.15l1.15-1.52.37.28-.55 1.21 1-.87.37.28-1.14 1.53-.23-.15.91-1.2-1.16 1-.24-.19.66-1.38-.91 1.2zm-.3-1.06l.13-.73-.51.53zm.18.93l-.31-.11.08-.45-.56-.29-.31.33-.3-.15L19.11 13l.3.16zM16.33 14l.56-1.82.3.09L17 13l.59.18.22-.72.3.09-.56 1.83-.3-.09.25-.8-.6-.18-.24.8zm-1.45-2h.32l-.07 1a2.44 2.44 0 000 .32.34.34 0 00.09.2.33.33 0 00.2.08.28.28 0 00.19 0 .24.24 0 00.1-.12 1.6 1.6 0 00.05-.37l.06-1.11h.31l-.07 1a2.5 2.5 0 01-.08.55.43.43 0 01-.2.26.6.6 0 01-.39.08.71.71 0 01-.37-.11.53.53 0 01-.19-.27 1.9 1.9 0 010-.58zm-2 2l-.09-2h.47l.38 1.28.19-1.32h.47l.13 1.91h-.29l-.1-1.5-.21 1.52h-.3l-.41-1.48.1 1.5zm-2.24 0l.29-.13c.1.22.25.3.43.24a.32.32 0 00.19-.14.21.21 0 000-.2.17.17 0 00-.06-.1.15.15 0 00-.1 0h-.3a1.42 1.42 0 01-.33 0 .66.66 0 01-.2-.14.52.52 0 01-.12-.22.58.58 0 010-.29.56.56 0 01.13-.24.79.79 0 01.73-.15.63.63 0 01.29.36l-.29.12c-.05-.1-.1-.16-.16-.18a.23.23 0 00-.2 0 .38.38 0 00-.17.11.17.17 0 000 .15.18.18 0 00.1.11 1.16 1.16 0 00.31 0 1 1 0 01.38 0 .49.49 0 01.21.14.59.59 0 01.14.26.56.56 0 010 .44.6.6 0 01-.4.31.62.62 0 01-.82-.45zm-.78.27l-.53-.51.16.72zm.88.38l-.3.17-.33-.31-.55.3.1.44-.29.16-.4-2 .3-.16zm-2 1.28l-.95-1.27-.37.29-.2-.26 1-.75.2.26-.37.27.95 1.22zm-.7.68l-1.33-1.37.22-.24 1.37 1.34zm-1.46.78l.17-.26c.21.12.37.11.49 0a.35.35 0 00.09-.22.25.25 0 00-.1-.18.19.19 0 00-.1-.05.23.23 0 00-.11 0l-.26.16a1 1 0 01-.28.15h-.21A.72.72 0 016 16.8a.53.53 0 01-.17-.23.5.5 0 010-.27A.62.62 0 016 16a.56.56 0 01.39-.24.57.57 0 01.44.14l-.19.25a.36.36 0 00-.23-.06.33.33 0 00-.17.11.34.34 0 00-.08.19.18.18 0 00.06.14.17.17 0 00.14 0 .86.86 0 00.28-.15 1.39 1.39 0 01.36-.13.53.53 0 01.25 0 .67.67 0 01.26.14.61.61 0 01.23.39.56.56 0 01-.17.47.61.61 0 01-.95.09zm-1 .93l.11-.21a1.72 1.72 0 00.11-.25.17.17 0 000-.12.31.31 0 00-.12-.1.34.34 0 00-.15 0 .22.22 0 00-.11.05 1.76 1.76 0 00-.13.22l-.14.09zm.82.8l-1.68-.9.28-.64a1.06 1.06 0 01.21-.3.41.41 0 01.25-.07.68.68 0 01.57.34.47.47 0 010 .35 1.11 1.11 0 01.22-.07 1.9 1.9 0 01.36 0h.42l-.17.33h-.78a.22.22 0 00-.11.05.29.29 0 00-.09.13v.05l.7.38zm-.49 1.37l-1.81-.67.38-1.1.31.11-.28.8.4.14.25-.77.31.11-.26.74.49.15.3-.79.3.11zm-.18 1l-2 .29.05-.34 1.45-.2-1.35-.57v-.33l1.81.82zm-.07 1l-1.91-.07v-.31l1.91.07zm.11 1.56l-1.9.2v-.3L5 23.19l-1.27.13v-.29l1.9-.2v.31l-1.13.76 1.24-.13zm-1.45 2l-.08-.3 1-.27.3-.1a.28.28 0 00.16-.14.28.28 0 000-.22.25.25 0 00-.09-.16.21.21 0 00-.16-.06 2 2 0 00-.36.08l-1 .27-.09-.27 1-.26a2.75 2.75 0 01.54-.1.46.46 0 01.32.11A.6.6 0 016 25a.65.65 0 010 .39.45.45 0 01-.18.25 1.82 1.82 0 01-.56.21zM23.27 26.37l-.61.53-.69-.42.32.74-.61.53.8-.07.31.74.18-.79.8-.06-.69-.42.19-.78zM6.25 26.37l-.61.53-.68-.42.31.74-.61.53.81-.07.31.74.18-.79.8-.06-.69-.42.18-.78zM11.28 23.74l-.76.25.13-.19.59-.17a.76.76 0 000 .11m.1.26l-1.29.57.21-.29 1-.4a.61.61 0 00.12.12zm.17.34l-1.51.91h-.4l.24-.33 1.63-.8a2 2 0 00.08.22zm.15.23l-.9.63h-.36l1.18-.76a1 1 0 00.12.13zm1.15-.81l-.16.12v-.07l.17-.11zm-1 1l-.47.39h-.23l.63-.49a.27.27 0 00.12.12zm1.08-.9l-.15.13v-.05l.16-.13zM12 25l-.09.09h-.15l.05-.14.1-.09zm1-1l-.14.14-.06-.07.15-.13zm-.8 1.18l-.52.61v-.24l.41-.44zm.92-1.07l-.13.15.14-.15zm-.69 1.25l-.82 1.14v-.35l.68-.87zm.82-1.15l-.12.17a.18.18 0 00-.07-.05l.13-.16zm-.51 1.35l-.88 1.59-.34.22v-.41l1-1.52a2 2 0 00.26.12zm.69-1.23l-.1.18-.12-.08.11-.17a.41.41 0 00.15.07zM13 25.69l-.45 1-.29.19.62-1.25zm.58-1.29l-.08.19h-.08l.09-.18zm-.33 1.39l-.2.57-.2.13.29-.74zm.47-1.33l-.07.19h-.06l.07-.19zm-.2 1.42v.11l-.11.11v-.26zm.36-1.37l-.05.2h-.09l.06-.19zm-.08 1.43l-.14.77-.1-.21.12-.58zm.25-1.39v.2H14v-.2zm0 1.43L14 27.36l-.16-.36.16-1zm.13-1.41v.2h-.08v-.19zm.3 1.43v1.81l-.18.36-.16-.37.08-1.8h.22zm0-1.41v.2h-.15v-.2h.13zm.29 1.41l.11 1.09-.15.31-.1-1.4zm-.16-1.4v.2h-.09v-.2zm.39 1.33l.11.59-.1.21-.09-.73zm-.26-1.38v.2h-.07v-.2zm.54 1.32v.25l-.1-.1v-.12zm-.39-1.36l.05.2h-.08l-.05-.2zm.63 1.28l.27.73-.19-.13-.18-.56zm-.49-1.33l.08.19h-.07l-.04-.16zm.76 1.22l.58 1.26-.28-.21-.43-1zm-.6-1.28l.08.18h-.07l-.08-.19zm.92 1.1l.98 1.5v.41l-.33-.23-.76-1.57zm-.74-1.2l.11.17-.12.07-.1-.18zm1 1l.65.87v.35l-.78-1.14zm.21-.17l.39.45v.23l-.5-.61zm.2-.2l.08.08v.15h-.14l-.08-.09a.47.47 0 00.15-.07zm.18-.2l.61.5h-.23l-.45-.39zm.17-.23l1.15.78h-.35l-.87-.65zm.19-.32l1.6.84.23.33h-.4l-1.54-.95a1.18 1.18 0 00.12-.18zm.12-.26l1 .42.2.29-1.26-.59a.43.43 0 00.07-.04zm.1-.25l.56.19.14.19-.74-.27s.04-.03.05-.07zm.07-.23h.1l.11.11h-.25zm0-1.68h.26l-.11.1h-.11a.74.74 0 01-.06-.06zm-.06-.19l.74-.25-.16.19-.54.17s-.05-.03-.06-.07zm-.1-.26l1.27-.56-.21.28-1 .4a.61.61 0 01-.08-.08zm-.2-.31l1.56-.91h.41l-.24.33-1.62.8a2 2 0 00-.11-.22zm-.15-.23l.89-.63h.35l-1.17.76a.41.41 0 00-.07-.12zm-.16-.21l.45-.39h.24l-.62.48zm-.21-.22l.09-.09h.15v.14l-.1.08zm-.17-.16l.52-.59v.23l-.4.43zm-.22-.18l.81-1.12v.35l-.68.85zm-.32-.2l.89-1.57.34-.23v.41l-1 1.5zm-.25-.13l.45-1 .3-.19-.63 1.24zm-.25-.1l.21-.56.19-.13-.29.73zm-.29-.09v-.12l.11-.11v.27zm-.25 0l.14-.77.1.21-.13.58zm-.28 0l.13-1.48.14.32-.14 1.07zm-.38 0v-1.81l.17-.36.17.37-.08 1.8h-.23zm-.28 0l-.11-1.08.15-.31.09 1.38zm-.26.05l-.11-.59.1-.21.12.78zm-.29.06v-.27l.1.1v.14zm-.24.09l-.25-.83.19.14.19.57zm-.26.11l-.6-1.26.28.2.43 1zm-.33.18l-1-1.54v-.41l.33.24.85 1.6zm-.23.16l-.66-.88v-.35l.76 1.1zm-.21.17l-.4-.46v-.23l.51.62zm-.22.21l-.1-.1v-.14h.14l.1.11zm-.15.17l-.62-.51h.24l.46.4zm-.17.23L10.52 20h.35l.89.66zm-.19.32l-1.61-.93-.23-.3h.4l1.55 1a2 2 0 00-.11.15zm-.12.25l-1-.43-.2-.29 1.27.6a.61.61 0 00-.07.04zm-.09.24l-.57-.18-.15-.19.75.27zm-.08.25h-.13l-.11-.1h.28s-.03-.02-.04.02zm0 1.64h-.27l.1-.1h.14zm1.46-3.24s.09 0 .06.09-.06 0-.06 0v.06a.09.09 0 01-.11 0h.13l-.01-.23zm-.85.72h.1v.06a.07.07 0 010 .08s-.08.06-.1 0h.05v-.05l-.04-.18zm.56 2.93s0 .09-.09.06 0-.07 0-.07h-.06a.09.09 0 010-.11v.07c0 .01 0 0 0 0l.16-.03zm3.09.93s.09.06 0 .1-.06 0-.06 0a.07.07 0 01-.06.06s-.1 0-.1-.05a.12.12 0 010-.05h.05v-.05h.07c.01 0 0 0 0 0l.11-.09zm-.83.38s.06.09 0 .11-.06 0-.07 0h-.07a.09.09 0 01-.07-.09h.07l.15-.1zm2.22-3.61s-.06.17-.16.15-.12-.07-.12-.11v-.07a.12.12 0 01-.09-.06v-.05l-.06-.08c-.06-.08-.13-.1-.17-.06l-.06.05-.05-.11a.62.62 0 00.11-.09s0-.06-.13-.13-.16-.14-.17-.19a.45.45 0 010-.08h-.27c-.07 0-.07-.12 0-.18a.28.28 0 01.09-.11s-.07.18 0 .22.16 0 .16 0a1.07 1.07 0 00.12-.19v-.07h.11a.7.7 0 00-.12.26.34.34 0 00.12.26.64.64 0 00.29.08h.06s-.12.09-.13.12 0 .06.05.1.05.07.08.09 0 .05 0 .07a.2.2 0 00.09 0s-.06.11 0 .14a.09.09 0 00.1 0zm.1 2.09s.18 0 .18.13 0 .13-.07.13H17a.11.11 0 010 .1l-.07.09c-.07.09-.06.14 0 .17l.07.05-.1.08s-.08-.09-.12-.09-.05 0-.09.16-.09.19-.14.21h-.07s.09.19 0 .27a.14.14 0 01-.16.08.18.18 0 01-.12-.06s.18 0 .2-.1a.28.28 0 000-.17.93.93 0 00-.21-.06H16v-.12a.73.73 0 00.28 0 .29.29 0 00.22-.18.78.78 0 000-.3.28.28 0 010-.06l.15.1s.06 0 .08-.08.06-.07.07-.1a.08.08 0 00.07 0 .46.46 0 000-.1H17c.01 0 0-.09 0-.09zm-.09-2.58s.12.09.16 0S17 21 17 21s.08.06.05.08a.17.17 0 01-.18.07zm-.39 2.7s.06-.14 0-.15-.12.06-.1.1v.05s0-.1.08-.07a.17.17 0 01.03-.01zm-1.18-4s.12.09.16 0 0-.13-.08-.12.08.07 0 .1a.17.17 0 01-.07-.03zm-2.48 4.85s.1.1.14 0 0-.13 0-.13h-.05s.07.08 0 .09a.13.13 0 01-.08-.01zm3.52-4.09l.47.22-.47-.21zm-.13 3.88l.1-.45-.11.45zm-3-4.44l.34-.26v-.05l-.34.25zm-.84.32l.34-.26v-.06l-.33.26zm3.71-.12s.12.09.19 0a.06.06 0 00-.05-.11v.07zM16 24.75s.06-.15 0-.2-.12 0-.09.08.08 0 .08 0zm-2.89.16s.19.06.25 0-.05-.11-.09-.09 0 .08 0 .08zm-.69-.51s.17.1.25 0 0-.12-.08-.11 0 .08 0 .08zm2.52.71s.15 0 .14-.13-.1-.07-.11 0S15 25 15 25zm-3.25-3.18s0-.15-.1-.16-.09.08-.05.1.07 0 .07 0zm3.73-1.7l.14-.05s.05.24-.1.33a.41.41 0 01-.5-.05.29.29 0 010-.31.24.24 0 01.12-.06.41.41 0 00-.06.22.29.29 0 00.27.19c.13 0 .2-.08.2-.13a.38.38 0 00-.11-.14zm.23 4.92v-.13s.22.07.22.24-.16.38-.29.37a.27.27 0 01-.25-.14.2.2 0 010-.13s.07.13.14.15a.26.26 0 00.29-.11.2.2 0 000-.23.45.45 0 00-.15-.02zm1.14-3.89v.08l-.04-.08zM16.62 24a.06.06 0 010-.06.05.05 0 01.05 0l-.05.06zm.21-2.55v-.05zm-.09 2.43a.05.05 0 01.05 0v.05l-.05-.1zm.15-2.56v-.05zm-.29 2.48v-.05a.05.05 0 01.05 0l-.05.05zm-1.32-3.75V20s-.02.05 0 .05zm.13 5.09h.05v.05h-.06l.01-.05zm.22-5.14v-.06h.24l-.05.07zm-.09 4.85v-.06l.09-.2v.07zm-.31.09v-.06l.16-.16v.08zm-.55.2v-.07l.19-.12v.08zm-.27.09v-.06l.2-.11v.08zm-.26 0v-.06h.22l-.05.06zm0-.08v-.06h.23v.06zm-.73 0l.06-.05.52-.1-.1.06zm3.63-3.37h.06l.21.12h-.08zm-.43 1.5h.06v.24h-.07zm-.14.18v.25l-.05-.07zm-2-3.62v-.06l.22-.1v.08zm-.41.63v-.06l.19-.16v.09zm-1 .3v-.05l.1-.16v.07zm-1.55.34l.16.07h-.06zm.9 2.7v.05l-.15.07v-.06zm-.93-.35l-.13-.11h.06zM13.83 20h-.06v-.34l.06.08zm.39-.34s-.11 0-.09.23a.71.71 0 010 .27v.07a.46.46 0 00.08-.33.57.57 0 01.01-.25zm-2.07 1s0 .12.13.21a.94.94 0 01.23.15h.05a.43.43 0 00-.21-.26.56.56 0 01-.2-.1zm.9-.54s-.07.06 0 .19a1 1 0 01.08.2.4.4 0 000-.26.74.74 0 01-.08-.13zm2.87-.06s-.12 0-.19.15a1.47 1.47 0 01-.13.25v.05a.47.47 0 00.24-.24 1.07 1.07 0 01.08-.21zm-.18 4.58s-.07.09 0 .23.11.18.14.22v.05a.43.43 0 00-.07-.3 1.07 1.07 0 01-.07-.2zm-1.62.36s-.1 0-.14.15-.06.18-.07.22a.39.39 0 00.16-.23.9.9 0 01.05-.14zm-1.56-.75s-.08-.08-.23 0l-.24.11h-.05a.41.41 0 00.31 0 1 1 0 01.21-.13zm4.65-2.4s-.08-.1-.25 0a1.4 1.4 0 01-.26.1h-.05a.45.45 0 00.33 0c.17-.13.23-.12.23-.12zm-.57 1.7s0 .08.14.11a.67.67 0 01.2.06.32.32 0 00-.2-.13c-.1-.04-.13-.07-.14-.06zm-3.26-3.27h-.05s.02-.02.05-.02zm.09.11s-.06.11-.1.1-.14-.07-.11-.16a1 1 0 01.09-.2.14.14 0 010-.07s.16.31.3.3.3-.08.27-.26-.07-.3 0-.39.06-.08.06-.08a1.81 1.81 0 000 .31c0 .11.08.31 0 .39a.43.43 0 01-.33.13.48.48 0 01-.18-.09zm1.16-.16v-.02zm.4-.57l-.03.14a.35.35 0 00-.15.11.71.71 0 00-.11.22.21.21 0 00.05.13v.08a.59.59 0 01-.2 0 .08.08 0 010-.12l.07-.09s0-.21-.12-.26l-.12-.07v-.17a1.35 1.35 0 01.23.24 1.45 1.45 0 01.08.18 1.84 1.84 0 01.23-.34.5.5 0 01.04-.07zm-2.15 1.1h.06c.06 0 0 0 0 .05h-.07s-.02-.05.01-.07zm0-.65v.16a.34.34 0 00-.07.17.51.51 0 00.05.22.35.35 0 00.12.07h.05v.08a1.16 1.16 0 01-.21.09.07.07 0 01-.09-.08v-.1s-.18-.14-.29-.12h-.16l-.13-.12a2.12 2.12 0 01.37 0l.19.09a1.58 1.58 0 010-.38.67.67 0 01.18-.1zm-1 1.82v-.08zm.2-.95h.15V21s.2 0 .25.09.07.15 0 .2a.56.56 0 01-.17.09.65.65 0 01-.07.34 1.25 1.25 0 01-.29.17v.1c0 .02-.07.06-.1 0a1.34 1.34 0 01-.11-.21v-.05a.64.64 0 00.29 0c.08 0 .22-.12.22-.27s0-.23-.11-.25-.1 0-.1 0l-.04-.09a1.35 1.35 0 00.35.2c.07 0 .12-.05.11-.09s0-.08-.08-.1-.19 0-.22-.08a.2.2 0 01-.09-.05zm5 2.55s-.09.07-.13 0 0-.16.05-.15a.2.2 0 01.21.17.29.29 0 01-.06.22s.06-.15 0-.19zM15 25.21a.26.26 0 010-.09.21.21 0 00.08.05h.06a.12.12 0 010 .1l-.14.08h.25a2.23 2.23 0 01-.2.18.36.36 0 01-.21.08h-.09v.06h-.12a.29.29 0 00-.11 0 .24.24 0 01-.18-.05s-.11.11-.18.1-.2-.05-.22-.11v-.06s.23.17.34 0a.16.16 0 000-.24h.1v.27s0 .09.09.09a.34.34 0 00.21-.07h.12a.27.27 0 00.18 0l.11-.12a.59.59 0 00-.14 0h-.07a.12.12 0 010-.11.79.79 0 01.16-.1zm-1.86.36s.27.2.43.06a1 1 0 00.24-.29h-.1c-.03 0-.06.1-.1.16a.45.45 0 01-.3.12.94.94 0 01-.15-.05zm.49-.35s-.09.17-.17.19-.12 0-.14 0h-.18v-.05a.92.92 0 01-.22 0h-.12s-.17.11-.28 0-.12-.09-.12-.14a.1.1 0 010-.07s.09.18.18.15.09-.06.09-.06-.08-.06 0-.09.12-.09.14 0a.35.35 0 010 .12.12.12 0 00.11.06.69.69 0 00.26 0v.13a.09.09 0 00.11 0v.08c0 .02.1 0 .11 0v-.05zm-.74-.77l-.08.11-.19.1c-.19.1-.2.26-.31.29s-.32 0-.35-.15 0-.25 0-.28a.17.17 0 01.13 0 .18.18 0 00-.14.15c0 .11.11.26.26.2s.35-.35.44-.38a.34.34 0 01.26-.04zm-1.12-1.15v0zm.5.86l-.11.1h-.06s-.13.14-.23.12-.15 0-.16-.1a.56.56 0 010-.19.88.88 0 01-.22-.24v-.32a.46.46 0 00.1-.14s-.05-.12 0-.13a.31.31 0 01.22 0 1.44 1.44 0 01.15.16s-.34 0-.36.13a.34.34 0 00.07.34c.11.09.2.13.26.08a.29.29 0 00.08-.07l.17.06a1.59 1.59 0 00-.37.14.11.11 0 000 .15h.13c.07 0 .16-.12.21-.12a.31.31 0 01.12.03zm.82-.88a.3.3 0 00.44.3 1 1 0 00.68-.66c0-.14 0-.28-.06-.26s-.33.16-.45 0-.18-.27-.32 0a3 3 0 00-.18.54.28.28 0 01-.11.08zm2.43-1.17a.07.07 0 01.06.07.06.06 0 01-.06.06.07.07 0 01-.07-.06.07.07 0 01.07-.07zm.16.51a.69.69 0 01-.07-.13s.16-.06.18-.11a.48.48 0 000-.19.21.21 0 00-.17-.15c-.15 0-.23 0-.28.05s0 .13 0 .21a.25.25 0 000 .08 3.93 3.93 0 00-.56.2.37.37 0 00-.18.35v.21s.11-.12.17-.13A.33.33 0 0115 23h.07a1.14 1.14 0 00-.27.31 1.72 1.72 0 00-.09.22s-.06.05-.16-.25-.21-.72-.21-.72a.49.49 0 00.14-.24.46.46 0 000-.16.79.79 0 01-.12.16c0 .05-.07.05-.07.05a2 2 0 01-.09-.37 1 1 0 010-.18 1.27 1.27 0 00-.14.32.45.45 0 000 .19v.09a.17.17 0 01-.2 0c-.12-.06-.17-.12-.16-.19a.5.5 0 010-.14.31.31 0 00-.35.15 5.15 5.15 0 00-.27.6.22.22 0 01-.29-.21 1.08 1.08 0 010-.38v-.05a1 1 0 00-.13.61.73.73 0 00.17.35.5.5 0 00.08.08s-.11.42.16.57.81-.14 1-.43l.18-.3s.19.72.43.84a.83.83 0 00.44.13h.13s-.12-.09-.13-.17a.36.36 0 010-.12 1 1 0 01-.32-.05.68.68 0 01-.14-.1s.29-.46.58-.53.55-.08.61-.15a1 1 0 00.12-.24.9.9 0 01-.51.1 4.85 4.85 0 01-.48-.1 1.15 1.15 0 01.21-.13.47.47 0 01.19-.05.64.64 0 00.14.1zm-.42.7l.29-.08a.1.1 0 010 .08s-.12.1-.12.16a.08.08 0 00.14.05.33.33 0 000-.08.22.22 0 010 .15.19.19 0 01-.23 0c-.08-.06 0-.17 0-.22a.32.32 0 01.08-.07.35.35 0 01-.13 0 .1.1 0 01-.03.01zm-.86.41a.32.32 0 000 .2c0 .1.05.14 0 .18s-.07.12-.06.16.09.06.13 0a.3.3 0 000-.25 1.25 1.25 0 01-.08-.22zm-.07-.25a3.89 3.89 0 01-.44.38l-.13.05-.06.29s.44-.4.52-.46l.08-.07zm-.76-.24l.06-.18h-.19l-.06.19zm.31-.21l.06-.19h-.18l-.06.16zm-.78-1l.06-.19h-.19l-.06.19zm.4-.18l.06-.19h-.19l-.06.19zm.78-.81s0 .15-.1.19l-.61.33.1-.23zm-.71 1a6.23 6.23 0 01.84-.51c.27-.1.34-.11.39-.21a1.11 1.11 0 00.09-.16l-.79.38a3 3 0 01-.35.17zm1.24-.43s.17.17 0 .24-.15 0-.16 0 0 .09-.14.11-.23-.09-.22-.16a.39.39 0 010-.11l.12.07v.06a.07.07 0 00.11 0v-.1s.12.06.16.05.05 0 0-.08.13-.1.13-.1zm.53-.17v-.02zm.19.21h-.12a2.93 2.93 0 01-.3.36.91.91 0 01-.19.16l.1-.25a.67.67 0 00.23-.16l.09-.13s-.11-.07-.09-.15.06-.15.13-.1.06.06.06.12v.06h.09a.18.18 0 010 .07zm4 .94l.37.18-.37.17-3.21-.15v.09l2.78.25-.32.15-2.47-.33v.09l2.15.39-.21.1-2-.43v.06l.19.05a.31.31 0 010 .08l-.19-.05v.05l.19.07a.14.14 0 000 .06l-.19-.06v.08l.18.08v.07l-.18-.08a.25.25 0 000 .07l.17.1a.75.75 0 01-.07.12l-.17-.1v.07l.16.11-.05.07-.16-.12v.07L16 24l-.15-.13-.07.07.15.14-.06.06-.14-.14-.06.05.13.15h-.06l-.12-.16-.07.06.12.16-.07.05-.11-.17a1.9 1.9 0 01-2.76-.6l-.18.1-.06-.13.18-.09a.25.25 0 010-.07l-.18.07v-.07l.18-.07v-.09l-.19.07a.19.19 0 000-.07l.19-.06h-.2a.19.19 0 000-.08l.2-.05a.11.11 0 010-.05l-2 .37-.21-.1 2.08-.22a.28.28 0 010-.09l-2.48.27-.33-.18 2.79-.19v-.09l-3.21.07-.37-.18.37-.17 3.21.15v-.08l-2.78-.26.32-.15 2.47.33v-.09L10.39 22l.21-.09 2 .42v-.05l-.19-.05v-.08h.19v-.06l-.18-.09v-.07l.18.07v-.08l-.19-.08a.25.25 0 010-.07l.18.08v-.08l-.17-.09a.75.75 0 01.07-.12l.17.1v-.07l-.16-.11.05-.07.16.12v-.07l-.15-.12.05-.06.14.13v-.05l-.14-.13.39-.03.13.14a.46.46 0 01.07-.07l-.2-.15h.06l.12.15.07-.06-.1-.21.07-.05.11.16.07-.05-.1-.16.12-.07.09.17h.08l-.08-.18h.07l.08.18h.08l-.07-.19h.07l.06.18h.08l-.05-.19h.08l.05.19h.08v-.2h.08v.2h.09v-.2h.09v.2h.08v-.39h.14v.19h.09v-.2h.08v.2h.09v-.19h.07v.19h.08v-.19h.08l-.06.18h.09l.07-.18h.07l-.08.19h.09l.08-.18h.07l-.09.17h.08l.1-.17.12.08-.11.16a.18.18 0 01.07 0l.12-.16.06.05-.12.15.07.06.13-.15h.05l-.13.14.05.05.14-.14.06.06-.15.14.07.07.15-.13v.06l-.15.12v.07l.16-.11.05.06-.17.11v.07l.17-.09.07.12-.18.09v.08l.18-.08v.07l-.18.07v.09l.19-.07a.14.14 0 000 .07l-.19.06.19-.05v.09h-.2a.24.24 0 010 .08l2-.38.21.1-2.17.34a.28.28 0 010 .09l2.48-.27.32.15-2.79.19a.28.28 0 000 .09z"/><path class="cls-4" d="M52.57 14C58.7 8.56 70.93-.24 85.56 0c19 .77 31.55 10.55 39.81 19 1.91 2 3 3.63-.44.94C117.67 14.36 104.17 5.39 90 3.59 76.86.86 61.25 9.44 53.39 14.58c-3.16 2.06-3.55 1.82-.82-.58z"/><path d="M64 18.63s3.18-4.29 3.76-5.39 2 .07 2 .07 2.79 1.81 3.51 1.3 3.5-2.93 3.5-2.93a1.73 1.73 0 012.34 0c1 1.11 3.83 3.77 3.83 3.77s.32.84 2.21.13 6.81-2.47 6.81-2.47 1.37-1 1.82.52 1.75 6.3 1.75 6.3.13.78 2 .84 5 0 5 0 2.34-.32 2.08 1a29.12 29.12 0 01-1.8 4.23l-.2-3.44-5.45-.13s-2.66.26-3.38-2-1.29-4.81-1.29-4.81-.13-1.16-1.24-.45A57.67 57.67 0 0185 17.66a4.68 4.68 0 01-3.19-.78 29.34 29.34 0 01-3.24-3.51s-.46-.52-1.37.13-3 2.47-3 2.47-.71.71-2.59.13a10.75 10.75 0 01-2.86-1.3s-4.63 4.48-4.75 3.83z" fill="#fac90e"/><path class="cls-4" d="M34 28.91c.92-1 2.25-2.22 2.95-2.88 1-1 3.12-2.53 8-1.43s8.44 2.79 10.64 2.6c4.31-.38 4.58-1.52 14.39-5.45 5.15-2.06 7.82-2.38 10.28-2.2 5.76.41 7.47 2.06 9.8 3.54C93 24.93 95.83 27.3 97 29.21c0 0 .07.6-1.75-.84-2.76-2.2-8.5-7.74-17.26-6.57a38.88 38.88 0 00-5.89 1.49c-4.45 1.25-11.51 5.86-16.19 6a16.59 16.59 0 01-4.14-.47c-2.08-.49-4.7-1.47-6.82-2.07-.93-.26-4.38-1.72-7.64.58-2.05 1.44-3 2.39-3.51 2.58s-.58-.12.2-1zM54.69 44a5.42 5.42 0 01.8.17 3.91 3.91 0 01.71.26V45h-5v-.57a3.24 3.24 0 01.6-.27 5.83 5.83 0 01.63-.16v-8.5a4.55 4.55 0 01-.66-.17 3.76 3.76 0 01-.57-.26v-.57h1.9c.4 0 .86 0 1.37-.07s1 0 1.42 0a7.91 7.91 0 011.55.15 4.07 4.07 0 011.35.54 2.84 2.84 0 011 1 3.5 3.5 0 010 3.09 3.06 3.06 0 01-.93 1.06 4.25 4.25 0 01-1.36.63 6.31 6.31 0 01-1.57.2h-1.25zm.81-8.65h-.47l-.34.07v4.57a2.5 2.5 0 00.4.05h.44a2.28 2.28 0 00.78-.13 1.89 1.89 0 00.67-.42 2.19 2.19 0 00.47-.74 2.91 2.91 0 00.18-1.08 2.42 2.42 0 00-.58-1.67 2.15 2.15 0 00-1.55-.61zM68.09 45h-5.16v-.57l.68-.25a5.06 5.06 0 01.77-.18v-8.49h-1.74l-1 2.57h-.61c0-.2-.08-.46-.12-.77s-.08-.63-.11-1-.05-.66-.07-1 0-.6 0-.83h9.54v.84c0 .32 0 .64-.08 1s-.06.65-.1.95-.08.57-.12.78h-.62l-1-2.57h-1.72V44a7.31 7.31 0 01.78.18 3.86 3.86 0 01.68.25zM70.64 44a1.17 1.17 0 01.36-.9 1.26 1.26 0 01.91-.33 1.32 1.32 0 01.93.33 1.15 1.15 0 01.36.88 1.1 1.1 0 01-.36.86 1.36 1.36 0 01-.93.32 1.29 1.29 0 01-.91-.32 1.13 1.13 0 01-.36-.84zM77.77 34.54h4.62v.57a3.18 3.18 0 01-1.14.43v5.78a3.92 3.92 0 00.17 1.23 1.93 1.93 0 00.48.8 1.8 1.8 0 00.75.45 3.46 3.46 0 001 .13 2.94 2.94 0 00.91-.14 1.82 1.82 0 00.72-.46 2.08 2.08 0 00.47-.83 4.06 4.06 0 00.17-1.25v-5.63a5.15 5.15 0 01-.71-.21 2.67 2.67 0 01-.61-.3v-.57h3.72v.57a2.43 2.43 0 01-.6.31 5.38 5.38 0 01-.65.2v5.64a3.51 3.51 0 01-3.87 3.92 4.75 4.75 0 01-3.1-.9A3.53 3.53 0 0179 41.4v-5.86a3.24 3.24 0 01-.63-.16 2.74 2.74 0 01-.6-.27zM102 45h-4.45v-.57a5.64 5.64 0 01.58-.25 3.74 3.74 0 01.62-.18v-6.24l.07-1.76h-.11l-.5 1.6-2.9 7.4h-.69l-2.88-7.37-.54-1.75h-.13V44a4 4 0 01.63.19 5.56 5.56 0 01.65.3V45H88.7v-.57l.59-.28A2.81 2.81 0 0190 44v-8.46l-.64-.16a2.15 2.15 0 01-.59-.27v-.57h4.06l2.3 6.1.43 1.44.44-1.47 2.34-6.07h3.72v.57a3.8 3.8 0 01-1.14.43v8.51a3.28 3.28 0 01.61.18c.19.08.37.16.52.24zM102.65 45v-.57a3.78 3.78 0 01.61-.28 2.15 2.15 0 01.62-.15v-8.5a6 6 0 01-.63-.17 4.16 4.16 0 01-.6-.26v-.57h4.67a9.14 9.14 0 011.4.1 3.87 3.87 0 011.19.38 2.14 2.14 0 01.85.75 2.31 2.31 0 01.31 1.26 2.39 2.39 0 01-.17.89 2.57 2.57 0 01-.48.73 2.88 2.88 0 01-.72.52 3.46 3.46 0 01-.89.3v.06a5 5 0 011 .23 2.78 2.78 0 01.88.48 2.5 2.5 0 01.64.79 2.39 2.39 0 01.25 1.11 2.63 2.63 0 01-.36 1.4 3 3 0 01-1 1 4.64 4.64 0 01-1.39.55 7.81 7.81 0 01-1.62.17h-2.76zm3.87-5.82h.51l.48-.06a2.11 2.11 0 00.95-.74 1.92 1.92 0 00.36-1.15 1.82 1.82 0 00-.49-1.39 1.89 1.89 0 00-1.28-.44h-.57a2.63 2.63 0 00-.43 0v3.74zm.66 4.94a2 2 0 001.49-.57 2.05 2.05 0 00.54-1.49 2.16 2.16 0 00-.18-.94 1.47 1.47 0 00-.49-.58 1.85 1.85 0 00-.75-.3 4.79 4.79 0 00-1-.09H106v3.86l.44.08c.2.05.43.07.74.07zM40.05 56.3a2 2 0 01.26.06 1 1 0 01.23.08v.19h-1.62v-.19l.2-.09.2-.05v-2.76l-.22-.06a.76.76 0 01-.18-.09v-.18h1.06a3.78 3.78 0 01.46 0 2.94 2.94 0 01.51 0 1.3 1.3 0 01.44.17.9.9 0 01.31.33 1 1 0 01.12.5 1 1 0 01-.12.5 1 1 0 01-.3.35 1.35 1.35 0 01-.44.2 1.81 1.81 0 01-.52.07h-.39zm.26-2.81h-.26V55h.27a.64.64 0 00.48-.18.7.7 0 00.2-.22 1 1 0 00.06-.35.78.78 0 00-.19-.58.72.72 0 00-.56-.18zM44.42 56.63h-1.68v-.19l.22-.08.25-.06v-2.77h-.57l-.31.83h-.2v-.25a3 3 0 010-.31v-.32-.27h3.11a2.62 2.62 0 010 .27v.63a1.45 1.45 0 010 .25h-.2l-.31-.83h-.57v2.77l.25.06a1.23 1.23 0 01.23.08zM45.25 56.28a.36.36 0 01.11-.28.46.46 0 01.6 0 .36.36 0 01.12.28.35.35 0 01-.12.28.46.46 0 01-.6 0 .34.34 0 01-.11-.28zM47.57 53.21h1.51v.18a1.16 1.16 0 01-.38.15v1.88a1.16 1.16 0 00.06.4.66.66 0 00.15.26.48.48 0 00.25.14 1.14 1.14 0 00.33.05.93.93 0 00.29-.05.61.61 0 00.24-.15.7.7 0 00.15-.27 1.21 1.21 0 000-.41v-1.83l-.17-.07-.2-.1v-.18H51v.18a.78.78 0 01-.2.11l-.21.06v1.84a1.28 1.28 0 01-.33 1 1.25 1.25 0 01-.93.32 1.52 1.52 0 01-1-.29 1.15 1.15 0 01-.36-.94v-1.9l-.2-.06a.61.61 0 01-.2-.09zM55.48 56.63H54v-.19l.19-.08.21-.06v-2.57l-.16.52-.95 2.42h-.22l-.94-2.4-.13-.61h-.1v2.62l.2.07.21.09v.19h-1.18v-.19l.19-.09a1.11 1.11 0 01.22-.07v-2.74l-.21-.06a.56.56 0 01-.19-.09v-.18h1.32l.75 2 .14.47.15-.48.76-2h1.21v.18a1 1 0 01-.18.09l-.19.06v2.77h.2l.17.08zM56.79 56.63h-1.21v-.19l.17-.08.18-.06 1.26-3.15h.36l1.23 3.15a1.39 1.39 0 01.19.06.67.67 0 01.17.08v.19h-1.53v-.19l.2-.08.19-.06-.29-.78h-1.06l-.29.78a1.36 1.36 0 01.43.14zm0-1.42h.86l-.32-.94-.09-.42-.11.43zM61.17 56.63h-1.68v-.19l.22-.08.29-.06v-2.77h-.6l-.32.83h-.2V53.21h3.11V54.36h-.2l-.32-.83h-.77v2.77l.25.06.22.08zM67.72 56.63h-1.46v-.19l.19-.08.2-.06v-2.57l-.16.52-1 2.42h-.22l-.94-2.4-.18-.57v2.62l.21.07.21.09v.19h-1.19v-.19l.19-.09a.94.94 0 01.22-.07v-2.78l-.21-.06a.48.48 0 01-.19-.09v-.18h1.32l.75 2 .14.47.14-.48.76-2h1.22v.18l-.18.09-.19.06v2.77h.19l.17.08zM69 56.63h-1.18v-.19l.17-.08.18-.06 1.26-3.15h.36L71 56.3l.2.06.17.08v.19h-1.51v-.19l.2-.08a1.66 1.66 0 01.21-.06l-.27-.78h-1.1l-.29.78a1.23 1.23 0 01.42.14zm0-1.42h.87l-.32-.94-.09-.42-.11.43zM73.79 53.21H75v.19l-.21.13-.21.08v3.08h-.41l-1.73-2.49-.19-.38v2.39a.74.74 0 01.22.08 1.2 1.2 0 01.2.11v.19h-1.2v-.19l.19-.11.22-.08v-2.63l-.2-.08-.17-.11v-.18h1l1.41 2 .22.42v-2.02l-.14-.09a1 1 0 01-.19-.12zM75.19 56.63v-.19l.19-.08.21-.06v-2.76l-.21-.07-.19-.08v-.18h1.5a2.58 2.58 0 01.76.11 1.78 1.78 0 01.57.33 1.4 1.4 0 01.35.53 1.86 1.86 0 01.13.73 2.13 2.13 0 01-.12.74 1.65 1.65 0 01-.35.57 1.51 1.51 0 01-.6.36 2.39 2.39 0 01-.84.13h-1.4zm1.44-3.14H76.3v2.83h.34a.9.9 0 00.48-.11 1.12 1.12 0 00.33-.32 1.54 1.54 0 00.18-.47 2.62 2.62 0 00.06-.57 2.24 2.24 0 00-.06-.52 1.34 1.34 0 00-.19-.44.92.92 0 00-.33-.32 1 1 0 00-.48-.08zM80.37 56.63h-1.53v-.19a1.19 1.19 0 01.4-.14v-2.76a.83.83 0 01-.21-.06.66.66 0 01-.19-.09v-.18h1.53v.18a.72.72 0 01-.2.09l-.2.06v2.76l.2.05.2.09zM81.74 56.3a.77.77 0 01.2.07l.17.07v.19h-1.5v-.19l.2-.09.2-.05v-2.76a1.52 1.52 0 01-.4-.15v-.18h1.55a2 2 0 01.5.06 1 1 0 01.39.19.83.83 0 01.26.3 1 1 0 01.09.43 1 1 0 01-.17.58 1.17 1.17 0 01-.47.34c.13.2.26.41.41.62a7.21 7.21 0 00.47.62l.23.15v.17h-.81l-.22-.16a2.73 2.73 0 01-.39-.62c-.12-.23-.22-.47-.31-.69h-.4zm.26-2.81a.9.9 0 00-.25 0v1.36H82a.58.58 0 00.43-.18.71.71 0 00.18-.53 1 1 0 000-.31.46.46 0 00-.14-.21.47.47 0 00-.2-.12.75.75 0 00-.27-.01zM85.59 56.63h-1.52v-.19a1.22 1.22 0 01.39-.14v-2.76l-.2-.06a.48.48 0 01-.19-.09v-.18h1.52v.18a.66.66 0 01-.19.09.83.83 0 01-.21.06v2.76l.21.05.19.09zM87.16 56.63v-.19l.19-.09a.8.8 0 01.21-.05v-2.76l-.21-.06a.84.84 0 01-.19-.09v-.18h1.52a3.4 3.4 0 01.45 0 1.8 1.8 0 01.39.12.76.76 0 01.28.25.83.83 0 01.1.41.72.72 0 01-.06.29.75.75 0 01-.15.24 1 1 0 01-.24.17.91.91 0 01-.29.1 1.23 1.23 0 01.32.07 1 1 0 01.28.16.64.64 0 01.21.25.87.87 0 01.08.37.84.84 0 01-.12.45.92.92 0 01-.31.31 1.17 1.17 0 01-.46.18 2.18 2.18 0 01-.52.06h-1.48zm1.26-1.9h.32a.67.67 0 00.31-.24.63.63 0 00.11-.38.58.58 0 00-.16-.45.55.55 0 00-.41-.14h-.33v1.21zm.21 1.61a.66.66 0 00.49-.18.71.71 0 00.17-.49.64.64 0 00-.06-.3.43.43 0 00-.16-.19.51.51 0 00-.24-.1 1.55 1.55 0 00-.31 0h-.26v1.26h.14zM92.9 53.21v.45c0 .15 0 .3-.07.44h-.2l-.22-.57h-.92v1.19h.6l.21-.37h.16a4.22 4.22 0 010 .53 4.68 4.68 0 010 .55h-.16l-.24-.43h-.6v1.27h1l.26-.62h.2v.21a2 2 0 010 .24 2.28 2.28 0 000 .26v.23h-2.59v-.19l.18-.08a1.41 1.41 0 01.22-.06v-2.72l-.21-.06a1.11 1.11 0 01-.19-.09v-.18zM94.41 56.3l.21.07.17.07v.19h-1.51v-.19a1.89 1.89 0 01.21-.09l.19-.05v-2.76a1.68 1.68 0 01-.4-.15v-.18h1.56a1.88 1.88 0 01.49.06 1 1 0 01.39.19.83.83 0 01.26.3 1 1 0 01.09.43 1 1 0 01-.17.58 1.1 1.1 0 01-.47.34l.41.62a7.21 7.21 0 00.47.62l.23.15v.17h-.81l-.21-.16a2.45 2.45 0 01-.4-.62c-.12-.23-.22-.47-.31-.69h-.4zm.25-2.81a.9.9 0 00-.25 0v1.36h.3a.56.56 0 00.42-.18.71.71 0 00.18-.53 1 1 0 000-.31.46.46 0 00-.14-.21.41.41 0 00-.2-.12.75.75 0 00-.31-.01zM98.54 53.21h1.31v.18a.56.56 0 01-.19.09l-.19.06-.93 1.17c.07.11.16.22.26.36l.32.41.36.43c.12.14.23.28.35.41l.23.14v.17h-.85l-.21-.14a3 3 0 01-.25-.32l-.26-.37-.25-.39c-.08-.13-.15-.26-.23-.38h-.21v1.27a1.17 1.17 0 01.2.06l.15.08v.19h-1.46v-.19l.2-.08.2-.06v-2.76a.9.9 0 01-.22-.06.51.51 0 01-.18-.09v-.18h1.48v.18a.53.53 0 01-.15.08l-.2.07v1.24l.29-.07.79-1.17-.19-.07a.67.67 0 01-.17-.08zM102.73 53.21v.45c0 .15 0 .3-.07.44h-.2l-.22-.57h-.92v1.19h.6l.22-.37h.15a4.22 4.22 0 010 .53 4.68 4.68 0 010 .55h-.15l-.22-.39h-.6v1.27h1l.26-.62h.2v.94h-2.65v-.19l.19-.08a1.29 1.29 0 01.21-.06v-2.76l-.21-.06a1.11 1.11 0 01-.19-.09v-.18zM107.46 56.63H106v-.19l.19-.08.2-.06v-2.57l-.17.52-.94 2.42h-.22l-.94-2.4-.18-.57v2.62l.21.07.21.09v.19h-1.2v-.19l.2-.09a1 1 0 01.21-.07v-2.78l-.2-.06a.61.61 0 01-.2-.09v-.18h1.33l.75 2 .14.47.15-.48.76-2h1.22v.18l-.18.09-.2.06v2.77h.2l.17.08zM108.77 56.63h-1.21v-.19l.17-.08.18-.06 1.26-3.15h.36l1.23 3.15.2.06.17.08v.19h-1.53v-.19l.2-.08.2-.06-.28-.78h-1.09l-.29.78a1.21 1.21 0 01.43.14zm0-1.42h.87l-.32-.94-.09-.42-.11.43zM111.26 53.21h1.5v.18a.56.56 0 01-.17.09.76.76 0 01-.2.06V56a1.56 1.56 0 01-.12.66 1.24 1.24 0 01-.28.4 1.16 1.16 0 01-.34.22l-.27.09-.1-.13a.64.64 0 00.15-.14 1.08 1.08 0 00.11-.24 1.39 1.39 0 00.09-.34 3.48 3.48 0 000-.49v-2.49l-.21-.06a.56.56 0 01-.19-.09zM113 53.21h1.5v.18a1.11 1.11 0 01-.37.15v1.88a1.5 1.5 0 000 .4.68.68 0 00.16.26.48.48 0 00.25.14 1 1 0 00.32.05.94.94 0 00.3-.05.57.57 0 00.23-.15.72.72 0 00.16-.27 1.53 1.53 0 000-.41v-1.83l-.23-.07a.75.75 0 01-.2-.1v-.18h1.21v.18a.72.72 0 01-.19.11l-.21.06v1.84a1.28 1.28 0 01-.33 1 1.25 1.25 0 01-.93.32 1.55 1.55 0 01-1-.29 1.18 1.18 0 01-.35-.94v-1.9a.83.83 0 01-.21-.06.56.56 0 01-.19-.09zM117.61 56.63h-1.2v-.19l.16-.08.18-.06 1.25-3.15h.36l1.22 3.15.2.06.17.08v.19h-1.53v-.19l.2-.08a1.66 1.66 0 01.21-.06l-.29-.78h-1.08l-.29.78a1.23 1.23 0 01.42.14zm0-1.42h.87l-.32-.94-.09-.42-.11.43zM122.37 53.21h1.21v.19a1.07 1.07 0 01-.21.13l-.21.08v3.08h-.41L121 54.2l-.19-.38v2.39a.74.74 0 01.22.08l.21.11v.19h-1.21v-.19l.19-.11.22-.08v-2.63l-.2-.08-.17-.11v-.18h1l1.41 2 .22.42v-2.02a1.57 1.57 0 01-.23-.09 1 1 0 01-.19-.12zM112.67 48.85c0 .22-14 .39-31.35.39S50 49.07 50 48.85s14-.4 31.34-.4 31.33.17 31.33.4z"/></g></g></svg>