<svg xmlns="http://www.w3.org/2000/svg" viewBox="0 0 35.26 28.71"><defs><style>.cls-1{fill:#004b2f}</style></defs><g id="Layer_2" data-name="Layer 2"><g id="Layer_1-2" data-name="Layer 1"><path class="cls-1" d="M17.39 28.71a1.07 1.07 0 01-.57-.16c-.61-.36-14.9-9.08-15.67-18.43a9.13 9.13 0 012.44-7A9.45 9.45 0 0110.51 0a9.1 9.1 0 016.79 3.13A9.07 9.07 0 0124.09 0a9.5 9.5 0 017 3.17 9 9 0 012.35 7c-.87 8.94-14.86 18-15.46 18.4a1.16 1.16 0 01-.59.14zM10.51 2.22A7.26 7.26 0 005.22 4.6a7 7 0 00-1.86 5.34c.6 7.24 11.35 14.62 14 16.34 2.64-1.79 13.2-9.43 13.88-16.36a6.77 6.77 0 00-1.79-5.26 7.29 7.29 0 00-5.36-2.44 7 7 0 00-5.86 3.35 1.15 1.15 0 01-1.87 0 7 7 0 00-5.85-3.35z"/><path class="cls-1" d="M17.52 20.38h-.13a1.1 1.1 0 01-.87-.7l-2.81-7.51-1.22 3.36a1.09 1.09 0 01-1 .72H1.07a1.11 1.11 0 010-2.22h9.67l1.95-5.36a1.08 1.08 0 011-.72 1.12 1.12 0 011 .71L17.81 17l2.67-3.87a1.06 1.06 0 01.87-.46h12.84a1.11 1.11 0 010 2.22H21.91l-3.51 5.03a1.07 1.07 0 01-.88.46z"/></g></g></svg>