<svg xmlns="http://www.w3.org/2000/svg" viewBox="0 0 43.31 21.37"><g data-name="Layer 2"><path d="M43 5.77c0-.37-.1-.77-.16-1.11 0-.21-.05-.41-.09-.62v-.17c-.1-.6-.19-1.2-.3-1.84a3.4 3.4 0 00-.21-.8A2 2 0 0040.28 0H9.44a3 3 0 00-2.5 1.29L6.1 2.48l-1 1.41-1.73 2.47c-.07.09-.35.37-.56.58a12.12 12.12 0 00-1.44 1.61C-.3 10.94 0 15.64.1 17c.1 1.13 1.26 1.14 2.19 1.15a4.32 4.32 0 001.09 1.94 4.23 4.23 0 003 1.25 4.21 4.21 0 004.09-3.15h18.37a4.3 4.3 0 001.08 1.91 4.25 4.25 0 003 1.25A4.24 4.24 0 0037 18.22h4.81c.71-.07 1.51-.16 1.49-7.36V10a20 20 0 00-.3-4.23zm-36.1-.6l1-1.41.83-1.18a.8.8 0 01.7-.36h30.78v.21c.1.59.19 1.18.28 1.77l.11.76c.06.41.12.83.21 1.24 0 .18 0 .36.08.54H5.8zm1 13.36a2.06 2.06 0 01-2.88 0 2 2 0 01-.59-1.44 2 2 0 012-2 2 2 0 011.44.61 1.94 1.94 0 01.57 1.44 1.89 1.89 0 01-.56 1.39zm26.5 0a2.06 2.06 0 01-2.88 0 2 2 0 011.43-3.46 2 2 0 011.45.61 2 2 0 01.56 1.44 1.93 1.93 0 01-.58 1.41zM41.08 10v.81c0 .62-.14 3.72-.29 5.17h-3.28A4.62 4.62 0 0035 12.9a4.54 4.54 0 00-3.14-.35 4.62 4.62 0 00-3.27 2.82 3.83 3.83 0 00-.2.63H11a4.47 4.47 0 00-2.62-3.15 4.52 4.52 0 00-4.4.28A4.68 4.68 0 002.22 15c0-2.08.26-4.19 1-5.23a7.42 7.42 0 01.7-.77h37.16z" fill="#004b2f" data-name="Layer 1"/></g></svg>