<svg xmlns="http://www.w3.org/2000/svg" viewBox="0 0 46.58 19.97"><defs><style>.cls-1{fill:#004b2f}</style></defs><g id="Layer_2" data-name="Layer 2"><g id="Layer_1-2" data-name="Layer 1"><path class="cls-1" d="M14.05 17.55l.19-1.05a4.09 4.09 0 00-2-4.7 3.8 3.8 0 00-4.33.2 4 4 0 00-1.67 4.4l.17 1h-1l-.13-.87v.87h-.83l-2-.09a2.22 2.22 0 01-2-1.59A7 7 0 010 12.56a5.14 5.14 0 011.25-3.08 7 7 0 013.06-2.05 29.55 29.55 0 013.05-.82c1.09-.25 2.19-.47 3.3-.7l1.07-.21a4.84 4.84 0 001.6-.81l.3-.2a34.15 34.15 0 014.92-2.89A20.47 20.47 0 0125.74 0a23.13 23.13 0 015.6.35 14.32 14.32 0 016.52 3l.22.19a6.43 6.43 0 01.73.64 2.8 2.8 0 001.83.82c1 .1 1.9.2 2.85.27a2.6 2.6 0 012.32 1.82 11.17 11.17 0 01.69 3.24 15.07 15.07 0 01-.21 4.56 2 2 0 01-2 1.86l-1.88.2-1.94.21.14-1.12a4.1 4.1 0 00-7.25-3.24 4.14 4.14 0 00-.82 3.51l.22 1.06zm-3.83-8.09a5.83 5.83 0 012.88.8 5.66 5.66 0 013 5.5l14.54-.13A5.86 5.86 0 0132 11.7a6 6 0 014.55-2.2 5.89 5.89 0 014.43 2 5.83 5.83 0 011.46 3.67c.56 0 1.1-.11 1.64-.18a2.52 2.52 0 00.43-.08s0-.1.1-.39a13.56 13.56 0 00.17-4 9.24 9.24 0 00-.57-2.73c-.22-.56-.46-.68-.8-.71-1-.07-1.94-.17-2.91-.28a4.58 4.58 0 01-2.91-1.3c-.18-.18-.38-.34-.57-.5l-.25-.2A12.47 12.47 0 0031 2.14a21 21 0 00-5.16-.33 18.76 18.76 0 00-6.56 1.61 31.78 31.78 0 00-4.66 2.75l-.31.2a6.21 6.21 0 01-2.22 1.07L11 7.66c-1.09.22-2.18.44-3.26.68a25.1 25.1 0 00-2.85.77 5.19 5.19 0 00-2.3 1.53 3.37 3.37 0 00-.79 2 5.36 5.36 0 00.2 2.43c.19.46.33.47.45.47l1.89.09a5.67 5.67 0 012.52-5.06 5.71 5.71 0 013.36-1.11z"/><path class="cls-1" d="M24.18 8.06L22.52 8h-3.91c-.43 0-.86 0-1.29-.08h-.13a1.15 1.15 0 01-1-.67 1.09 1.09 0 01.23-1.15 6.6 6.6 0 011.07-1 13.31 13.31 0 014.11-2.02A23.43 23.43 0 0128 2h.3a12 12 0 016 1.49 5 5 0 011.59 1.33 2.39 2.39 0 01.31.56 1.39 1.39 0 010 1.18 1.35 1.35 0 01-1 .67h-.15a14.47 14.47 0 01-2 .34c-2.24.15-4.45.26-6.32.34h-1.62zM18.87 6.2l3.68.06h.77v-.05h3.29c1.86-.08 4.06-.18 6.28-.33a9.29 9.29 0 001.34-.21 4 4 0 00-.81-.59 10.14 10.14 0 00-5.14-1.25H28a21.77 21.77 0 00-5.89 1 12.28 12.28 0 00-3.24 1.37zM36.48 20a5.1 5.1 0 01-5.09-5 5 5 0 011.43-3.58 5 5 0 013.62-1.54A5.08 5.08 0 1136.49 20zm0-8.39a3.37 3.37 0 00-2.39 1 3.2 3.2 0 00-.92 2.31 3.31 3.31 0 103.31-3.32zM10.42 20a5.05 5.05 0 115-5 5 5 0 01-5 5zm0-8.32a3.28 3.28 0 000 6.55A3.3 3.3 0 0013.68 15a3.24 3.24 0 00-3.26-3.35z"/></g></g></svg>