<svg xmlns="http://www.w3.org/2000/svg" viewBox="0 0 38.74 26.21"><g data-name="Layer 2"><path d="M38.06 12.53a1 1 0 00-.28-.22L14.54.13a1.07 1.07 0 00-.94 0L1 5.33a1.1 1.1 0 00-.31.2 1.17 1.17 0 00-.37.22 1.13 1.13 0 00-.32.82v6.35a1.11 1.11 0 00.61 1l23.7 12.19a1.08 1.08 0 00.5.12 1.16 1.16 0 00.42-.08L38 20.88a1.11 1.11 0 00.69-1v-6.34a1.09 1.09 0 00-.63-1.01zm-22 .24L26 8.63l2.29 1.2L18.4 14zM17.48 16v4.08l-2.75-1.41v-4.11zm2.22 1.17l3.9 2v4l-3.9-2zm5.06.14l-3.81-2 9.87-4.14 3.83 2zM14 2.34l9.46 5-9.88 4.15-9.47-5zM2.22 11.16L7.86 14a1.11 1.11 0 00.5.12 1.12 1.12 0 00.5-2.12L2.22 8.68V8l10.29 5.4v4.12L2.22 12.24zm23.6 12.33v-4.21l10.7-4.47v1.24l-7 2.55a1.11 1.11 0 00.38 2.16 1.06 1.06 0 00.38-.07l6.24-2.27v.68z" fill="#004b2f" data-name="Layer 1"/></g></svg>