<svg xmlns="http://www.w3.org/2000/svg" viewBox="0 0 41.94 24.25"><defs><style>.cls-1{fill:#004b2f}</style></defs><g id="Layer_2" data-name="Layer 2"><g id="Layer_1-2" data-name="Layer 1"><path class="cls-1" d="M5.79 16.14A3.87 3.87 0 019.52 11h7.37a3.9 3.9 0 013.74 5.13h2.21A5.79 5.79 0 0023 15a6.08 6.08 0 00-6.07-6.08H9.52A6.08 6.08 0 003.45 15a5.79 5.79 0 00.12 1.19z"/><path class="cls-1" d="M41.85 15.7a1.08 1.08 0 00-1-.62h-8.42l-.23 2.13h6.31l-4.32 4.91h-2.52l-.12 1.07h-7.77l-.11-1.07H7.37l-4-4.91h19.8L23 15.08H1.07a1.06 1.06 0 00-1 .61 1.08 1.08 0 00.14 1.13l5.81 7a1 1 0 00.82.39h27.8a1.05 1.05 0 00.8-.36l6.2-7a1.08 1.08 0 00.21-1.15z"/><path class="cls-1" d="M31.55 24.25h-7.77a1.07 1.07 0 01-1.07-1L21.09 7.18a1.07 1.07 0 01.27-.82 1 1 0 01.79-.36h11.14a1.08 1.08 0 01.79.35 1.1 1.1 0 01.27.83L32.61 23.3a1.06 1.06 0 01-1.06.95zm-6.81-2.13h5.86l1.5-14h-8.77z"/><path class="cls-1" d="M30.13 7.71h-.18a1.07 1.07 0 01-.87-1.23l.64-3.81c.22-1.16.94-2.5 2.28-2.58S33.83 0 33.85 0a1.07 1.07 0 110 2.13s-.5 0-1.72.08a2.87 2.87 0 00-.31.82l-.64 3.79a1.07 1.07 0 01-1.05.89z"/></g></g></svg>