<svg xmlns="http://www.w3.org/2000/svg" viewBox="0 0 31.57 28.51"><g data-name="Layer 2"><path d="M31.35 12.73L22.91.54a1.31 1.31 0 00-.11-.12l-.13-.13-.23-.14-.15-.07A.88.88 0 0022 0h-.15a1.14 1.14 0 00-.44.08L9.58 4.67l-.15.07L.65 9.6a1.25 1.25 0 00.6 2.4 1.21 1.21 0 00.46-.08l1.3-.5v9.37s-.14 2.4.8 3.1l12.08 4.59a1.09 1.09 0 00.82 0l11.84-4.59a1.27 1.27 0 00.8-1.17v-7.59l1.34-.52a1.23 1.23 0 00.74-.8 1.25 1.25 0 00-.08-1.08zM15.09 25.44L5.52 21.8V11.3l2.9-2 1.94-.76.84 1.21 3.89 5.89zm11.83-3.63l-9.33 3.61v-7.1a1.27 1.27 0 001.51.82l7.84-3zm-8-5.3l-5.64-8.19-1.2-1.82 1-.39.66-.37 7.66-3 7 10.07z" fill="#004b2f" data-name="Layer 1"/></g></svg>