<svg xmlns="http://www.w3.org/2000/svg" viewBox="0 0 30.69 37.73"><g data-name="Layer 2"><path d="M29.49 16.09A4.07 4.07 0 0023.07 21a14.6 14.6 0 00-.56 5.28 27.81 27.81 0 01-.07 3.41 5.84 5.84 0 01-3.26 4.9 4.92 4.92 0 01-2.05.45H17a4.33 4.33 0 01-2-.52 4.76 4.76 0 01-2.24-4.32c0-1 0-2.93-.05-4.61v-.84-.56c3-.69 6.11-3.56 8.14-7.71a18.57 18.57 0 001.69-5.18 11.18 11.18 0 00-.21-5.07 6.7 6.7 0 00-5.66-4.8h-.15c-.49-.08-.88-.18-1.07-.58a1.38 1.38 0 00-1.8-.69A1.36 1.36 0 0013 1.91a3.63 3.63 0 003.13 2.15h.15A4 4 0 0119.77 7a8.64 8.64 0 01.13 3.84 15.88 15.88 0 01-1.45 4.42c-1.85 3.79-4.69 6.33-7.06 6.33s-5.19-2.48-7.07-6.33a16.29 16.29 0 01-1.45-4.43A8.6 8.6 0 013 7a4.09 4.09 0 013.51-2.92h.14a3.63 3.63 0 003.11-2.17 1.37 1.37 0 00-.68-1.8 1.4 1.4 0 00-1.8.69c-.19.41-.58.5-1.1.58L6 1.41A6.67 6.67 0 00.4 6.2a11.16 11.16 0 00-.21 5.07 18.78 18.78 0 001.69 5.18c2 4.16 5.13 7 8.16 7.71v6.08a7.37 7.37 0 003.65 6.63 7 7 0 003.24.85h.16A7.69 7.69 0 0020.3 37a8.48 8.48 0 004.84-7 26.46 26.46 0 00.08-3.67v-.13a18 18 0 01.18-3.35 4.09 4.09 0 001.21.2 4.07 4.07 0 002.88-7zM28 19a1.31 1.31 0 01-.4 1 1.38 1.38 0 01-1.92 0 1.31 1.31 0 01-.4-1 1.35 1.35 0 01.4-1 1.31 1.31 0 011-.4A1.37 1.37 0 0128 19z" fill="#004b2f" data-name="Layer 1"/></g></svg>