<svg xmlns="http://www.w3.org/2000/svg" viewBox="0 0 30.46 30.88"><g data-name="Layer 2"><path d="M14.28 11.88l1-1.65.95 1.65zM4.56 2.31H25.9a2.25 2.25 0 012.24 2.25v14.53a2.24 2.24 0 01-2.24 2.24h-3.35a1.16 1.16 0 00-1.15 1.15v4.94c0 .46-.1.55-.38.3L15.93 23c-1.83-1.68-2.06-1.68-4.47-1.68h-6.9A2.24 2.24 0 013 20.67a2.23 2.23 0 01-.65-1.58V4.56a2.24 2.24 0 012.21-2.25zM25.9 0H4.56a4.54 4.54 0 00-3.22 1.34A4.54 4.54 0 000 4.56v14.53a4.54 4.54 0 001.34 3.22 4.51 4.51 0 003.22 1.34h6.9c1.58 0 1.74 0 2.9 1.07l5.34 4.92a.69.69 0 00.13.11l.34.26a3 3 0 001.79.87c1.13 0 1.77-.84 1.76-3.45v-3.78h2.18a4.5 4.5 0 003.21-1.34 4.59 4.59 0 001.34-3.22V4.56a4.59 4.59 0 00-1.34-3.22A4.5 4.5 0 0025.9 0zm-9.63 7.42a1.08 1.08 0 00-.46-.51 1.15 1.15 0 00-.56-.15 1.12 1.12 0 00-.56.15 1.16 1.16 0 00-.47.51l-4.12 7.14a1.15 1.15 0 102 1.15l.88-1.52h4.57l.89 1.52a1.15 1.15 0 102-1.15z" fill="#004b2f" data-name="Layer 1"/></g></svg>