<svg xmlns="http://www.w3.org/2000/svg" viewBox="0 0 34.42 37.19"><g data-name="Layer 2"><path d="M34.22 23.21l-7.47-10.8-.1-.1-.11-.12a1.06 1.06 0 00-.2-.12L26.2 12a1 1 0 00-.2 0h-.13a1.34 1.34 0 00-.39.07l-2 .77V5.28a1.06 1.06 0 000-.31v-.09a.76.76 0 00-.09-.18l-.06-.09a.93.93 0 00-.13-.15l-.2-.07a.76.76 0 00-.18-.09L12.06.07a1.19 1.19 0 00-.81 0L.74 4.15a1.09 1.09 0 00-.67.75 1.17 1.17 0 00-.07.38v23.17a1.11 1.11 0 00.72 1l8.76 3.33a1.23 1.23 0 00.36.23l10.7 4.06a1 1 0 00.73 0l10.49-4.06a1.12 1.12 0 00.7-1v-6.67l1.19-.46a1.13 1.13 0 00.66-.71 1.09 1.09 0 00-.09-.96zm-11 3.34l-5-7.24-1.06-1.62.89-.34.59-.33 6.78-2.63 6.17 8.92zm-3.42 7.91l-8.48-3.22v-9.3l2.58-1.8 1.72-.67.74 1.07 3.44 5.22zm1.42-20.83L15 16.07l-.13.06-1.86 1v-7l8.23-3.23zM11.65 2.3l7.64 3-2.29.87-5.12 2-7.63-3zM2.22 6.89l8.51 3.23v8.27L7 20.44a1.11 1.11 0 00.94 2L9.12 22v8.3l-6.9-2.62zM30.3 31.25l-8.3 3.2v-4.69l.71-.28a1 1 0 00.61-.59l6.98-2.69z" fill="#004b2f" data-name="Layer 1"/></g></svg>