<svg xmlns="http://www.w3.org/2000/svg" viewBox="0 0 26.88 37.36"><defs><style>.cls-1{fill:#004b2f}</style></defs><g id="Layer_2" data-name="Layer 2"><g id="Layer_1-2" data-name="Layer 1"><path class="cls-1" d="M18.86 5.79h-7.14a1.1 1.1 0 01-1.11-1.11V1.11A1.11 1.11 0 0111.72 0h7.14A1.12 1.12 0 0120 1.11v3.57a1.11 1.11 0 01-1.14 1.11zm-6-2.22h4.92V2.22h-4.95zM7.88 37.36h-3.8A4.08 4.08 0 010 33.29v-9.93c0-1.55 1.26-7.57 4.08-7.57h3.8c2.81 0 4.07 6 4.07 7.57v9.93a4.08 4.08 0 01-4.07 4.07zM7.8 18H4.08c-.63.29-1.86 3.7-1.86 5.35v9.93a1.85 1.85 0 001.86 1.85h3.8a1.85 1.85 0 001.85-1.85v-9.92c0-1.65-1.23-5.06-1.93-5.36z"/><path class="cls-1" d="M26.88 21.9a4.21 4.21 0 00-.88-2.58v-.43a4.26 4.26 0 00-.7-5.89 15.85 15.85 0 00-1.57-1.76A14.34 14.34 0 0120 5.8a1.11 1.11 0 00-1-.75h-3.82a1.27 1.27 0 00-.34 0h-3.21a1.12 1.12 0 00-1.06.76 14.23 14.23 0 01-3.72 5.49 18.33 18.33 0 00-1.44 1.59 3 3 0 00-.27.23h3l.26-.27a17.39 17.39 0 004-5.53h2.78a1.2 1.2 0 00.33-.05h2.68a17.18 17.18 0 003.95 5.52 13.76 13.76 0 011.42 1.6.93.93 0 00.25.27 2.05 2.05 0 01.84 1.66 2 2 0 01-.56 1.4 1.17 1.17 0 00-.3.74v1.24a1.17 1.17 0 00.31.79 2 2 0 01.57 1.41 2.07 2.07 0 01-.67 1.47 1.07 1.07 0 00-.33.77v1A1.15 1.15 0 0024 26a2 2 0 01.63 1.48 2.07 2.07 0 01-1.08 1.81 1.11 1.11 0 000 1.95 2.08 2.08 0 01-1 3.9H10.17a2.94 2.94 0 01-2.29 1.11H5.15A4.29 4.29 0 008 37.36h14.57a4.3 4.3 0 003.27-7.1 4.25 4.25 0 00.07-5.49v-.17a4.24 4.24 0 00.97-2.7z"/><path class="cls-1" d="M8.62 16.88H3.33a1.11 1.11 0 01-1.11-1.11v-2.65A1.11 1.11 0 013.33 12h5.29a1.11 1.11 0 011.11 1.11v2.65a1.11 1.11 0 01-1.11 1.12zm-4.18-2.22h3.07v-.43H4.44z"/></g></g></svg>