<svg xmlns="http://www.w3.org/2000/svg" viewBox="0 0 29.3 32.17"><g data-name="Layer 2"><path d="M29.25 16v-.09l-.09-.18-.07-.09a.87.87 0 00-.13-.15l-.08-.07a.61.61 0 00-.18-.09l-8.34-3.25V4.65a1.06 1.06 0 00-.05-.31v-.09a1 1 0 00-.09-.18L20 4a1 1 0 00-.14-.15l-.08-.07-.19-.1L10.46.07a1.22 1.22 0 00-.8 0L.74 3.53a1.14 1.14 0 00-.61.59.5.5 0 000 .13 1.16 1.16 0 00-.13.4v19.66a1.1 1.1 0 00.72 1l9.1 3.46a1.15 1.15 0 00.37.06h.12l8.53 3.24a1.13 1.13 0 00.36.06.94.94 0 00.37-.07l8.92-3.46a1.12 1.12 0 00.71-1V16.35a1.06 1.06 0 00.05-.35zm-11.1 13.45l-6.88-2.61V18l6.88 2.61zm4.54-12.16l-3.43 1.32-6-2.34L19.11 14l6 2.34zM18 12l-6.7 2.6V8.87l6.7-2.6zm-8-9.74l6 2.34-.27.11-5.51 2.2-6-2.34zm-7.84 4L9.1 8.87V16a1.14 1.14 0 000 .33v9.79l-6.88-2.57zm18.22 23.18v-8.87l6.7-2.6v8.87z" fill="#004b2f" data-name="Layer 1"/></g></svg>